<svg width="32" height="33" viewBox="0 0 32 33" fill="none" xmlns="http://www.w3.org/2000/svg">
<mask id="mask0_311_86" style="mask-type:luminance" maskUnits="userSpaceOnUse" x="0" y="0" width="32" height="33">
<rect y="0.72998" width="32" height="32" fill="white"/>
</mask>
<g mask="url(#mask0_311_86)">
<path d="M13.6704 8.57577L14.0416 14.0957L14.2259 16.8701C14.2279 17.1555 14.2726 17.4389 14.3588 17.7113C14.5814 18.2401 15.1168 18.5761 15.6994 18.5527L24.5756 17.972C24.96 17.9657 25.3312 18.1095 25.6075 18.3717C25.8378 18.5903 25.9864 18.8761 26.0334 19.1836L26.0491 19.3703C25.6818 24.4565 21.9462 28.6989 16.8704 29.794C11.7946 30.8891 6.58971 28.5757 4.08151 24.1099C3.35842 22.8124 2.90677 21.3864 2.75307 19.9153C2.68887 19.4799 2.66061 19.04 2.66854 18.6C2.66061 13.147 6.54386 8.4326 11.9797 7.29608C12.6339 7.1942 13.2753 7.54055 13.5376 8.13736C13.6055 8.27557 13.6503 8.4236 13.6704 8.57577Z" fill="white"/>
<path opacity="0.4" d="M29.3335 13.813L29.3241 13.8564L29.2972 13.9196L29.3009 14.0931C29.2871 14.3228 29.1983 14.5439 29.0455 14.7226C28.8861 14.9086 28.6685 15.0352 28.4289 15.0844L28.2828 15.1044L18.0417 15.768C17.7011 15.8016 17.3619 15.6918 17.1087 15.4659C16.8975 15.2775 16.7625 15.0234 16.7244 14.7495L16.0371 4.52332C16.0251 4.48875 16.0251 4.45127 16.0371 4.41668C16.0464 4.1348 16.1705 3.86836 16.3816 3.67688C16.5925 3.4854 16.8731 3.38484 17.1601 3.39767C23.24 3.55235 28.3499 7.9243 29.3335 13.813Z" fill="white"/>
</g>
</svg>
