<svg width="32" height="27" viewBox="0 0 32 27" fill="none" xmlns="http://www.w3.org/2000/svg">
<path d="M31 25.9999C31 23.0972 28.2173 20.6278 24.3333 19.7126M21 26C21 22.3181 16.5228 19.3333 11 19.3333C5.47715 19.3333 1 22.3181 1 26M21 14.3333C24.6819 14.3333 27.6667 11.3486 27.6667 7.66667C27.6667 3.98477 24.6819 1 21 1M11 14.3333C7.3181 14.3333 4.33333 11.3486 4.33333 7.66667C4.33333 3.98477 7.3181 1 11 1C14.6819 1 17.6667 3.98477 17.6667 7.66667C17.6667 11.3486 14.6819 14.3333 11 14.3333Z" stroke="#393939" stroke-opacity="0.5" stroke-width="2" stroke-linecap="round" stroke-linejoin="round"/>
</svg>
