<svg width="32" height="31" viewBox="0 0 32 31" fill="none" xmlns="http://www.w3.org/2000/svg">
<path d="M15.9995 10.0809C17.414 10.0809 18.7706 10.6119 19.7708 11.5572C20.771 12.5024 21.3329 13.7845 21.3329 15.1213C21.3329 16.4581 20.771 17.7401 19.7708 18.6854C18.7706 19.6307 17.414 20.1617 15.9995 20.1617C14.585 20.1617 13.2285 19.6307 12.2283 18.6854C11.2281 17.7401 10.6662 16.4581 10.6662 15.1213C10.6662 13.7845 11.2281 12.5024 12.2283 11.5572C13.2285 10.6119 14.585 10.0809 15.9995 10.0809ZM15.9995 12.6011C15.2923 12.6011 14.614 12.8666 14.1139 13.3392C13.6138 13.8119 13.3329 14.4529 13.3329 15.1213C13.3329 15.7897 13.6138 16.4307 14.1139 16.9033C14.614 17.376 15.2923 17.6415 15.9995 17.6415C16.7068 17.6415 17.3851 17.376 17.8851 16.9033C18.3852 16.4307 18.6662 15.7897 18.6662 15.1213C18.6662 14.4529 18.3852 13.8119 17.8851 13.3392C17.3851 12.8666 16.7068 12.6011 15.9995 12.6011ZM13.3329 27.7224C12.9995 27.7224 12.7195 27.4955 12.6662 27.1931L12.1729 23.8538C11.3329 23.5388 10.6129 23.1104 9.91953 22.6063L6.59953 23.879C6.3062 23.9798 5.9462 23.879 5.7862 23.6018L3.11953 19.2418C3.03793 19.112 3.00916 18.9585 3.0386 18.8101C3.06805 18.6617 3.1537 18.5284 3.27953 18.4354L6.09286 16.3436L5.99953 15.1213L6.09286 13.8612L3.27953 11.8072C3.1537 11.7141 3.06805 11.5809 3.0386 11.4325C3.00916 11.2841 3.03793 11.1306 3.11953 11.0007L5.7862 6.64076C5.9462 6.36354 6.3062 6.25013 6.59953 6.36354L9.91953 7.62365C10.6129 7.13221 11.3329 6.70377 12.1729 6.38874L12.6662 3.04946C12.7195 2.74703 12.9995 2.52021 13.3329 2.52021H18.6662C18.9995 2.52021 19.2795 2.74703 19.3329 3.04946L19.8262 6.38874C20.6662 6.70377 21.3862 7.13221 22.0795 7.62365L25.3995 6.36354C25.6929 6.25013 26.0529 6.36354 26.2129 6.64076L28.8795 11.0007C29.0529 11.278 28.9729 11.6182 28.7195 11.8072L25.9062 13.8612L25.9995 15.1213L25.9062 16.3814L28.7195 18.4354C28.9729 18.6244 29.0529 18.9646 28.8795 19.2418L26.2129 23.6018C26.0529 23.879 25.6929 23.9924 25.3995 23.879L22.0795 22.6189C21.3862 23.1104 20.6662 23.5388 19.8262 23.8538L19.3329 27.1931C19.2795 27.4955 18.9995 27.7224 18.6662 27.7224H13.3329ZM14.9995 5.04043L14.5062 8.32931C12.9062 8.64433 11.4929 9.4508 10.4662 10.5723L7.25286 9.26179L6.25286 10.8999L9.0662 12.8531C8.53286 14.3232 8.53286 15.9193 9.0662 17.3895L6.23953 19.3552L7.23953 20.9934L10.4795 19.6829C11.5062 20.7918 12.9062 21.5982 14.4929 21.9007L14.9862 25.2021H17.0129L17.5062 21.9133C19.0929 21.5982 20.4929 20.7918 21.5195 19.6829L24.7595 20.9934L25.7595 19.3552L22.9329 17.4021C23.4662 15.9278 23.4662 14.3274 22.9329 12.8531L25.7462 10.8999L24.7462 9.26179L21.5329 10.5723C20.4852 9.42601 19.064 8.6414 17.4929 8.34191L16.9995 5.04043H14.9995Z" fill="#393939" fill-opacity="0.5"/>
</svg>
