<svg width="32" height="31" viewBox="0 0 32 31" fill="none" xmlns="http://www.w3.org/2000/svg">
<path fill-rule="evenodd" clip-rule="evenodd" d="M21.7741 20.9818L26.3365 15.9508C26.5544 15.7159 26.6659 15.4194 26.666 15.1213C26.6661 14.9173 26.6141 14.7126 26.5085 14.5265C26.4615 14.4435 26.4041 14.3647 26.3365 14.2918L21.7741 9.26077C21.2949 8.73234 20.4532 8.67111 19.8941 9.12399C19.3349 9.57687 19.2702 10.3724 19.7494 10.9008L22.4339 13.8611L12.1077 13.8611C11.3713 13.8611 10.7744 14.4253 10.7744 15.1212C10.7744 15.8171 11.3713 16.3813 12.1077 16.3813L22.4341 16.3813L19.7494 19.3418C19.2702 19.8702 19.3349 20.6657 19.8941 21.1186C20.4532 21.5715 21.2949 21.5102 21.7741 20.9818ZM13.3327 7.56054C14.0691 7.56054 14.666 8.12471 14.666 8.82065L14.666 10.7108C14.666 11.4067 15.263 11.9709 15.9993 11.9709C16.7357 11.9709 17.3327 11.4067 17.3327 10.7108L17.3327 8.82065C17.3327 6.73284 15.5418 5.04033 13.3327 5.04033L9.33268 5.04033C7.12354 5.04033 5.33268 6.73284 5.33268 8.82065L5.33268 21.4217C5.33268 23.5095 7.12354 25.202 9.33268 25.202L13.3327 25.202C15.5418 25.202 17.3327 23.5095 17.3327 21.4217L17.3327 19.5316C17.3327 18.8356 16.7357 18.2714 15.9993 18.2714C15.263 18.2714 14.666 18.8356 14.666 19.5316L14.666 21.4217C14.666 22.1177 14.0691 22.6818 13.3327 22.6818L9.33268 22.6818C8.5963 22.6818 7.99935 22.1177 7.99935 21.4217L7.99935 8.82065C7.99935 8.12471 8.5963 7.56054 9.33268 7.56054L13.3327 7.56054Z" fill="#393939" fill-opacity="0.5"/>
</svg>
