<svg
                width="22"
                height="23"
                viewBox="0 0 22 23"
                fill="none"
                xmlns="http://www.w3.org/2000/svg"
              >
                <path
                  d="M6.49951 5.55663L6.49951 3.71799C6.49951 2.43672 6.49951 1.79608 6.88387 1.39804C7.26823 1 7.88684 1 9.12407 1L12.675 1C13.9122 1 14.5308 1 14.9152 1.39804C15.2995 1.79608 15.2995 2.43672 15.2995 3.71799V5.55663"
                  stroke="#393939"
                />
                <path
                  d="M5.16597 21.6632L4.844 22.0408L5.16597 21.6632C5.12278 21.6264 5.08049 21.5885 5.03914 21.5496C4.60104 21.1376 4.32067 20.5818 4.10806 19.6878C3.89237 18.7809 3.75998 17.5905 3.57791 15.942L2.3996 5.27349L19.4007 5.27349L18.2224 15.942C18.0403 17.5905 17.908 18.7809 17.6923 19.6878C17.4796 20.5818 17.1993 21.1376 16.7612 21.5496C16.7198 21.5885 16.6775 21.6264 16.6343 21.6632C16.1767 22.0535 15.5934 22.2711 14.6816 22.3843C13.7565 22.4991 12.5587 22.5 10.9002 22.5C9.24165 22.5 8.04385 22.4991 7.11873 22.3843C6.20688 22.2711 5.62359 22.0535 5.16597 21.6632Z"
                  stroke="#393939"
                />
                <path
                  d="M1 5.53424H20.8"
                  stroke="#393939"
                  strokeLinecap="round"
                />
              </svg>