<svg
    width="28"
    height="28"
    viewBox="0 0 28 28"
    fill="none"
    xmlns="http://www.w3.org/2000/svg"
    >
    <path
        d="M27 3.54016C27 2.65107 26.9994 2.2062 26.8223 1.86662C26.6665 1.56791 26.4188 1.32523 26.1131 1.17303C25.7654 1 25.3094 1 24.3994 1H3.59937C2.68928 1 2.23469 1 1.88708 1.17303C1.58132 1.32523 1.33291 1.56791 1.17711 1.86662C1 2.2062 1 2.65107 1 3.54016V4.71056C1 5.09885 1 5.29314 1.0449 5.47584C1.08471 5.63782 1.15053 5.79255 1.23962 5.93459C1.34009 6.09475 1.48085 6.23226 1.76172 6.50665L9.98867 14.5438C10.2697 14.8183 10.4095 14.9548 10.51 15.115C10.599 15.2571 10.6658 15.4124 10.7056 15.5743C10.75 15.7552 10.75 15.9472 10.75 16.3276V23.8775C10.75 25.2383 10.75 25.9192 11.0434 26.329C11.2996 26.6868 11.6948 26.9255 12.137 26.9893C12.6434 27.0624 13.2667 26.7584 14.5126 26.1498L15.8126 25.5148C16.3343 25.26 16.5945 25.1321 16.7851 24.942C16.9537 24.7739 17.0826 24.572 17.1611 24.3496C17.2499 24.098 17.25 23.8124 17.25 23.2425V16.3394C17.25 15.9511 17.25 15.757 17.2949 15.5743C17.3347 15.4124 17.4005 15.2571 17.4896 15.115C17.5894 14.9559 17.7288 14.8197 18.0061 14.5488L18.0117 14.5438L26.2387 6.50665C26.5197 6.23209 26.6595 6.0948 26.7599 5.93459C26.849 5.79255 26.9158 5.63782 26.9556 5.47584C27 5.295 27 5.1028 27 4.72238V3.54016Z"
        stroke="#2D8E00"
        strokeWidth="2"
        strokeLinecap="round"
        strokeLinejoin="round"
    />
</svg>