<svg width="186" height="232" viewBox="0 0 186 232" fill="none" xmlns="http://www.w3.org/2000/svg">
<g clip-path="url(#clip0_681_249)">
<path d="M67.0905 96.036C67.2657 96.2384 67.4457 96.4384 67.6173 96.6443C67.9939 97.0955 68.3419 97.5669 68.6494 98.0657C68.8007 98.3133 69.5742 99.6383 70.4299 102.204C70.4299 102.204 72.7587 103.762 72.1354 98.4764C72.0424 97.83 71.9256 97.1872 71.7945 96.5467C71.7337 96.2456 71.7421 95.9539 71.8505 95.6694C71.928 95.4658 72.0114 95.2635 72.1032 95.0658C72.2796 94.6873 72.4893 94.3278 72.7062 93.9719C73.2187 93.1326 73.7824 92.3279 74.3664 91.5374C75.1744 90.4423 76.0218 89.3804 76.8978 88.3388C77.8381 87.2222 78.8082 86.1329 79.8343 85.0925C80.2741 84.6473 80.721 84.2092 81.1989 83.8057C81.4111 83.6271 81.6315 83.4569 81.8532 83.289C82.0439 83.145 82.2525 83.0331 82.4765 82.9438C82.7065 82.8521 82.9318 82.745 83.1523 82.6319C84.2606 82.0593 85.1116 81.2212 85.7098 80.1296C85.8433 79.8856 85.9911 79.6511 86.1508 79.4237C86.3117 79.1952 86.4988 78.9916 86.7002 78.7987C86.9314 78.5773 87.1865 78.3928 87.457 78.2238C88.3508 77.6678 89.2661 77.1488 90.1886 76.6429C91.9465 75.6786 93.7282 74.7584 95.5194 73.8585C95.5981 73.8192 95.6803 73.7847 95.7578 73.7478C95.7912 73.7668 95.8198 73.7775 95.8412 73.7966C96.0975 74.0216 96.3894 74.1882 96.6922 74.3394C97.1367 74.562 97.5967 74.7454 98.0627 74.918C98.9756 75.2537 99.9052 75.5406 100.842 75.8013C101.559 76.0001 102.282 76.1798 103 76.3715C103.11 76.4 103.214 76.4036 103.323 76.3822C103.904 76.2739 104.485 76.256 105.073 76.325C105.359 76.3584 105.642 76.406 105.924 76.4679C106 76.4846 106.077 76.4988 106.139 76.5584C106.069 76.5929 106.001 76.5738 105.934 76.5655C105.477 76.5107 105.023 76.5536 104.57 76.6215C104.413 76.6453 104.256 76.675 104.1 76.7036C103.904 76.7393 103.718 76.8048 103.539 76.8953C103.193 77.0703 102.854 77.256 102.525 77.4595C100.769 78.5392 99.2807 79.9094 98.0639 81.5712C97.8005 81.9319 97.5502 82.3022 97.2928 82.6664C97.1152 82.9176 96.9389 83.17 96.7565 83.4176C96.3167 84.0164 95.7793 84.5116 95.1583 84.9187C94.7174 85.208 94.2561 85.4591 93.7842 85.6925C93.6507 85.7591 93.5149 85.8198 93.3826 85.8865C93.0799 86.0377 92.7867 86.2044 92.5185 86.4115C92.3445 86.546 92.1896 86.6972 92.0561 86.8722C91.782 87.2305 91.7272 87.6281 91.832 88.0566C91.8726 88.2209 91.9298 88.3804 92.0096 88.5292C92.1133 88.7209 92.2182 88.9137 92.3362 89.0959C92.4828 89.3197 92.6413 89.5363 92.7986 89.753C92.9452 89.953 93.0942 90.1518 93.2455 90.3482C93.9213 91.222 94.4993 92.1588 95.0082 93.1374C95.1405 93.3921 95.268 93.6504 95.3979 93.9076C95.4837 94.0754 95.5683 94.2445 95.6541 94.4123C95.6541 94.4123 96.0915 95.5087 96.1582 95.6968C96.2238 95.8849 96.9865 95.892 97.7374 94.6206C97.8446 94.4468 97.9137 94.2528 97.9519 94.0385C98.0055 93.7421 97.9996 93.4469 97.9686 93.1493C97.9197 92.6945 97.8291 92.2481 97.7326 91.8017C97.5908 91.1422 97.443 90.4839 97.3739 89.8113C97.35 89.5744 97.3441 89.3364 97.331 89.0983C97.3274 89.028 97.3417 88.9614 97.3727 88.8971C97.4501 88.7364 97.524 88.5733 97.6003 88.4126C97.8756 87.8245 98.232 87.2888 98.6503 86.7936C98.9589 86.4281 99.2962 86.0936 99.6502 85.7734C100.33 85.1592 101.058 84.6092 101.81 84.089C102.683 83.4842 103.584 82.9212 104.49 82.3641C105.268 81.8855 106.055 81.4212 106.82 80.9213C107.369 80.5629 107.913 80.1963 108.431 79.7951C108.84 79.4797 109.235 79.1451 109.594 78.7737C109.907 78.4523 110.189 78.1071 110.42 77.7214C110.773 77.131 110.973 76.4941 111.006 75.806C111.017 75.5477 111.008 75.2906 110.997 75.0322C110.979 74.5989 110.871 74.1894 110.667 73.8073C110.579 73.6406 110.488 73.474 110.385 73.318C110.248 73.1109 110.102 72.9097 109.952 72.7133C109.577 72.224 109.158 71.7729 108.726 71.3336C108.07 70.6682 107.372 70.0491 106.654 69.4504C105.495 68.4825 104.291 67.5731 103.053 66.7064C102.98 66.6553 102.907 66.6041 102.835 66.5505C102.806 66.5291 102.796 66.4767 102.818 66.4434C102.93 66.2684 103.038 66.0898 103.158 65.9184C103.5 65.4291 103.894 64.9827 104.306 64.5518C104.601 64.2423 104.895 63.9339 105.19 63.6244C105.74 63.0447 106.201 62.4019 106.586 61.7019C106.667 61.5543 106.74 61.4019 106.815 61.2507C106.851 61.1793 106.872 61.1043 106.884 61.0246C106.953 60.5805 106.973 60.1365 106.893 59.6913C106.888 59.6651 106.897 59.6377 106.9 59.6068C106.957 59.6472 106.975 59.7032 106.993 59.7603C107.08 60.0353 107.121 60.321 107.168 60.6043C107.186 60.7127 107.21 60.8174 107.249 60.9198C107.731 62.159 108.224 63.3935 108.777 64.603C109 65.0898 109.231 65.5732 109.488 66.0434C109.594 66.235 109.712 66.4184 109.86 66.5803C110.245 67.0029 110.723 67.2398 111.29 67.2969C111.741 67.3421 112.183 67.2969 112.613 67.1528C113.13 66.979 113.65 66.8088 114.165 66.6291C115.252 66.2493 116.333 65.8517 117.392 65.4006C118.115 65.0922 118.818 64.7482 119.482 64.3244C120.237 63.8411 121.045 63.4625 121.897 63.178C122.18 63.084 122.461 62.9864 122.741 62.884C123.535 62.5923 124.301 62.2412 125.033 61.8162C125.308 61.6567 125.573 61.4805 125.817 61.2757C125.961 61.1543 126.097 61.0234 126.215 60.8746C126.314 60.7496 126.399 60.6162 126.456 60.4663C126.517 60.3067 126.556 60.1437 126.545 59.9722C126.529 59.7115 126.38 59.4746 126.048 59.4318C125.96 59.4199 125.87 59.4211 125.78 59.4211C125.56 59.4211 125.346 59.4675 125.134 59.5187C124.796 59.5984 124.466 59.708 124.135 59.8151C123.777 59.9318 123.418 60.0472 123.057 60.1567C122.934 60.1936 122.805 60.2175 122.679 60.2365C122.529 60.2591 122.384 60.2353 122.245 60.1675C122.215 60.1532 122.198 60.0877 122.218 60.0639C122.243 60.0341 122.266 59.9972 122.299 59.9782C122.392 59.9222 122.49 59.871 122.586 59.8234C122.712 59.7603 122.827 59.683 122.92 59.5782C122.959 59.5342 122.993 59.483 123.019 59.4306C123.064 59.3413 123.025 59.2246 122.939 59.1687C122.853 59.1139 122.76 59.0842 122.659 59.0782C122.54 59.0711 122.422 59.0758 122.302 59.0985C122.077 59.1425 121.862 59.2175 121.657 59.3199C121.228 59.5342 120.837 59.8044 120.49 60.1377C120.195 60.4222 119.94 60.7353 119.746 61.0996C119.486 61.5864 119.082 61.9079 118.554 62.0709C118.383 62.1233 118.206 62.1507 118.028 62.165C117.72 62.19 117.414 62.2174 117.107 62.2459C116.801 62.2745 116.495 62.3102 116.189 62.3388C115.882 62.3674 115.575 62.3912 115.269 62.4185C115.031 62.44 114.794 62.4626 114.557 62.4864C114.26 62.5162 113.965 62.5471 113.668 62.5769C113.5 62.5935 113.332 62.609 113.164 62.6245C113.125 62.6281 113.084 62.6316 113.045 62.6316C112.774 62.6292 112.548 62.4162 112.541 62.1447C112.537 61.9864 112.552 61.8281 112.56 61.6686C112.572 61.4007 112.589 61.1329 112.594 60.8662C112.603 60.3496 112.592 59.8341 112.545 59.3199C112.5 58.8151 112.432 58.3152 112.319 57.8211C112.262 57.5688 112.191 57.3212 112.104 57.0783C112.022 56.8486 111.992 56.6176 112.05 56.3772C112.089 56.2129 112.116 56.0462 112.146 55.8808C112.259 55.2641 112.326 54.6439 112.313 54.0166C112.307 53.738 112.289 53.4618 112.241 53.1868C112.107 52.394 111.758 51.7226 111.126 51.2107C111.048 51.1476 110.971 51.0869 110.895 51.0226C110.826 50.9655 110.756 50.9096 110.692 50.8477C110.643 50.8 110.6 50.7441 110.557 50.6893C110.519 50.6405 110.51 50.5822 110.505 50.5215C110.491 50.3465 110.667 50.1572 110.815 50.1334C110.935 50.1132 111.054 50.1191 111.166 50.1679C111.284 50.2191 111.4 50.2774 111.51 50.3441C111.636 50.4227 111.754 50.5143 111.876 50.6C111.948 50.6512 112.02 50.706 112.096 50.7524C112.356 50.9119 112.804 50.9107 113.045 50.5441C113.094 50.4703 113.133 50.3893 113.173 50.3096C113.196 50.2655 113.208 50.2167 113.228 50.1715C113.307 49.9965 113.411 49.8406 113.589 49.7513C113.663 49.7144 113.718 49.6608 113.753 49.5846C113.792 49.5013 113.847 49.437 113.94 49.4037C114.061 49.3608 114.129 49.2656 114.171 49.1477C114.188 49.1013 114.204 49.0549 114.223 49.0085C114.241 48.9656 114.306 48.943 114.351 48.962C114.406 48.9858 114.458 49.0156 114.514 49.0346C114.57 49.0537 114.629 49.068 114.687 49.0739C114.831 49.0894 114.937 49.0263 115.006 48.9025C115.055 48.8156 115.087 48.7216 115.101 48.6216C115.126 48.4335 115.132 48.2466 115.121 48.0573C115.109 47.849 115.104 47.6407 115.098 47.4323C115.093 47.2692 115.145 47.1193 115.223 46.9788C115.291 46.8562 115.378 46.749 115.471 46.6443C115.652 46.4419 115.782 46.2098 115.884 45.9598C115.988 45.7003 116.053 45.43 116.094 45.1551C116.152 44.7801 116.147 44.4051 116.072 44.0301C115.965 43.4861 115.754 42.9873 115.451 42.5266C115.036 41.8957 114.518 41.3969 113.884 41.0433H113.885C112.749 40.3255 111.553 40.4946 111.553 40.4946C111.048 40.5338 110.065 40.7291 109.251 41.5969C109.224 41.6421 109.181 41.6766 109.148 41.7171C109.058 41.8231 108.974 41.9326 108.892 42.0433C108.872 42.0731 108.852 42.1016 108.832 42.129C108.584 42.4826 108.376 42.8599 108.214 43.2647C108.051 43.6718 107.932 44.0932 107.893 44.5289C107.863 44.8563 107.813 45.1789 107.756 45.5015C107.695 45.8443 107.601 46.1776 107.461 46.4979C107.39 46.6621 107.306 46.8205 107.192 46.9597C106.946 47.2585 106.698 47.5561 106.449 47.8537C106.425 47.8823 106.39 47.9025 106.356 47.9299C106.262 47.8823 106.173 47.8395 106.085 47.7942C105.086 47.274 104.045 46.8621 102.951 46.5919C102.157 46.3955 101.352 46.2883 100.532 46.3252C100.383 46.3324 100.235 46.3479 100.088 46.3633C99.8802 46.3848 99.674 46.4205 99.4655 46.4324C98.9995 46.4586 98.5323 46.4538 98.0651 46.4205C97.7088 46.3955 97.3524 46.3621 96.9961 46.3336C96.6302 46.305 96.2631 46.2824 95.8972 46.2479C95.293 46.1907 94.6864 46.1883 94.081 46.2074C93.6626 46.2205 93.2503 46.2824 92.8451 46.3848C92.1097 46.5717 91.496 46.9431 91.0276 47.5526C90.713 47.9621 90.3781 48.3549 90.0479 48.7525C88.6965 50.3786 87.3199 51.9845 85.9422 53.5892C85.5907 53.9987 85.1974 54.3594 84.7493 54.6594C84.4191 54.8808 84.0938 55.1082 83.7648 55.332C83.5396 55.4855 83.3549 55.6784 83.2107 55.9069C82.933 56.3462 82.8841 56.814 83.0557 57.3033C83.1082 57.4533 83.1773 57.5973 83.2655 57.7295C83.5873 58.214 83.977 58.6342 84.4549 58.9687C84.5598 59.0425 84.6742 59.1044 84.791 59.1604C84.8708 59.1985 84.959 59.2223 85.046 59.2389C85.1866 59.2651 85.2999 59.2044 85.3678 59.0782C85.4047 59.008 85.4357 58.9354 85.4703 58.8639C85.5847 58.6211 85.7003 58.3794 85.8445 58.1533C85.9291 58.0199 86.0233 57.8902 86.1234 57.7676C86.2449 57.6188 86.3975 57.5092 86.5858 57.4557C86.6335 57.4426 86.68 57.4223 86.7264 57.4057C86.8325 57.3688 86.9219 57.3045 86.9886 57.2152C87.1924 56.9414 87.3521 56.6462 87.3903 56.2998C87.4034 56.1819 87.4117 56.0629 87.4141 55.9438C87.4177 55.7784 87.4749 55.6343 87.5714 55.5034C87.637 55.4141 87.718 55.3439 87.8145 55.2879C88.6118 54.8177 89.3519 54.2665 90.0718 53.6856C91.1944 52.7809 92.2575 51.8107 93.2884 50.8048C93.3802 50.7143 93.4731 50.625 93.5649 50.5346C93.6126 50.4881 93.6674 50.4786 93.7282 50.5012C93.8855 50.5608 94.0416 50.625 94.2013 50.681C94.9235 50.9357 95.6684 51.1084 96.4169 51.2631C97.3703 51.4595 98.3285 51.6262 99.2926 51.7571C99.3808 51.769 99.4678 51.7917 99.5548 51.8107C99.5811 51.8167 99.5882 51.8607 99.5656 51.8821C99.5238 51.9238 99.4821 51.9666 99.438 52.0071C99.2414 52.1893 99.0579 52.3845 98.8839 52.5892C98.4858 53.0618 98.1521 53.5773 97.8696 54.1273C97.6194 54.613 97.4001 55.1129 97.2118 55.6248C96.9687 56.2855 96.7351 56.9497 96.4991 57.6128C96.2798 58.2295 96.0557 58.8449 95.7876 59.4425C95.548 59.9782 95.2775 60.496 94.9486 60.9829C94.7257 61.3126 94.479 61.6233 94.2013 61.909C93.7413 62.3828 93.2145 62.7685 92.6258 63.0697C91.8916 63.4447 91.1718 63.8447 90.4818 64.297C89.8406 64.7172 89.2316 65.1779 88.6702 65.6993C87.6739 66.6255 86.898 67.704 86.4106 68.9813C86.2545 69.3896 86.0626 69.7813 85.8528 70.1658C85.5954 70.6372 85.3118 71.0908 85.0079 71.5324C84.4787 72.3026 83.8959 73.0311 83.2834 73.7359C82.4884 74.6513 81.6423 75.5168 80.7699 76.3596C79.7986 77.2988 78.7879 78.194 77.7594 79.0702C77.204 79.5428 76.7166 80.0761 76.2661 80.6451C75.6869 81.3784 75.1685 82.1545 74.6751 82.9462C73.9505 84.1092 73.2878 85.3068 72.6526 86.521C71.903 87.9543 71.2022 89.4113 70.5098 90.8732C70.3274 91.2589 70.1379 91.641 69.958 92.0279C69.8364 92.2862 69.6576 92.4945 69.4312 92.6636C69.2882 92.7695 69.1404 92.8719 68.9879 92.9648C68.7507 93.1088 68.5052 93.2409 68.2656 93.3814C68.0249 93.5207 67.7818 93.6564 67.5482 93.8052C67.3897 93.9064 67.2359 94.0183 67.0917 94.1385C66.5912 94.5563 66.5125 95.2932 66.9058 95.8301C66.9702 95.9027 67.0321 95.9682 67.0905 96.036Z" fill="white"/>
<path d="M165.2 71.5895C165.2 32.1152 133.048 0 93.528 0C54.0083 0 21.8562 32.1152 21.8562 71.5895C21.8562 83.7057 24.8953 95.123 30.2369 105.137C30.1797 105.126 30.1213 105.119 30.064 105.108C49.6821 143.716 93.528 185.574 93.528 185.574C93.528 185.574 136.294 144.75 156.253 106.549C156.18 106.555 156.105 106.556 156.032 106.561C161.859 96.2098 165.2 84.2854 165.2 71.5895ZM93.528 7.2699C129.035 7.2699 157.921 36.1233 157.921 71.5895C157.921 107.056 129.035 135.909 93.528 135.909C58.021 135.909 29.1333 107.056 29.1333 71.5895C29.1333 36.1233 58.021 7.2699 93.528 7.2699Z" fill="white"/>
<path d="M93.528 122.293C121.518 122.293 144.29 99.5478 144.29 71.5896C144.29 43.6313 121.518 20.8859 93.528 20.8859C65.5376 20.8859 42.7661 43.6313 42.7661 71.5896C42.7661 99.5478 65.5376 122.293 93.528 122.293ZM93.528 28.1558C117.504 28.1558 137.012 47.6407 137.012 71.5896C137.012 95.5396 117.504 115.024 93.528 115.024C69.5516 115.024 50.0444 95.5396 50.0444 71.5896C50.0444 47.6407 69.5504 28.1558 93.528 28.1558Z" fill="white"/>
<path d="M0 215.619V215.554C0 209.2 4.95546 203.995 11.7332 203.995C15.1214 203.995 17.3596 204.762 19.3737 206.167C19.854 206.518 20.3963 207.188 20.3963 208.146C20.3963 209.488 19.3094 210.572 17.9662 210.572C17.2631 210.572 16.8149 210.318 16.4634 210.062C15.1202 209.103 13.6817 208.528 11.5723 208.528C7.99213 208.528 5.14614 211.69 5.14614 215.49V215.553C5.14614 219.641 7.95876 222.642 11.9238 222.642C13.7139 222.642 15.3133 222.194 16.5599 221.3V218.107H13.2348C12.0526 218.107 11.0932 217.18 11.0932 216C11.0932 214.817 12.0526 213.86 13.2348 213.86H18.8612C20.2366 213.86 21.3235 214.946 21.3235 216.32V221.748C21.3235 223.185 20.78 224.175 19.5966 224.878C17.7743 225.996 15.1214 227.113 11.7641 227.113C4.79576 227.115 0 222.229 0 215.619Z" fill="white"/>
<path d="M23.4341 218.268V218.205C23.4341 213.288 27.398 209.296 32.7372 209.296C38.0442 209.296 41.9759 213.223 41.9759 218.141V218.205C41.9759 223.122 38.012 227.115 32.6728 227.115C27.3658 227.115 23.4341 223.187 23.4341 218.268ZM37.1814 218.268V218.205C37.1814 215.682 35.3591 213.479 32.674 213.479C29.8924 213.479 28.2298 215.619 28.2298 218.141V218.205C28.2298 220.728 30.0521 222.931 32.7372 222.931C35.5188 222.931 37.1814 220.791 37.1814 218.268Z" fill="white"/>
<path d="M44.406 224.049C44.1188 223.858 43.9269 223.506 43.9269 223.091C43.9269 222.389 44.4703 221.846 45.1413 221.846C45.4607 221.846 45.7491 221.973 45.9088 222.133C48.0183 223.921 50.1289 224.782 52.9737 224.782C55.9782 224.782 57.9614 223.186 57.9614 220.983V220.918C57.9614 218.843 56.8423 217.661 52.1431 216.671C46.9957 215.553 44.63 213.892 44.63 210.221V210.157C44.63 206.644 47.7311 204.058 51.9834 204.058C54.9247 204.058 57.0663 204.793 59.1126 206.262C59.3677 206.454 59.6561 206.805 59.6561 207.283C59.6561 207.953 59.1126 208.496 58.4417 208.496C58.1544 208.496 57.9304 208.433 57.7063 208.274C55.8209 206.9 53.9987 206.325 51.9202 206.325C49.011 206.325 47.1566 207.921 47.1566 209.933V209.996C47.1566 212.104 48.3079 213.285 53.2312 214.339C58.2188 215.425 60.5201 217.245 60.5201 220.661V220.726C60.5201 224.557 57.3226 227.048 52.8796 227.048C49.6165 227.05 46.8992 226.029 44.406 224.049Z" fill="white"/>
<path d="M63.9728 211.308C63.9728 210.606 64.5162 210.063 65.1872 210.063C65.8904 210.063 66.4338 210.606 66.4338 211.308V213.544C67.777 211.564 69.7267 209.871 72.7646 209.871C76.7285 209.871 80.6614 213.001 80.6614 218.429V218.493C80.6614 223.89 76.7607 227.082 72.7646 227.082C69.6957 227.082 67.7126 225.422 66.4338 223.569V230.755C66.4338 231.457 65.9225 232 65.2194 232C64.5162 232 63.9728 231.457 63.9728 230.755V211.308ZM78.1336 218.524V218.46C78.1336 214.565 75.4485 212.075 72.3165 212.075C69.2476 212.075 66.3385 214.66 66.3385 218.429V218.493C66.3385 222.325 69.2476 224.879 72.3165 224.879C75.5129 224.879 78.1336 222.516 78.1336 218.524Z" fill="white"/>
<path d="M82.8984 218.557V218.493C82.8984 213.832 86.5417 209.871 91.5306 209.871C96.486 209.871 100.129 213.766 100.129 218.429V218.493C100.129 223.155 96.4526 227.116 91.4662 227.116C86.5107 227.115 82.8984 223.218 82.8984 218.557ZM97.6039 218.557V218.493C97.6039 214.948 94.951 212.043 91.4662 212.043C87.8861 212.043 85.4238 214.948 85.4238 218.429V218.493C85.4238 222.037 88.0458 224.912 91.5306 224.912C95.1095 224.911 97.6039 222.037 97.6039 218.557Z" fill="white"/>
<path d="M103.295 211.308C103.295 210.638 103.838 210.063 104.509 210.063C105.212 210.063 105.756 210.606 105.756 211.308V214.406C106.971 211.659 109.368 209.999 111.447 209.999C112.182 209.999 112.662 210.541 112.662 211.244C112.662 211.915 112.214 212.394 111.575 212.489C108.378 212.872 105.757 215.267 105.757 220.026V225.646C105.757 226.316 105.246 226.891 104.542 226.891C103.839 226.891 103.296 226.348 103.296 225.646V211.308H103.295Z" fill="white"/>
<path d="M115.826 222.356V212.394H114.483C113.908 212.394 113.396 211.882 113.396 211.308C113.396 210.701 113.909 210.222 114.483 210.222H115.826V206.326C115.826 205.656 116.338 205.081 117.041 205.081C117.713 205.081 118.287 205.656 118.287 206.326V210.222H122.571C123.178 210.222 123.69 210.733 123.69 211.308C123.69 211.915 123.177 212.394 122.571 212.394H118.287V222.037C118.287 224.049 119.405 224.784 121.069 224.784C121.932 224.784 122.38 224.56 122.572 224.56C123.147 224.56 123.627 225.038 123.627 225.613C123.627 226.061 123.339 226.412 122.923 226.572C122.22 226.859 121.452 227.019 120.493 227.019C117.84 227.018 115.826 225.71 115.826 222.356Z" fill="white"/>
<path d="M126.6 205.049C126.6 204.251 127.239 203.741 128.039 203.741C128.87 203.741 129.509 204.251 129.509 205.049V205.464C129.509 206.231 128.87 206.774 128.039 206.774C127.239 206.774 126.6 206.231 126.6 205.464V205.049ZM126.824 211.308C126.824 210.638 127.368 210.063 128.039 210.063C128.742 210.063 129.285 210.606 129.285 211.308V225.647C129.285 226.349 128.774 226.892 128.071 226.892C127.368 226.892 126.824 226.349 126.824 225.647V211.308Z" fill="white"/>
<path d="M134.657 212.394H133.313C132.706 212.394 132.257 211.915 132.257 211.308C132.257 210.733 132.738 210.255 133.313 210.255H134.657V208.818C134.657 206.933 135.168 205.498 136.095 204.57C136.926 203.741 138.141 203.293 139.643 203.293C140.441 203.293 141.05 203.357 141.593 203.485C142.073 203.58 142.488 203.995 142.488 204.538C142.488 205.176 141.944 205.656 141.306 205.592C140.891 205.529 140.443 205.432 139.962 205.432C138.045 205.432 137.085 206.582 137.085 208.945V210.287H141.369C141.976 210.287 142.456 210.734 142.456 211.341C142.456 211.916 141.976 212.395 141.369 212.395H137.116V225.647C137.116 226.317 136.604 226.892 135.901 226.892C135.198 226.892 134.654 226.317 134.654 225.647V212.394H134.657ZM145.462 205.049C145.462 204.251 146.101 203.741 146.901 203.741C147.732 203.741 148.372 204.251 148.372 205.049V205.464C148.372 206.231 147.732 206.774 146.901 206.774C146.101 206.774 145.462 206.231 145.462 205.464V205.049ZM145.685 211.308C145.685 210.638 146.229 210.063 146.901 210.063C147.604 210.063 148.148 210.606 148.148 211.308V225.647C148.148 226.349 147.636 226.892 146.933 226.892C146.23 226.892 145.687 226.349 145.687 225.647V211.308H145.685Z" fill="white"/>
<path d="M159.849 227.115C155.309 227.115 151.601 223.634 151.601 218.524V218.46C151.601 213.703 154.959 209.871 159.529 209.871C164.42 209.871 167.202 213.863 167.202 218.238C167.202 218.908 166.658 219.387 166.051 219.387H154.095C154.446 222.964 156.972 224.975 159.912 224.975C161.958 224.975 163.461 224.178 164.675 223.06C164.867 222.9 165.091 222.773 165.379 222.773C165.986 222.773 166.465 223.252 166.465 223.827C166.465 224.113 166.338 224.402 166.083 224.625C164.516 226.124 162.661 227.115 159.849 227.115ZM164.74 217.566C164.485 214.565 162.758 211.946 159.465 211.946C156.588 211.946 154.414 214.341 154.095 217.566H164.74Z" fill="white"/>
<path d="M186 225.646C186 226.348 185.457 226.891 184.784 226.891C184.081 226.891 183.538 226.348 183.538 225.646V223.41C182.195 225.39 180.245 227.082 177.208 227.082C173.243 227.082 169.311 223.954 169.311 218.524V218.46C169.311 213.064 173.243 209.871 177.208 209.871C180.277 209.871 182.259 211.532 183.538 213.384V204.507C183.538 203.805 184.049 203.262 184.752 203.262C185.455 203.262 185.999 203.805 185.999 204.507V225.646H186ZM171.838 218.429V218.493C171.838 222.389 174.555 224.879 177.656 224.879C180.725 224.879 183.634 222.293 183.634 218.493V218.429C183.634 214.629 180.726 212.075 177.656 212.075C174.459 212.075 171.838 214.438 171.838 218.429Z" fill="white"/>
</g>
<defs>
<clipPath id="clip0_681_249">
<rect width="186" height="232" fill="white"/>
</clipPath>
</defs>
</svg>
