<svg
                width="180"
                height="184"
                viewBox="0 0 180 184"
                fill="none"
                xmlns="http://www.w3.org/2000/svg"
              >
                <rect width="180" height="184" rx="16" fill="#D7FFC5" />
                <path
                  d="M23.18 160.544V157.964H20.636V157.148H23.18V154.628H24.02V157.148H26.564V157.964H24.02V160.544H23.18ZM28.6833 161V160.052H30.6633V153.488H31.2273L28.8633 154.952V153.86L30.9753 152.54H31.7793V160.052H33.6393V161H28.6833ZM35.6746 162.428L35.1826 162.044C35.4066 161.812 35.5586 161.592 35.6386 161.384C35.7186 161.184 35.7586 160.976 35.7586 160.76L35.9986 161H35.1226V159.668H36.4546V160.592C36.4546 160.936 36.3986 161.252 36.2866 161.54C36.1746 161.836 35.9706 162.132 35.6746 162.428ZM38.2114 161V160.172L41.1634 157.076C41.5474 156.684 41.8314 156.308 42.0154 155.948C42.2074 155.588 42.3034 155.216 42.3034 154.832C42.3034 154.36 42.1554 154.004 41.8594 153.764C41.5714 153.516 41.1474 153.392 40.5874 153.392C40.1554 153.392 39.7474 153.472 39.3634 153.632C38.9874 153.784 38.6274 154.02 38.2834 154.34L37.8874 153.488C38.2154 153.168 38.6274 152.912 39.1234 152.72C39.6274 152.528 40.1554 152.432 40.7074 152.432C41.5714 152.432 42.2394 152.632 42.7114 153.032C43.1834 153.424 43.4194 153.988 43.4194 154.724C43.4194 155.26 43.2874 155.772 43.0234 156.26C42.7674 156.74 42.3874 157.236 41.8834 157.748L39.3034 160.364V160.052H43.7674V161H38.2114ZM47.9987 161H47.0387L52.0547 152.54H53.0267L47.9987 161ZM47.0747 157.604C46.4187 157.604 45.9027 157.376 45.5267 156.92C45.1587 156.456 44.9747 155.82 44.9747 155.012C44.9747 154.196 45.1627 153.564 45.5387 153.116C45.9147 152.66 46.4267 152.432 47.0747 152.432C47.7387 152.432 48.2547 152.664 48.6227 153.128C48.9987 153.584 49.1867 154.212 49.1867 155.012C49.1867 155.82 48.9987 156.456 48.6227 156.92C48.2547 157.376 47.7387 157.604 47.0747 157.604ZM47.0747 156.86C47.4427 156.86 47.7307 156.708 47.9387 156.404C48.1467 156.1 48.2507 155.636 48.2507 155.012C48.2507 154.396 48.1467 153.94 47.9387 153.644C47.7307 153.34 47.4427 153.188 47.0747 153.188C46.7147 153.188 46.4307 153.336 46.2227 153.632C46.0147 153.928 45.9107 154.388 45.9107 155.012C45.9107 155.644 46.0147 156.112 46.2227 156.416C46.4307 156.712 46.7147 156.86 47.0747 156.86ZM52.9787 161.108C52.3227 161.108 51.8067 160.88 51.4307 160.424C51.0627 159.96 50.8787 159.324 50.8787 158.516C50.8787 157.7 51.0667 157.068 51.4427 156.62C51.8187 156.164 52.3307 155.936 52.9787 155.936C53.6347 155.936 54.1507 156.164 54.5267 156.62C54.9027 157.076 55.0907 157.708 55.0907 158.516C55.0907 159.324 54.9027 159.96 54.5267 160.424C54.1507 160.88 53.6347 161.108 52.9787 161.108ZM52.9787 160.352C53.3467 160.352 53.6347 160.204 53.8427 159.908C54.0507 159.604 54.1547 159.14 54.1547 158.516C54.1547 157.892 54.0507 157.432 53.8427 157.136C53.6347 156.84 53.3467 156.692 52.9787 156.692C52.6187 156.692 52.3347 156.84 52.1267 157.136C51.9187 157.432 51.8147 157.892 51.8147 158.516C51.8147 159.14 51.9187 159.604 52.1267 159.908C52.3347 160.204 52.6187 160.352 52.9787 160.352ZM60.0839 161V155.804H58.9079V154.964H60.3839L60.0839 155.24V154.268C60.0839 153.564 60.2599 153.032 60.6119 152.672C60.9639 152.304 61.4759 152.12 62.1479 152.12C62.3079 152.12 62.4759 152.132 62.6519 152.156C62.8359 152.18 62.9879 152.22 63.1079 152.276V153.164C63.0119 153.124 62.8919 153.092 62.7479 153.068C62.6039 153.044 62.4639 153.032 62.3279 153.032C62.0879 153.032 61.8799 153.08 61.7039 153.176C61.5279 153.272 61.3959 153.416 61.3079 153.608C61.2199 153.792 61.1759 154.036 61.1759 154.34V155.192L61.0079 154.964H62.8439V155.804H61.1759V161H60.0839ZM63.8727 161V156.44C63.8727 156.2 63.8647 155.956 63.8487 155.708C63.8407 155.452 63.8207 155.204 63.7887 154.964H64.8447L64.9767 156.476L64.7967 156.488C64.8767 156.12 65.0127 155.816 65.2047 155.576C65.4047 155.328 65.6407 155.148 65.9127 155.036C66.1927 154.916 66.4807 154.856 66.7767 154.856C66.9047 154.856 67.0127 154.86 67.1007 154.868C67.1887 154.876 67.2767 154.896 67.3647 154.928L67.3407 155.9C67.2207 155.852 67.1087 155.824 67.0047 155.816C66.9087 155.8 66.7887 155.792 66.6447 155.792C66.2927 155.792 65.9887 155.872 65.7327 156.032C65.4847 156.192 65.2927 156.404 65.1567 156.668C65.0287 156.932 64.9647 157.216 64.9647 157.52V161H63.8727ZM70.788 161.108C70.196 161.108 69.684 160.984 69.252 160.736C68.82 160.48 68.484 160.12 68.244 159.656C68.004 159.184 67.884 158.624 67.884 157.976C67.884 157.336 68.004 156.784 68.244 156.32C68.484 155.848 68.82 155.488 69.252 155.24C69.684 154.984 70.196 154.856 70.788 154.856C71.38 154.856 71.892 154.984 72.324 155.24C72.764 155.488 73.1 155.848 73.332 156.32C73.572 156.784 73.692 157.336 73.692 157.976C73.692 158.624 73.572 159.184 73.332 159.656C73.1 160.12 72.764 160.48 72.324 160.736C71.892 160.984 71.38 161.108 70.788 161.108ZM70.788 160.244C71.332 160.244 71.768 160.052 72.096 159.668C72.424 159.284 72.588 158.72 72.588 157.976C72.588 157.232 72.424 156.672 72.096 156.296C71.768 155.92 71.332 155.732 70.788 155.732C70.236 155.732 69.796 155.92 69.468 156.296C69.148 156.672 68.988 157.232 68.988 157.976C68.988 158.72 69.148 159.284 69.468 159.668C69.796 160.052 70.236 160.244 70.788 160.244ZM75.1581 161V156.392C75.1581 156.16 75.1501 155.924 75.1341 155.684C75.1181 155.444 75.0941 155.204 75.0621 154.964H76.1181L76.2381 156.26H76.0941C76.2541 155.812 76.5101 155.468 76.8621 155.228C77.2141 154.98 77.6341 154.856 78.1221 154.856C78.6181 154.856 79.0261 154.976 79.3461 155.216C79.6661 155.448 79.8821 155.816 79.9941 156.32H79.8141C79.9661 155.872 80.2341 155.516 80.6181 155.252C81.0021 154.988 81.4501 154.856 81.9621 154.856C82.6261 154.856 83.1261 155.052 83.4621 155.444C83.7981 155.828 83.9661 156.428 83.9661 157.244V161H82.8741V157.304C82.8741 156.752 82.7781 156.356 82.5861 156.116C82.3941 155.868 82.0901 155.744 81.6741 155.744C81.1861 155.744 80.8021 155.912 80.5221 156.248C80.2421 156.576 80.1021 157.024 80.1021 157.592V161H79.0101V157.304C79.0101 156.752 78.9141 156.356 78.7221 156.116C78.5381 155.868 78.2341 155.744 77.8101 155.744C77.3221 155.744 76.9381 155.912 76.6581 156.248C76.3861 156.576 76.2501 157.024 76.2501 157.592V161H75.1581ZM88.7119 163.724L88.4599 162.836C88.8359 162.748 89.1479 162.644 89.3959 162.524C89.6439 162.412 89.8519 162.264 90.0199 162.08C90.1879 161.896 90.3359 161.664 90.4639 161.384L90.7639 160.664L90.7399 161.12L88.1119 154.964H89.2879L91.3879 160.136H91.0759L93.1759 154.964H94.3039L91.5319 161.468C91.3639 161.86 91.1799 162.188 90.9799 162.452C90.7879 162.716 90.5759 162.932 90.3439 163.1C90.1199 163.268 89.8719 163.4 89.5999 163.496C89.3279 163.592 89.0319 163.668 88.7119 163.724ZM97.9803 161.108C97.0203 161.108 96.2603 160.832 95.7003 160.28C95.1483 159.728 94.8723 158.968 94.8723 158C94.8723 157.36 94.9923 156.808 95.2323 156.344C95.4803 155.872 95.8203 155.508 96.2523 155.252C96.6843 154.988 97.1883 154.856 97.7643 154.856C98.3163 154.856 98.7843 154.976 99.1683 155.216C99.5523 155.448 99.8443 155.78 100.044 156.212C100.244 156.644 100.344 157.156 100.344 157.748V158.108H95.7243V157.46H99.6003L99.3963 157.616C99.3963 156.992 99.2563 156.508 98.9763 156.164C98.7043 155.82 98.3003 155.648 97.7643 155.648C97.1803 155.648 96.7283 155.852 96.4083 156.26C96.0883 156.66 95.9283 157.208 95.9283 157.904V158.012C95.9283 158.748 96.1083 159.304 96.4683 159.68C96.8363 160.056 97.3443 160.244 97.9923 160.244C98.3523 160.244 98.6883 160.192 99.0003 160.088C99.3123 159.984 99.6123 159.812 99.9003 159.572L100.26 160.328C99.9883 160.576 99.6483 160.768 99.2403 160.904C98.8403 161.04 98.4203 161.108 97.9803 161.108ZM103.811 161.108C103.323 161.108 102.867 161.044 102.443 160.916C102.027 160.788 101.683 160.604 101.411 160.364L101.759 159.608C102.055 159.832 102.379 160.004 102.731 160.124C103.091 160.236 103.459 160.292 103.835 160.292C104.291 160.292 104.635 160.208 104.867 160.04C105.107 159.872 105.227 159.648 105.227 159.368C105.227 159.144 105.151 158.964 104.999 158.828C104.847 158.692 104.607 158.592 104.279 158.528L103.139 158.3C102.627 158.18 102.239 157.988 101.975 157.724C101.719 157.452 101.591 157.104 101.591 156.68C101.591 156.328 101.687 156.016 101.879 155.744C102.071 155.464 102.343 155.248 102.695 155.096C103.055 154.936 103.475 154.856 103.955 154.856C104.395 154.856 104.803 154.92 105.179 155.048C105.563 155.176 105.879 155.364 106.127 155.612L105.767 156.344C105.519 156.128 105.239 155.964 104.927 155.852C104.623 155.732 104.311 155.672 103.991 155.672C103.527 155.672 103.183 155.764 102.959 155.948C102.735 156.124 102.623 156.356 102.623 156.644C102.623 156.86 102.691 157.04 102.827 157.184C102.963 157.32 103.183 157.424 103.487 157.496L104.627 157.724C105.163 157.836 105.567 158.02 105.839 158.276C106.111 158.532 106.247 158.872 106.247 159.296C106.247 159.672 106.143 159.996 105.935 160.268C105.735 160.54 105.451 160.748 105.083 160.892C104.723 161.036 104.299 161.108 103.811 161.108ZM109.934 161.108C109.302 161.108 108.822 160.936 108.494 160.592C108.174 160.24 108.014 159.712 108.014 159.008V155.804H106.838V154.964H108.014V153.344L109.106 153.044V154.964H110.81V155.804H109.106V158.912C109.106 159.376 109.186 159.708 109.346 159.908C109.514 160.1 109.754 160.196 110.066 160.196C110.226 160.196 110.362 160.184 110.474 160.16C110.594 160.128 110.702 160.092 110.798 160.052V160.952C110.678 161 110.538 161.036 110.378 161.06C110.226 161.092 110.078 161.108 109.934 161.108ZM114.644 161.108C113.684 161.108 112.924 160.832 112.364 160.28C111.812 159.728 111.536 158.968 111.536 158C111.536 157.36 111.656 156.808 111.896 156.344C112.144 155.872 112.484 155.508 112.916 155.252C113.348 154.988 113.852 154.856 114.428 154.856C114.98 154.856 115.448 154.976 115.832 155.216C116.216 155.448 116.508 155.78 116.708 156.212C116.908 156.644 117.008 157.156 117.008 157.748V158.108H112.388V157.46H116.264L116.06 157.616C116.06 156.992 115.92 156.508 115.64 156.164C115.368 155.82 114.964 155.648 114.428 155.648C113.844 155.648 113.392 155.852 113.072 156.26C112.752 156.66 112.592 157.208 112.592 157.904V158.012C112.592 158.748 112.772 159.304 113.132 159.68C113.5 160.056 114.008 160.244 114.656 160.244C115.016 160.244 115.352 160.192 115.664 160.088C115.976 159.984 116.276 159.812 116.564 159.572L116.924 160.328C116.652 160.576 116.312 160.768 115.904 160.904C115.504 161.04 115.084 161.108 114.644 161.108ZM118.423 161V156.44C118.423 156.2 118.415 155.956 118.399 155.708C118.391 155.452 118.371 155.204 118.339 154.964H119.395L119.527 156.476L119.347 156.488C119.427 156.12 119.563 155.816 119.755 155.576C119.955 155.328 120.191 155.148 120.463 155.036C120.743 154.916 121.031 154.856 121.327 154.856C121.455 154.856 121.563 154.86 121.651 154.868C121.739 154.876 121.827 154.896 121.915 154.928L121.891 155.9C121.771 155.852 121.659 155.824 121.555 155.816C121.459 155.8 121.339 155.792 121.195 155.792C120.843 155.792 120.539 155.872 120.283 156.032C120.035 156.192 119.843 156.404 119.707 156.668C119.579 156.932 119.515 157.216 119.515 157.52V161H118.423ZM125.099 161.108C124.571 161.108 124.107 160.984 123.707 160.736C123.307 160.488 122.995 160.128 122.771 159.656C122.547 159.184 122.435 158.624 122.435 157.976C122.435 157.328 122.547 156.772 122.771 156.308C122.995 155.836 123.307 155.476 123.707 155.228C124.107 154.98 124.571 154.856 125.099 154.856C125.627 154.856 126.087 154.988 126.479 155.252C126.879 155.516 127.147 155.88 127.283 156.344H127.139V152.168H128.231V161H127.151V159.596H127.283C127.155 160.068 126.891 160.44 126.491 160.712C126.099 160.976 125.635 161.108 125.099 161.108ZM125.351 160.244C125.895 160.244 126.331 160.052 126.659 159.668C126.995 159.284 127.163 158.72 127.163 157.976C127.163 157.232 126.995 156.672 126.659 156.296C126.331 155.92 125.895 155.732 125.351 155.732C124.807 155.732 124.367 155.92 124.031 156.296C123.703 156.672 123.539 157.232 123.539 157.976C123.539 158.72 123.703 159.284 124.031 159.668C124.367 160.052 124.807 160.244 125.351 160.244ZM132.364 161.108C131.836 161.108 131.372 160.984 130.972 160.736C130.572 160.488 130.26 160.128 130.036 159.656C129.812 159.184 129.7 158.624 129.7 157.976C129.7 157.328 129.812 156.772 130.036 156.308C130.26 155.836 130.572 155.476 130.972 155.228C131.372 154.98 131.836 154.856 132.364 154.856C132.9 154.856 133.364 154.992 133.756 155.264C134.156 155.528 134.42 155.892 134.548 156.356H134.404L134.536 154.964H135.592C135.568 155.204 135.544 155.444 135.52 155.684C135.504 155.924 135.496 156.16 135.496 156.392V161H134.404V159.62H134.536C134.408 160.076 134.144 160.44 133.744 160.712C133.352 160.976 132.892 161.108 132.364 161.108ZM132.616 160.244C133.16 160.244 133.596 160.052 133.924 159.668C134.252 159.284 134.416 158.72 134.416 157.976C134.416 157.232 134.252 156.672 133.924 156.296C133.596 155.92 133.16 155.732 132.616 155.732C132.072 155.732 131.632 155.92 131.296 156.296C130.968 156.672 130.804 157.232 130.804 157.976C130.804 158.72 130.968 159.284 131.296 159.668C131.624 160.052 132.064 160.244 132.616 160.244ZM137.063 163.724L136.811 162.836C137.187 162.748 137.499 162.644 137.747 162.524C137.995 162.412 138.203 162.264 138.371 162.08C138.539 161.896 138.687 161.664 138.815 161.384L139.115 160.664L139.091 161.12L136.463 154.964H137.639L139.739 160.136H139.427L141.527 154.964H142.655L139.883 161.468C139.715 161.86 139.531 162.188 139.331 162.452C139.139 162.716 138.927 162.932 138.695 163.1C138.471 163.268 138.223 163.4 137.951 163.496C137.679 163.592 137.383 163.668 137.063 163.724Z"
                  fill="#2D8E00"
                />
                <path
                  d="M24.08 134V123.984H20.176V122.72H29.504V123.984H25.584V134H24.08ZM33.0924 134.144C32.303 134.144 31.6204 133.979 31.0444 133.648C30.4684 133.307 30.0204 132.827 29.7004 132.208C29.3804 131.579 29.2204 130.832 29.2204 129.968C29.2204 129.115 29.3804 128.379 29.7004 127.76C30.0204 127.131 30.4684 126.651 31.0444 126.32C31.6204 125.979 32.303 125.808 33.0924 125.808C33.8817 125.808 34.5644 125.979 35.1404 126.32C35.727 126.651 36.175 127.131 36.4844 127.76C36.8044 128.379 36.9644 129.115 36.9644 129.968C36.9644 130.832 36.8044 131.579 36.4844 132.208C36.175 132.827 35.727 133.307 35.1404 133.648C34.5644 133.979 33.8817 134.144 33.0924 134.144ZM33.0924 132.992C33.8177 132.992 34.399 132.736 34.8364 132.224C35.2737 131.712 35.4924 130.96 35.4924 129.968C35.4924 128.976 35.2737 128.229 34.8364 127.728C34.399 127.227 33.8177 126.976 33.0924 126.976C32.3564 126.976 31.7697 127.227 31.3324 127.728C30.9057 128.229 30.6924 128.976 30.6924 129.968C30.6924 130.96 30.9057 131.712 31.3324 132.224C31.7697 132.736 32.3564 132.992 33.0924 132.992ZM41.849 134.144C41.0063 134.144 40.3663 133.915 39.929 133.456C39.5023 132.987 39.289 132.283 39.289 131.344V127.072H37.721V125.952H39.289V123.792L40.745 123.392V125.952H43.017V127.072H40.745V131.216C40.745 131.835 40.8517 132.277 41.065 132.544C41.289 132.8 41.609 132.928 42.025 132.928C42.2383 132.928 42.4197 132.912 42.569 132.88C42.729 132.837 42.873 132.789 43.001 132.736V133.936C42.841 134 42.6543 134.048 42.441 134.08C42.2383 134.123 42.041 134.144 41.849 134.144ZM47.6161 134.144C46.9121 134.144 46.2935 133.979 45.7601 133.648C45.2268 133.317 44.8108 132.837 44.5121 132.208C44.2135 131.579 44.0641 130.832 44.0641 129.968C44.0641 129.104 44.2135 128.363 44.5121 127.744C44.8108 127.115 45.2268 126.635 45.7601 126.304C46.2935 125.973 46.9121 125.808 47.6161 125.808C48.3308 125.808 48.9495 125.989 49.4721 126.352C50.0055 126.704 50.3575 127.189 50.5281 127.808H50.3361L50.5121 125.952H51.9201C51.8881 126.272 51.8561 126.592 51.8241 126.912C51.8028 127.232 51.7921 127.547 51.7921 127.856V134H50.3361V132.16H50.5121C50.3415 132.768 49.9895 133.253 49.4561 133.616C48.9335 133.968 48.3201 134.144 47.6161 134.144ZM47.9521 132.992C48.6775 132.992 49.2588 132.736 49.6961 132.224C50.1335 131.712 50.3521 130.96 50.3521 129.968C50.3521 128.976 50.1335 128.229 49.6961 127.728C49.2588 127.227 48.6775 126.976 47.9521 126.976C47.2268 126.976 46.6401 127.227 46.1921 127.728C45.7548 128.229 45.5361 128.976 45.5361 129.968C45.5361 130.96 45.7548 131.712 46.1921 132.224C46.6295 132.736 47.2161 132.992 47.9521 132.992ZM54.2316 134V122.224H55.6876V134H54.2316ZM62.085 128.352C62.085 127.168 62.293 126.144 62.709 125.28C63.125 124.416 63.7223 123.749 64.501 123.28C65.2903 122.811 66.229 122.576 67.317 122.576C68.3943 122.576 69.3223 122.811 70.101 123.28C70.8903 123.749 71.4983 124.416 71.925 125.28C72.3517 126.144 72.565 127.163 72.565 128.336C72.565 129.52 72.3517 130.549 71.925 131.424C71.4983 132.288 70.8903 132.96 70.101 133.44C69.3223 133.909 68.3943 134.144 67.317 134.144C66.229 134.144 65.2957 133.909 64.517 133.44C63.7383 132.96 63.1357 132.288 62.709 131.424C62.293 130.549 62.085 129.525 62.085 128.352ZM63.653 128.352C63.653 129.76 63.9623 130.859 64.581 131.648C65.1997 132.437 66.1117 132.832 67.317 132.832C68.4797 132.832 69.381 132.443 70.021 131.664C70.6717 130.875 70.997 129.771 70.997 128.352C70.997 126.933 70.677 125.835 70.037 125.056C69.397 124.277 68.4903 123.888 67.317 123.888C66.1117 123.888 65.1997 124.277 64.581 125.056C63.9623 125.835 63.653 126.933 63.653 128.352ZM74.7469 134V127.92C74.7469 127.6 74.7362 127.275 74.7149 126.944C74.7042 126.603 74.6775 126.272 74.6349 125.952H76.0429L76.2189 127.968L75.9789 127.984C76.0855 127.493 76.2669 127.088 76.5229 126.768C76.7895 126.437 77.1042 126.197 77.4669 126.048C77.8402 125.888 78.2242 125.808 78.6189 125.808C78.7895 125.808 78.9335 125.813 79.0509 125.824C79.1682 125.835 79.2855 125.861 79.4029 125.904L79.3709 127.2C79.2109 127.136 79.0615 127.099 78.9229 127.088C78.7949 127.067 78.6349 127.056 78.4429 127.056C77.9735 127.056 77.5682 127.163 77.2269 127.376C76.8962 127.589 76.6402 127.872 76.4589 128.224C76.2882 128.576 76.2029 128.955 76.2029 129.36V134H74.7469ZM84.1594 137.584C83.4554 137.584 82.81 137.499 82.2234 137.328C81.6367 137.157 81.1087 136.896 80.6394 136.544L81.0234 135.472C81.354 135.696 81.6794 135.877 81.9994 136.016C82.3194 136.155 82.65 136.256 82.9914 136.32C83.3434 136.384 83.706 136.416 84.0794 136.416C84.8687 136.416 85.4607 136.213 85.8554 135.808C86.25 135.403 86.4474 134.827 86.4474 134.08V131.824H86.6074C86.4367 132.432 86.0847 132.917 85.5514 133.28C85.0287 133.632 84.41 133.808 83.6954 133.808C82.97 133.808 82.3354 133.648 81.7914 133.328C81.258 132.997 80.842 132.533 80.5434 131.936C80.2447 131.328 80.0954 130.619 80.0954 129.808C80.0954 128.987 80.2447 128.277 80.5434 127.68C80.842 127.083 81.258 126.624 81.7914 126.304C82.3354 125.973 82.97 125.808 83.6954 125.808C84.41 125.808 85.0287 125.984 85.5514 126.336C86.074 126.688 86.4207 127.173 86.5914 127.792L86.4474 127.648L86.5914 125.952H87.9994C87.9674 126.272 87.9354 126.592 87.9034 126.912C87.882 127.232 87.8714 127.547 87.8714 127.856V133.904C87.8714 135.099 87.5567 136.011 86.9274 136.64C86.3087 137.269 85.386 137.584 84.1594 137.584ZM84.0154 132.656C84.7514 132.656 85.338 132.405 85.7754 131.904C86.2127 131.403 86.4314 130.704 86.4314 129.808C86.4314 128.901 86.2127 128.203 85.7754 127.712C85.338 127.221 84.7514 126.976 84.0154 126.976C83.2687 126.976 82.6714 127.221 82.2234 127.712C81.786 128.203 81.5674 128.901 81.5674 129.808C81.5674 130.704 81.786 131.403 82.2234 131.904C82.6714 132.405 83.2687 132.656 84.0154 132.656ZM93.3818 134.144C92.6778 134.144 92.0591 133.979 91.5258 133.648C90.9924 133.317 90.5764 132.837 90.2778 132.208C89.9791 131.579 89.8298 130.832 89.8298 129.968C89.8298 129.104 89.9791 128.363 90.2778 127.744C90.5764 127.115 90.9924 126.635 91.5258 126.304C92.0591 125.973 92.6778 125.808 93.3818 125.808C94.0964 125.808 94.7151 125.989 95.2378 126.352C95.7711 126.704 96.1231 127.189 96.2938 127.808H96.1018L96.2778 125.952H97.6858C97.6538 126.272 97.6218 126.592 97.5898 126.912C97.5684 127.232 97.5578 127.547 97.5578 127.856V134H96.1018V132.16H96.2778C96.1071 132.768 95.7551 133.253 95.2218 133.616C94.6991 133.968 94.0858 134.144 93.3818 134.144ZM93.7178 132.992C94.4431 132.992 95.0244 132.736 95.4618 132.224C95.8991 131.712 96.1178 130.96 96.1178 129.968C96.1178 128.976 95.8991 128.229 95.4618 127.728C95.0244 127.227 94.4431 126.976 93.7178 126.976C92.9924 126.976 92.4058 127.227 91.9578 127.728C91.5204 128.229 91.3018 128.976 91.3018 129.968C91.3018 130.96 91.5204 131.712 91.9578 132.224C92.3951 132.736 92.9818 132.992 93.7178 132.992ZM99.9973 134V127.856C99.9973 127.547 99.9866 127.232 99.9653 126.912C99.9439 126.592 99.9119 126.272 99.8693 125.952H101.277L101.437 127.68H101.245C101.491 127.072 101.869 126.608 102.381 126.288C102.893 125.968 103.491 125.808 104.173 125.808C105.123 125.808 105.837 126.069 106.317 126.592C106.797 127.104 107.037 127.904 107.037 128.992V134H105.581V129.072C105.581 128.336 105.437 127.808 105.149 127.488C104.861 127.157 104.413 126.992 103.805 126.992C103.08 126.992 102.504 127.211 102.077 127.648C101.661 128.085 101.453 128.677 101.453 129.424V134H99.9973ZM109.419 134V125.952H110.875V134H109.419ZM109.291 124.192V122.624H111.019V124.192H109.291ZM112.878 134V133.024L118.222 126.704V127.072H112.878V125.952H119.566V126.928L114.19 133.28L114.174 132.88H119.742V134H112.878ZM125.13 134.144C123.85 134.144 122.837 133.776 122.09 133.04C121.354 132.304 120.986 131.291 120.986 130C120.986 129.147 121.146 128.411 121.466 127.792C121.797 127.163 122.25 126.677 122.826 126.336C123.402 125.984 124.074 125.808 124.842 125.808C125.578 125.808 126.202 125.968 126.714 126.288C127.226 126.597 127.615 127.04 127.882 127.616C128.149 128.192 128.282 128.875 128.282 129.664V130.144H122.122V129.28H127.29L127.018 129.488C127.018 128.656 126.831 128.011 126.458 127.552C126.095 127.093 125.557 126.864 124.842 126.864C124.063 126.864 123.461 127.136 123.034 127.68C122.607 128.213 122.394 128.944 122.394 129.872V130.016C122.394 130.997 122.634 131.739 123.114 132.24C123.605 132.741 124.282 132.992 125.146 132.992C125.626 132.992 126.074 132.923 126.49 132.784C126.906 132.645 127.306 132.416 127.69 132.096L128.17 133.104C127.807 133.435 127.354 133.691 126.81 133.872C126.277 134.053 125.717 134.144 125.13 134.144ZM130.169 134V127.92C130.169 127.6 130.158 127.275 130.137 126.944C130.126 126.603 130.099 126.272 130.057 125.952H131.465L131.641 127.968L131.401 127.984C131.507 127.493 131.689 127.088 131.945 126.768C132.211 126.437 132.526 126.197 132.889 126.048C133.262 125.888 133.646 125.808 134.041 125.808C134.211 125.808 134.355 125.813 134.473 125.824C134.59 125.835 134.707 125.861 134.825 125.904L134.793 127.2C134.633 127.136 134.483 127.099 134.345 127.088C134.217 127.067 134.057 127.056 133.865 127.056C133.395 127.056 132.99 127.163 132.649 127.376C132.318 127.589 132.062 127.872 131.881 128.224C131.71 128.576 131.625 128.955 131.625 129.36V134H130.169ZM138.749 134.144C138.098 134.144 137.49 134.059 136.924 133.888C136.37 133.717 135.911 133.472 135.549 133.152L136.013 132.144C136.407 132.443 136.839 132.672 137.309 132.832C137.789 132.981 138.279 133.056 138.781 133.056C139.389 133.056 139.847 132.944 140.157 132.72C140.477 132.496 140.637 132.197 140.637 131.824C140.637 131.525 140.535 131.285 140.333 131.104C140.13 130.923 139.81 130.789 139.373 130.704L137.853 130.4C137.17 130.24 136.653 129.984 136.301 129.632C135.959 129.269 135.789 128.805 135.789 128.24C135.789 127.771 135.917 127.355 136.173 126.992C136.429 126.619 136.791 126.331 137.261 126.128C137.741 125.915 138.301 125.808 138.941 125.808C139.527 125.808 140.071 125.893 140.573 126.064C141.085 126.235 141.506 126.485 141.837 126.816L141.357 127.792C141.026 127.504 140.653 127.285 140.237 127.136C139.831 126.976 139.415 126.896 138.989 126.896C138.37 126.896 137.911 127.019 137.613 127.264C137.314 127.499 137.164 127.808 137.164 128.192C137.164 128.48 137.255 128.72 137.437 128.912C137.618 129.093 137.911 129.232 138.317 129.328L139.837 129.632C140.551 129.781 141.09 130.027 141.453 130.368C141.815 130.709 141.997 131.163 141.997 131.728C141.997 132.229 141.858 132.661 141.581 133.024C141.314 133.387 140.935 133.664 140.445 133.856C139.965 134.048 139.399 134.144 138.749 134.144Z"
                  fill="#425166"
                />
                <path
                  d="M27.032 101.216C25.88 101.216 24.776 101.048 23.72 100.712C22.664 100.36 21.784 99.864 21.08 99.224L21.944 97.328C22.728 97.936 23.528 98.384 24.344 98.672C25.16 98.96 26.032 99.104 26.96 99.104C28.144 99.104 29.04 98.856 29.648 98.36C30.272 97.864 30.584 97.152 30.584 96.224C30.584 95.312 30.272 94.624 29.648 94.16C29.04 93.68 28.136 93.44 26.936 93.44H24.32V91.424H26.744C27.768 91.424 28.584 91.168 29.192 90.656C29.8 90.128 30.104 89.416 30.104 88.52C30.104 87.704 29.824 87.08 29.264 86.648C28.704 86.2 27.904 85.976 26.864 85.976C25.104 85.976 23.56 86.592 22.232 87.824L21.392 85.928C22.048 85.272 22.88 84.768 23.888 84.416C24.896 84.048 25.952 83.864 27.056 83.864C28.752 83.864 30.088 84.256 31.064 85.04C32.04 85.808 32.528 86.88 32.528 88.256C32.528 89.296 32.232 90.184 31.64 90.92C31.064 91.656 30.272 92.144 29.264 92.384V92.12C30.464 92.312 31.384 92.792 32.024 93.56C32.68 94.312 33.008 95.256 33.008 96.392C33.008 97.896 32.472 99.08 31.4 99.944C30.344 100.792 28.888 101.216 27.032 101.216ZM43.3186 101V97.496H35.4946V95.72L43.7266 84.08H45.7426V95.552H48.2626V97.496H45.7426V101H43.3186ZM43.3186 95.552V87.032H43.8706L37.4386 96.152V95.552H43.3186ZM55.9813 101.216C54.0293 101.216 52.5253 100.472 51.4693 98.984C50.4293 97.48 49.9093 95.328 49.9093 92.528C49.9093 89.68 50.4293 87.528 51.4693 86.072C52.5253 84.6 54.0293 83.864 55.9813 83.864C57.9493 83.864 59.4533 84.6 60.4933 86.072C61.5333 87.528 62.0533 89.672 62.0533 92.504C62.0533 95.32 61.5253 97.48 60.4693 98.984C59.4293 100.472 57.9333 101.216 55.9813 101.216ZM55.9813 99.128C57.2133 99.128 58.1253 98.592 58.7173 97.52C59.3253 96.448 59.6293 94.776 59.6293 92.504C59.6293 90.216 59.3253 88.552 58.7173 87.512C58.1253 86.456 57.2133 85.928 55.9813 85.928C54.7653 85.928 53.8533 86.456 53.2453 87.512C52.6373 88.552 52.3333 90.208 52.3333 92.48C52.3333 94.768 52.6373 96.448 53.2453 97.52C53.8693 98.592 54.7813 99.128 55.9813 99.128Z"
                  fill="#2D8E00"
                />
                <circle cx="40" cy="40" r="20" fill="#2D8E00" />
                <path
                  fillRule="evenodd"
                  clipRule="evenodd"
                  d="M40 40C42.2091 40 44 38.2091 44 36C44 33.7909 42.2091 32 40 32C37.7909 32 36 33.7909 36 36C36 38.2091 37.7909 40 40 40ZM33 46C33 43.2386 36.134 41 40 41C43.866 41 47 43.2386 47 46C47 47.1046 46.1046 48 45 48H35C33.8954 48 33 47.1046 33 46Z"
                  fill="white"
                />
              </svg>
<svg
                width="180"
                height="184"
                viewBox="0 0 180 184"
                fill="none"
                xmlns="http://www.w3.org/2000/svg"
              >
                <rect width="180" height="184" rx="16" fill="#D7FFC5" />
                <path
                  d="M23.18 160.544V157.964H20.636V157.148H23.18V154.628H24.02V157.148H26.564V157.964H24.02V160.544H23.18ZM28.6833 161V160.052H30.6633V153.488H31.2273L28.8633 154.952V153.86L30.9753 152.54H31.7793V160.052H33.6393V161H28.6833ZM35.6746 162.428L35.1826 162.044C35.4066 161.812 35.5586 161.592 35.6386 161.384C35.7186 161.184 35.7586 160.976 35.7586 160.76L35.9986 161H35.1226V159.668H36.4546V160.592C36.4546 160.936 36.3986 161.252 36.2866 161.54C36.1746 161.836 35.9706 162.132 35.6746 162.428ZM38.2114 161V160.172L41.1634 157.076C41.5474 156.684 41.8314 156.308 42.0154 155.948C42.2074 155.588 42.3034 155.216 42.3034 154.832C42.3034 154.36 42.1554 154.004 41.8594 153.764C41.5714 153.516 41.1474 153.392 40.5874 153.392C40.1554 153.392 39.7474 153.472 39.3634 153.632C38.9874 153.784 38.6274 154.02 38.2834 154.34L37.8874 153.488C38.2154 153.168 38.6274 152.912 39.1234 152.72C39.6274 152.528 40.1554 152.432 40.7074 152.432C41.5714 152.432 42.2394 152.632 42.7114 153.032C43.1834 153.424 43.4194 153.988 43.4194 154.724C43.4194 155.26 43.2874 155.772 43.0234 156.26C42.7674 156.74 42.3874 157.236 41.8834 157.748L39.3034 160.364V160.052H43.7674V161H38.2114ZM47.9987 161H47.0387L52.0547 152.54H53.0267L47.9987 161ZM47.0747 157.604C46.4187 157.604 45.9027 157.376 45.5267 156.92C45.1587 156.456 44.9747 155.82 44.9747 155.012C44.9747 154.196 45.1627 153.564 45.5387 153.116C45.9147 152.66 46.4267 152.432 47.0747 152.432C47.7387 152.432 48.2547 152.664 48.6227 153.128C48.9987 153.584 49.1867 154.212 49.1867 155.012C49.1867 155.82 48.9987 156.456 48.6227 156.92C48.2547 157.376 47.7387 157.604 47.0747 157.604ZM47.0747 156.86C47.4427 156.86 47.7307 156.708 47.9387 156.404C48.1467 156.1 48.2507 155.636 48.2507 155.012C48.2507 154.396 48.1467 153.94 47.9387 153.644C47.7307 153.34 47.4427 153.188 47.0747 153.188C46.7147 153.188 46.4307 153.336 46.2227 153.632C46.0147 153.928 45.9107 154.388 45.9107 155.012C45.9107 155.644 46.0147 156.112 46.2227 156.416C46.4307 156.712 46.7147 156.86 47.0747 156.86ZM52.9787 161.108C52.3227 161.108 51.8067 160.88 51.4307 160.424C51.0627 159.96 50.8787 159.324 50.8787 158.516C50.8787 157.7 51.0667 157.068 51.4427 156.62C51.8187 156.164 52.3307 155.936 52.9787 155.936C53.6347 155.936 54.1507 156.164 54.5267 156.62C54.9027 157.076 55.0907 157.708 55.0907 158.516C55.0907 159.324 54.9027 159.96 54.5267 160.424C54.1507 160.88 53.6347 161.108 52.9787 161.108ZM52.9787 160.352C53.3467 160.352 53.6347 160.204 53.8427 159.908C54.0507 159.604 54.1547 159.14 54.1547 158.516C54.1547 157.892 54.0507 157.432 53.8427 157.136C53.6347 156.84 53.3467 156.692 52.9787 156.692C52.6187 156.692 52.3347 156.84 52.1267 157.136C51.9187 157.432 51.8147 157.892 51.8147 158.516C51.8147 159.14 51.9187 159.604 52.1267 159.908C52.3347 160.204 52.6187 160.352 52.9787 160.352ZM60.0839 161V155.804H58.9079V154.964H60.3839L60.0839 155.24V154.268C60.0839 153.564 60.2599 153.032 60.6119 152.672C60.9639 152.304 61.4759 152.12 62.1479 152.12C62.3079 152.12 62.4759 152.132 62.6519 152.156C62.8359 152.18 62.9879 152.22 63.1079 152.276V153.164C63.0119 153.124 62.8919 153.092 62.7479 153.068C62.6039 153.044 62.4639 153.032 62.3279 153.032C62.0879 153.032 61.8799 153.08 61.7039 153.176C61.5279 153.272 61.3959 153.416 61.3079 153.608C61.2199 153.792 61.1759 154.036 61.1759 154.34V155.192L61.0079 154.964H62.8439V155.804H61.1759V161H60.0839ZM63.8727 161V156.44C63.8727 156.2 63.8647 155.956 63.8487 155.708C63.8407 155.452 63.8207 155.204 63.7887 154.964H64.8447L64.9767 156.476L64.7967 156.488C64.8767 156.12 65.0127 155.816 65.2047 155.576C65.4047 155.328 65.6407 155.148 65.9127 155.036C66.1927 154.916 66.4807 154.856 66.7767 154.856C66.9047 154.856 67.0127 154.86 67.1007 154.868C67.1887 154.876 67.2767 154.896 67.3647 154.928L67.3407 155.9C67.2207 155.852 67.1087 155.824 67.0047 155.816C66.9087 155.8 66.7887 155.792 66.6447 155.792C66.2927 155.792 65.9887 155.872 65.7327 156.032C65.4847 156.192 65.2927 156.404 65.1567 156.668C65.0287 156.932 64.9647 157.216 64.9647 157.52V161H63.8727ZM70.788 161.108C70.196 161.108 69.684 160.984 69.252 160.736C68.82 160.48 68.484 160.12 68.244 159.656C68.004 159.184 67.884 158.624 67.884 157.976C67.884 157.336 68.004 156.784 68.244 156.32C68.484 155.848 68.82 155.488 69.252 155.24C69.684 154.984 70.196 154.856 70.788 154.856C71.38 154.856 71.892 154.984 72.324 155.24C72.764 155.488 73.1 155.848 73.332 156.32C73.572 156.784 73.692 157.336 73.692 157.976C73.692 158.624 73.572 159.184 73.332 159.656C73.1 160.12 72.764 160.48 72.324 160.736C71.892 160.984 71.38 161.108 70.788 161.108ZM70.788 160.244C71.332 160.244 71.768 160.052 72.096 159.668C72.424 159.284 72.588 158.72 72.588 157.976C72.588 157.232 72.424 156.672 72.096 156.296C71.768 155.92 71.332 155.732 70.788 155.732C70.236 155.732 69.796 155.92 69.468 156.296C69.148 156.672 68.988 157.232 68.988 157.976C68.988 158.72 69.148 159.284 69.468 159.668C69.796 160.052 70.236 160.244 70.788 160.244ZM75.1581 161V156.392C75.1581 156.16 75.1501 155.924 75.1341 155.684C75.1181 155.444 75.0941 155.204 75.0621 154.964H76.1181L76.2381 156.26H76.0941C76.2541 155.812 76.5101 155.468 76.8621 155.228C77.2141 154.98 77.6341 154.856 78.1221 154.856C78.6181 154.856 79.0261 154.976 79.3461 155.216C79.6661 155.448 79.8821 155.816 79.9941 156.32H79.8141C79.9661 155.872 80.2341 155.516 80.6181 155.252C81.0021 154.988 81.4501 154.856 81.9621 154.856C82.6261 154.856 83.1261 155.052 83.4621 155.444C83.7981 155.828 83.9661 156.428 83.9661 157.244V161H82.8741V157.304C82.8741 156.752 82.7781 156.356 82.5861 156.116C82.3941 155.868 82.0901 155.744 81.6741 155.744C81.1861 155.744 80.8021 155.912 80.5221 156.248C80.2421 156.576 80.1021 157.024 80.1021 157.592V161H79.0101V157.304C79.0101 156.752 78.9141 156.356 78.7221 156.116C78.5381 155.868 78.2341 155.744 77.8101 155.744C77.3221 155.744 76.9381 155.912 76.6581 156.248C76.3861 156.576 76.2501 157.024 76.2501 157.592V161H75.1581ZM88.7119 163.724L88.4599 162.836C88.8359 162.748 89.1479 162.644 89.3959 162.524C89.6439 162.412 89.8519 162.264 90.0199 162.08C90.1879 161.896 90.3359 161.664 90.4639 161.384L90.7639 160.664L90.7399 161.12L88.1119 154.964H89.2879L91.3879 160.136H91.0759L93.1759 154.964H94.3039L91.5319 161.468C91.3639 161.86 91.1799 162.188 90.9799 162.452C90.7879 162.716 90.5759 162.932 90.3439 163.1C90.1199 163.268 89.8719 163.4 89.5999 163.496C89.3279 163.592 89.0319 163.668 88.7119 163.724ZM97.9803 161.108C97.0203 161.108 96.2603 160.832 95.7003 160.28C95.1483 159.728 94.8723 158.968 94.8723 158C94.8723 157.36 94.9923 156.808 95.2323 156.344C95.4803 155.872 95.8203 155.508 96.2523 155.252C96.6843 154.988 97.1883 154.856 97.7643 154.856C98.3163 154.856 98.7843 154.976 99.1683 155.216C99.5523 155.448 99.8443 155.78 100.044 156.212C100.244 156.644 100.344 157.156 100.344 157.748V158.108H95.7243V157.46H99.6003L99.3963 157.616C99.3963 156.992 99.2563 156.508 98.9763 156.164C98.7043 155.82 98.3003 155.648 97.7643 155.648C97.1803 155.648 96.7283 155.852 96.4083 156.26C96.0883 156.66 95.9283 157.208 95.9283 157.904V158.012C95.9283 158.748 96.1083 159.304 96.4683 159.68C96.8363 160.056 97.3443 160.244 97.9923 160.244C98.3523 160.244 98.6883 160.192 99.0003 160.088C99.3123 159.984 99.6123 159.812 99.9003 159.572L100.26 160.328C99.9883 160.576 99.6483 160.768 99.2403 160.904C98.8403 161.04 98.4203 161.108 97.9803 161.108ZM103.811 161.108C103.323 161.108 102.867 161.044 102.443 160.916C102.027 160.788 101.683 160.604 101.411 160.364L101.759 159.608C102.055 159.832 102.379 160.004 102.731 160.124C103.091 160.236 103.459 160.292 103.835 160.292C104.291 160.292 104.635 160.208 104.867 160.04C105.107 159.872 105.227 159.648 105.227 159.368C105.227 159.144 105.151 158.964 104.999 158.828C104.847 158.692 104.607 158.592 104.279 158.528L103.139 158.3C102.627 158.18 102.239 157.988 101.975 157.724C101.719 157.452 101.591 157.104 101.591 156.68C101.591 156.328 101.687 156.016 101.879 155.744C102.071 155.464 102.343 155.248 102.695 155.096C103.055 154.936 103.475 154.856 103.955 154.856C104.395 154.856 104.803 154.92 105.179 155.048C105.563 155.176 105.879 155.364 106.127 155.612L105.767 156.344C105.519 156.128 105.239 155.964 104.927 155.852C104.623 155.732 104.311 155.672 103.991 155.672C103.527 155.672 103.183 155.764 102.959 155.948C102.735 156.124 102.623 156.356 102.623 156.644C102.623 156.86 102.691 157.04 102.827 157.184C102.963 157.32 103.183 157.424 103.487 157.496L104.627 157.724C105.163 157.836 105.567 158.02 105.839 158.276C106.111 158.532 106.247 158.872 106.247 159.296C106.247 159.672 106.143 159.996 105.935 160.268C105.735 160.54 105.451 160.748 105.083 160.892C104.723 161.036 104.299 161.108 103.811 161.108ZM109.934 161.108C109.302 161.108 108.822 160.936 108.494 160.592C108.174 160.24 108.014 159.712 108.014 159.008V155.804H106.838V154.964H108.014V153.344L109.106 153.044V154.964H110.81V155.804H109.106V158.912C109.106 159.376 109.186 159.708 109.346 159.908C109.514 160.1 109.754 160.196 110.066 160.196C110.226 160.196 110.362 160.184 110.474 160.16C110.594 160.128 110.702 160.092 110.798 160.052V160.952C110.678 161 110.538 161.036 110.378 161.06C110.226 161.092 110.078 161.108 109.934 161.108ZM114.644 161.108C113.684 161.108 112.924 160.832 112.364 160.28C111.812 159.728 111.536 158.968 111.536 158C111.536 157.36 111.656 156.808 111.896 156.344C112.144 155.872 112.484 155.508 112.916 155.252C113.348 154.988 113.852 154.856 114.428 154.856C114.98 154.856 115.448 154.976 115.832 155.216C116.216 155.448 116.508 155.78 116.708 156.212C116.908 156.644 117.008 157.156 117.008 157.748V158.108H112.388V157.46H116.264L116.06 157.616C116.06 156.992 115.92 156.508 115.64 156.164C115.368 155.82 114.964 155.648 114.428 155.648C113.844 155.648 113.392 155.852 113.072 156.26C112.752 156.66 112.592 157.208 112.592 157.904V158.012C112.592 158.748 112.772 159.304 113.132 159.68C113.5 160.056 114.008 160.244 114.656 160.244C115.016 160.244 115.352 160.192 115.664 160.088C115.976 159.984 116.276 159.812 116.564 159.572L116.924 160.328C116.652 160.576 116.312 160.768 115.904 160.904C115.504 161.04 115.084 161.108 114.644 161.108ZM118.423 161V156.44C118.423 156.2 118.415 155.956 118.399 155.708C118.391 155.452 118.371 155.204 118.339 154.964H119.395L119.527 156.476L119.347 156.488C119.427 156.12 119.563 155.816 119.755 155.576C119.955 155.328 120.191 155.148 120.463 155.036C120.743 154.916 121.031 154.856 121.327 154.856C121.455 154.856 121.563 154.86 121.651 154.868C121.739 154.876 121.827 154.896 121.915 154.928L121.891 155.9C121.771 155.852 121.659 155.824 121.555 155.816C121.459 155.8 121.339 155.792 121.195 155.792C120.843 155.792 120.539 155.872 120.283 156.032C120.035 156.192 119.843 156.404 119.707 156.668C119.579 156.932 119.515 157.216 119.515 157.52V161H118.423ZM125.099 161.108C124.571 161.108 124.107 160.984 123.707 160.736C123.307 160.488 122.995 160.128 122.771 159.656C122.547 159.184 122.435 158.624 122.435 157.976C122.435 157.328 122.547 156.772 122.771 156.308C122.995 155.836 123.307 155.476 123.707 155.228C124.107 154.98 124.571 154.856 125.099 154.856C125.627 154.856 126.087 154.988 126.479 155.252C126.879 155.516 127.147 155.88 127.283 156.344H127.139V152.168H128.231V161H127.151V159.596H127.283C127.155 160.068 126.891 160.44 126.491 160.712C126.099 160.976 125.635 161.108 125.099 161.108ZM125.351 160.244C125.895 160.244 126.331 160.052 126.659 159.668C126.995 159.284 127.163 158.72 127.163 157.976C127.163 157.232 126.995 156.672 126.659 156.296C126.331 155.92 125.895 155.732 125.351 155.732C124.807 155.732 124.367 155.92 124.031 156.296C123.703 156.672 123.539 157.232 123.539 157.976C123.539 158.72 123.703 159.284 124.031 159.668C124.367 160.052 124.807 160.244 125.351 160.244ZM132.364 161.108C131.836 161.108 131.372 160.984 130.972 160.736C130.572 160.488 130.26 160.128 130.036 159.656C129.812 159.184 129.7 158.624 129.7 157.976C129.7 157.328 129.812 156.772 130.036 156.308C130.26 155.836 130.572 155.476 130.972 155.228C131.372 154.98 131.836 154.856 132.364 154.856C132.9 154.856 133.364 154.992 133.756 155.264C134.156 155.528 134.42 155.892 134.548 156.356H134.404L134.536 154.964H135.592C135.568 155.204 135.544 155.444 135.52 155.684C135.504 155.924 135.496 156.16 135.496 156.392V161H134.404V159.62H134.536C134.408 160.076 134.144 160.44 133.744 160.712C133.352 160.976 132.892 161.108 132.364 161.108ZM132.616 160.244C133.16 160.244 133.596 160.052 133.924 159.668C134.252 159.284 134.416 158.72 134.416 157.976C134.416 157.232 134.252 156.672 133.924 156.296C133.596 155.92 133.16 155.732 132.616 155.732C132.072 155.732 131.632 155.92 131.296 156.296C130.968 156.672 130.804 157.232 130.804 157.976C130.804 158.72 130.968 159.284 131.296 159.668C131.624 160.052 132.064 160.244 132.616 160.244ZM137.063 163.724L136.811 162.836C137.187 162.748 137.499 162.644 137.747 162.524C137.995 162.412 138.203 162.264 138.371 162.08C138.539 161.896 138.687 161.664 138.815 161.384L139.115 160.664L139.091 161.12L136.463 154.964H137.639L139.739 160.136H139.427L141.527 154.964H142.655L139.883 161.468C139.715 161.86 139.531 162.188 139.331 162.452C139.139 162.716 138.927 162.932 138.695 163.1C138.471 163.268 138.223 163.4 137.951 163.496C137.679 163.592 137.383 163.668 137.063 163.724Z"
                  fill="#2D8E00"
                />
                <path
                  d="M24.08 134V123.984H20.176V122.72H29.504V123.984H25.584V134H24.08ZM33.0924 134.144C32.303 134.144 31.6204 133.979 31.0444 133.648C30.4684 133.307 30.0204 132.827 29.7004 132.208C29.3804 131.579 29.2204 130.832 29.2204 129.968C29.2204 129.115 29.3804 128.379 29.7004 127.76C30.0204 127.131 30.4684 126.651 31.0444 126.32C31.6204 125.979 32.303 125.808 33.0924 125.808C33.8817 125.808 34.5644 125.979 35.1404 126.32C35.727 126.651 36.175 127.131 36.4844 127.76C36.8044 128.379 36.9644 129.115 36.9644 129.968C36.9644 130.832 36.8044 131.579 36.4844 132.208C36.175 132.827 35.727 133.307 35.1404 133.648C34.5644 133.979 33.8817 134.144 33.0924 134.144ZM33.0924 132.992C33.8177 132.992 34.399 132.736 34.8364 132.224C35.2737 131.712 35.4924 130.96 35.4924 129.968C35.4924 128.976 35.2737 128.229 34.8364 127.728C34.399 127.227 33.8177 126.976 33.0924 126.976C32.3564 126.976 31.7697 127.227 31.3324 127.728C30.9057 128.229 30.6924 128.976 30.6924 129.968C30.6924 130.96 30.9057 131.712 31.3324 132.224C31.7697 132.736 32.3564 132.992 33.0924 132.992ZM41.849 134.144C41.0063 134.144 40.3663 133.915 39.929 133.456C39.5023 132.987 39.289 132.283 39.289 131.344V127.072H37.721V125.952H39.289V123.792L40.745 123.392V125.952H43.017V127.072H40.745V131.216C40.745 131.835 40.8517 132.277 41.065 132.544C41.289 132.8 41.609 132.928 42.025 132.928C42.2383 132.928 42.4197 132.912 42.569 132.88C42.729 132.837 42.873 132.789 43.001 132.736V133.936C42.841 134 42.6543 134.048 42.441 134.08C42.2383 134.123 42.041 134.144 41.849 134.144ZM47.6161 134.144C46.9121 134.144 46.2935 133.979 45.7601 133.648C45.2268 133.317 44.8108 132.837 44.5121 132.208C44.2135 131.579 44.0641 130.832 44.0641 129.968C44.0641 129.104 44.2135 128.363 44.5121 127.744C44.8108 127.115 45.2268 126.635 45.7601 126.304C46.2935 125.973 46.9121 125.808 47.6161 125.808C48.3308 125.808 48.9495 125.989 49.4721 126.352C50.0055 126.704 50.3575 127.189 50.5281 127.808H50.3361L50.5121 125.952H51.9201C51.8881 126.272 51.8561 126.592 51.8241 126.912C51.8028 127.232 51.7921 127.547 51.7921 127.856V134H50.3361V132.16H50.5121C50.3415 132.768 49.9895 133.253 49.4561 133.616C48.9335 133.968 48.3201 134.144 47.6161 134.144ZM47.9521 132.992C48.6775 132.992 49.2588 132.736 49.6961 132.224C50.1335 131.712 50.3521 130.96 50.3521 129.968C50.3521 128.976 50.1335 128.229 49.6961 127.728C49.2588 127.227 48.6775 126.976 47.9521 126.976C47.2268 126.976 46.6401 127.227 46.1921 127.728C45.7548 128.229 45.5361 128.976 45.5361 129.968C45.5361 130.96 45.7548 131.712 46.1921 132.224C46.6295 132.736 47.2161 132.992 47.9521 132.992ZM54.2316 134V122.224H55.6876V134H54.2316ZM62.085 128.352C62.085 127.168 62.293 126.144 62.709 125.28C63.125 124.416 63.7223 123.749 64.501 123.28C65.2903 122.811 66.229 122.576 67.317 122.576C68.3943 122.576 69.3223 122.811 70.101 123.28C70.8903 123.749 71.4983 124.416 71.925 125.28C72.3517 126.144 72.565 127.163 72.565 128.336C72.565 129.52 72.3517 130.549 71.925 131.424C71.4983 132.288 70.8903 132.96 70.101 133.44C69.3223 133.909 68.3943 134.144 67.317 134.144C66.229 134.144 65.2957 133.909 64.517 133.44C63.7383 132.96 63.1357 132.288 62.709 131.424C62.293 130.549 62.085 129.525 62.085 128.352ZM63.653 128.352C63.653 129.76 63.9623 130.859 64.581 131.648C65.1997 132.437 66.1117 132.832 67.317 132.832C68.4797 132.832 69.381 132.443 70.021 131.664C70.6717 130.875 70.997 129.771 70.997 128.352C70.997 126.933 70.677 125.835 70.037 125.056C69.397 124.277 68.4903 123.888 67.317 123.888C66.1117 123.888 65.1997 124.277 64.581 125.056C63.9623 125.835 63.653 126.933 63.653 128.352ZM74.7469 134V127.92C74.7469 127.6 74.7362 127.275 74.7149 126.944C74.7042 126.603 74.6775 126.272 74.6349 125.952H76.0429L76.2189 127.968L75.9789 127.984C76.0855 127.493 76.2669 127.088 76.5229 126.768C76.7895 126.437 77.1042 126.197 77.4669 126.048C77.8402 125.888 78.2242 125.808 78.6189 125.808C78.7895 125.808 78.9335 125.813 79.0509 125.824C79.1682 125.835 79.2855 125.861 79.4029 125.904L79.3709 127.2C79.2109 127.136 79.0615 127.099 78.9229 127.088C78.7949 127.067 78.6349 127.056 78.4429 127.056C77.9735 127.056 77.5682 127.163 77.2269 127.376C76.8962 127.589 76.6402 127.872 76.4589 128.224C76.2882 128.576 76.2029 128.955 76.2029 129.36V134H74.7469ZM84.1594 137.584C83.4554 137.584 82.81 137.499 82.2234 137.328C81.6367 137.157 81.1087 136.896 80.6394 136.544L81.0234 135.472C81.354 135.696 81.6794 135.877 81.9994 136.016C82.3194 136.155 82.65 136.256 82.9914 136.32C83.3434 136.384 83.706 136.416 84.0794 136.416C84.8687 136.416 85.4607 136.213 85.8554 135.808C86.25 135.403 86.4474 134.827 86.4474 134.08V131.824H86.6074C86.4367 132.432 86.0847 132.917 85.5514 133.28C85.0287 133.632 84.41 133.808 83.6954 133.808C82.97 133.808 82.3354 133.648 81.7914 133.328C81.258 132.997 80.842 132.533 80.5434 131.936C80.2447 131.328 80.0954 130.619 80.0954 129.808C80.0954 128.987 80.2447 128.277 80.5434 127.68C80.842 127.083 81.258 126.624 81.7914 126.304C82.3354 125.973 82.97 125.808 83.6954 125.808C84.41 125.808 85.0287 125.984 85.5514 126.336C86.074 126.688 86.4207 127.173 86.5914 127.792L86.4474 127.648L86.5914 125.952H87.9994C87.9674 126.272 87.9354 126.592 87.9034 126.912C87.882 127.232 87.8714 127.547 87.8714 127.856V133.904C87.8714 135.099 87.5567 136.011 86.9274 136.64C86.3087 137.269 85.386 137.584 84.1594 137.584ZM84.0154 132.656C84.7514 132.656 85.338 132.405 85.7754 131.904C86.2127 131.403 86.4314 130.704 86.4314 129.808C86.4314 128.901 86.2127 128.203 85.7754 127.712C85.338 127.221 84.7514 126.976 84.0154 126.976C83.2687 126.976 82.6714 127.221 82.2234 127.712C81.786 128.203 81.5674 128.901 81.5674 129.808C81.5674 130.704 81.786 131.403 82.2234 131.904C82.6714 132.405 83.2687 132.656 84.0154 132.656ZM93.3818 134.144C92.6778 134.144 92.0591 133.979 91.5258 133.648C90.9924 133.317 90.5764 132.837 90.2778 132.208C89.9791 131.579 89.8298 130.832 89.8298 129.968C89.8298 129.104 89.9791 128.363 90.2778 127.744C90.5764 127.115 90.9924 126.635 91.5258 126.304C92.0591 125.973 92.6778 125.808 93.3818 125.808C94.0964 125.808 94.7151 125.989 95.2378 126.352C95.7711 126.704 96.1231 127.189 96.2938 127.808H96.1018L96.2778 125.952H97.6858C97.6538 126.272 97.6218 126.592 97.5898 126.912C97.5684 127.232 97.5578 127.547 97.5578 127.856V134H96.1018V132.16H96.2778C96.1071 132.768 95.7551 133.253 95.2218 133.616C94.6991 133.968 94.0858 134.144 93.3818 134.144ZM93.7178 132.992C94.4431 132.992 95.0244 132.736 95.4618 132.224C95.8991 131.712 96.1178 130.96 96.1178 129.968C96.1178 128.976 95.8991 128.229 95.4618 127.728C95.0244 127.227 94.4431 126.976 93.7178 126.976C92.9924 126.976 92.4058 127.227 91.9578 127.728C91.5204 128.229 91.3018 128.976 91.3018 129.968C91.3018 130.96 91.5204 131.712 91.9578 132.224C92.3951 132.736 92.9818 132.992 93.7178 132.992ZM99.9973 134V127.856C99.9973 127.547 99.9866 127.232 99.9653 126.912C99.9439 126.592 99.9119 126.272 99.8693 125.952H101.277L101.437 127.68H101.245C101.491 127.072 101.869 126.608 102.381 126.288C102.893 125.968 103.491 125.808 104.173 125.808C105.123 125.808 105.837 126.069 106.317 126.592C106.797 127.104 107.037 127.904 107.037 128.992V134H105.581V129.072C105.581 128.336 105.437 127.808 105.149 127.488C104.861 127.157 104.413 126.992 103.805 126.992C103.08 126.992 102.504 127.211 102.077 127.648C101.661 128.085 101.453 128.677 101.453 129.424V134H99.9973ZM109.419 134V125.952H110.875V134H109.419ZM109.291 124.192V122.624H111.019V124.192H109.291ZM112.878 134V133.024L118.222 126.704V127.072H112.878V125.952H119.566V126.928L114.19 133.28L114.174 132.88H119.742V134H112.878ZM125.13 134.144C123.85 134.144 122.837 133.776 122.09 133.04C121.354 132.304 120.986 131.291 120.986 130C120.986 129.147 121.146 128.411 121.466 127.792C121.797 127.163 122.25 126.677 122.826 126.336C123.402 125.984 124.074 125.808 124.842 125.808C125.578 125.808 126.202 125.968 126.714 126.288C127.226 126.597 127.615 127.04 127.882 127.616C128.149 128.192 128.282 128.875 128.282 129.664V130.144H122.122V129.28H127.29L127.018 129.488C127.018 128.656 126.831 128.011 126.458 127.552C126.095 127.093 125.557 126.864 124.842 126.864C124.063 126.864 123.461 127.136 123.034 127.68C122.607 128.213 122.394 128.944 122.394 129.872V130.016C122.394 130.997 122.634 131.739 123.114 132.24C123.605 132.741 124.282 132.992 125.146 132.992C125.626 132.992 126.074 132.923 126.49 132.784C126.906 132.645 127.306 132.416 127.69 132.096L128.17 133.104C127.807 133.435 127.354 133.691 126.81 133.872C126.277 134.053 125.717 134.144 125.13 134.144ZM130.169 134V127.92C130.169 127.6 130.158 127.275 130.137 126.944C130.126 126.603 130.099 126.272 130.057 125.952H131.465L131.641 127.968L131.401 127.984C131.507 127.493 131.689 127.088 131.945 126.768C132.211 126.437 132.526 126.197 132.889 126.048C133.262 125.888 133.646 125.808 134.041 125.808C134.211 125.808 134.355 125.813 134.473 125.824C134.59 125.835 134.707 125.861 134.825 125.904L134.793 127.2C134.633 127.136 134.483 127.099 134.345 127.088C134.217 127.067 134.057 127.056 133.865 127.056C133.395 127.056 132.99 127.163 132.649 127.376C132.318 127.589 132.062 127.872 131.881 128.224C131.71 128.576 131.625 128.955 131.625 129.36V134H130.169ZM138.749 134.144C138.098 134.144 137.49 134.059 136.924 133.888C136.37 133.717 135.911 133.472 135.549 133.152L136.013 132.144C136.407 132.443 136.839 132.672 137.309 132.832C137.789 132.981 138.279 133.056 138.781 133.056C139.389 133.056 139.847 132.944 140.157 132.72C140.477 132.496 140.637 132.197 140.637 131.824C140.637 131.525 140.535 131.285 140.333 131.104C140.13 130.923 139.81 130.789 139.373 130.704L137.853 130.4C137.17 130.24 136.653 129.984 136.301 129.632C135.959 129.269 135.789 128.805 135.789 128.24C135.789 127.771 135.917 127.355 136.173 126.992C136.429 126.619 136.791 126.331 137.261 126.128C137.741 125.915 138.301 125.808 138.941 125.808C139.527 125.808 140.071 125.893 140.573 126.064C141.085 126.235 141.506 126.485 141.837 126.816L141.357 127.792C141.026 127.504 140.653 127.285 140.237 127.136C139.831 126.976 139.415 126.896 138.989 126.896C138.37 126.896 137.911 127.019 137.613 127.264C137.314 127.499 137.164 127.808 137.164 128.192C137.164 128.48 137.255 128.72 137.437 128.912C137.618 129.093 137.911 129.232 138.317 129.328L139.837 129.632C140.551 129.781 141.09 130.027 141.453 130.368C141.815 130.709 141.997 131.163 141.997 131.728C141.997 132.229 141.858 132.661 141.581 133.024C141.314 133.387 140.935 133.664 140.445 133.856C139.965 134.048 139.399 134.144 138.749 134.144Z"
                  fill="#425166"
                />
                <path
                  d="M27.032 101.216C25.88 101.216 24.776 101.048 23.72 100.712C22.664 100.36 21.784 99.864 21.08 99.224L21.944 97.328C22.728 97.936 23.528 98.384 24.344 98.672C25.16 98.96 26.032 99.104 26.96 99.104C28.144 99.104 29.04 98.856 29.648 98.36C30.272 97.864 30.584 97.152 30.584 96.224C30.584 95.312 30.272 94.624 29.648 94.16C29.04 93.68 28.136 93.44 26.936 93.44H24.32V91.424H26.744C27.768 91.424 28.584 91.168 29.192 90.656C29.8 90.128 30.104 89.416 30.104 88.52C30.104 87.704 29.824 87.08 29.264 86.648C28.704 86.2 27.904 85.976 26.864 85.976C25.104 85.976 23.56 86.592 22.232 87.824L21.392 85.928C22.048 85.272 22.88 84.768 23.888 84.416C24.896 84.048 25.952 83.864 27.056 83.864C28.752 83.864 30.088 84.256 31.064 85.04C32.04 85.808 32.528 86.88 32.528 88.256C32.528 89.296 32.232 90.184 31.64 90.92C31.064 91.656 30.272 92.144 29.264 92.384V92.12C30.464 92.312 31.384 92.792 32.024 93.56C32.68 94.312 33.008 95.256 33.008 96.392C33.008 97.896 32.472 99.08 31.4 99.944C30.344 100.792 28.888 101.216 27.032 101.216ZM43.3186 101V97.496H35.4946V95.72L43.7266 84.08H45.7426V95.552H48.2626V97.496H45.7426V101H43.3186ZM43.3186 95.552V87.032H43.8706L37.4386 96.152V95.552H43.3186ZM55.9813 101.216C54.0293 101.216 52.5253 100.472 51.4693 98.984C50.4293 97.48 49.9093 95.328 49.9093 92.528C49.9093 89.68 50.4293 87.528 51.4693 86.072C52.5253 84.6 54.0293 83.864 55.9813 83.864C57.9493 83.864 59.4533 84.6 60.4933 86.072C61.5333 87.528 62.0533 89.672 62.0533 92.504C62.0533 95.32 61.5253 97.48 60.4693 98.984C59.4293 100.472 57.9333 101.216 55.9813 101.216ZM55.9813 99.128C57.2133 99.128 58.1253 98.592 58.7173 97.52C59.3253 96.448 59.6293 94.776 59.6293 92.504C59.6293 90.216 59.3253 88.552 58.7173 87.512C58.1253 86.456 57.2133 85.928 55.9813 85.928C54.7653 85.928 53.8533 86.456 53.2453 87.512C52.6373 88.552 52.3333 90.208 52.3333 92.48C52.3333 94.768 52.6373 96.448 53.2453 97.52C53.8693 98.592 54.7813 99.128 55.9813 99.128Z"
                  fill="#2D8E00"
                />
                <circle cx="40" cy="40" r="20" fill="#2D8E00" />
                <path
                  fillRule="evenodd"
                  clipRule="evenodd"
                  d="M40 40C42.2091 40 44 38.2091 44 36C44 33.7909 42.2091 32 40 32C37.7909 32 36 33.7909 36 36C36 38.2091 37.7909 40 40 40ZM33 46C33 43.2386 36.134 41 40 41C43.866 41 47 43.2386 47 46C47 47.1046 46.1046 48 45 48H35C33.8954 48 33 47.1046 33 46Z"
                  fill="white"
                />
              </svg>