<svg
              width="251"
              height="69"
              viewBox="0 0 251 69"
              fill="none"
              xmlns="http://www.w3.org/2000/svg"
            >
              <path
                d="M25.8714 0C11.5855 0 0 12.493 0 27.9022C0 43.3114 25.8714 68.5 25.8714 68.5C25.8714 68.5 51.7428 43.3114 51.7428 27.9022C51.7428 12.493 40.1617 0 25.8714 0ZM25.8714 45.3245C15.0215 45.3245 6.22447 36.5275 6.22447 25.6776C6.22447 14.8277 15.0215 6.03064 25.8714 6.03064C36.7213 6.03064 45.5184 14.8277 45.5184 25.6776C45.5228 36.5275 36.7257 45.3245 25.8714 45.3245Z"
                fill="#2D8E00"
              />
              <path
                d="M41.307 18.3783C41.2982 18.2373 41.2189 18.114 41.0427 18.0875C40.9942 18.0831 40.9458 18.0831 40.9017 18.0831C40.7828 18.0831 40.6682 18.1096 40.5581 18.136C40.3775 18.18 40.2013 18.2373 40.0251 18.2946C39.8357 18.3562 39.6418 18.4179 39.448 18.4752C39.3819 18.4972 39.3159 18.506 39.2454 18.5192C39.1661 18.5325 39.0868 18.5192 39.0119 18.484C38.9943 18.4752 38.9855 18.4399 38.9987 18.4267C39.0119 18.4091 39.0251 18.3915 39.0427 18.3827C39.0912 18.3518 39.1441 18.3254 39.1969 18.299C39.263 18.2637 39.3247 18.2241 39.3775 18.1668C39.3996 18.1448 39.4172 18.1184 39.4304 18.0875C39.4524 18.0391 39.4348 17.9774 39.3864 17.9466C39.3423 17.9157 39.2894 17.9025 39.2366 17.8981C39.1749 17.8937 39.1088 17.8981 39.0472 17.9113C38.9282 17.9334 38.8137 17.973 38.7036 18.0303C38.4745 18.1448 38.2674 18.2902 38.0824 18.4664C37.9238 18.6161 37.7873 18.7835 37.686 18.9818C37.5494 19.2417 37.3336 19.4135 37.0516 19.5016C36.9591 19.528 36.8666 19.5456 36.7697 19.55C36.6067 19.5633 36.4437 19.5765 36.2807 19.5941C36.1177 19.6117 35.9547 19.6293 35.7917 19.6425C35.6288 19.6558 35.4658 19.669 35.3028 19.6866C35.175 19.6998 35.0473 19.7086 34.9239 19.7218C34.7654 19.7395 34.6068 19.7527 34.4482 19.7703C34.3601 19.7791 34.2676 19.7879 34.1795 19.7967C34.1574 19.7967 34.1354 19.8011 34.1178 19.8011C33.9724 19.8011 33.8535 19.6866 33.8491 19.5412C33.8491 19.4575 33.8579 19.3738 33.8579 19.2857C33.8623 19.1448 33.8755 18.9994 33.8755 18.8584C33.8799 18.5809 33.8755 18.3078 33.8491 18.0303C33.8271 17.7616 33.7874 17.4928 33.7301 17.2285C33.6993 17.092 33.6641 16.9598 33.6156 16.8321C33.5716 16.7087 33.5539 16.5854 33.5848 16.4576C33.6068 16.3695 33.62 16.2814 33.6376 16.1933C33.6993 15.8629 33.7346 15.5325 33.7257 15.1978C33.7213 15.048 33.7125 14.9026 33.6861 14.7528C33.6156 14.3299 33.4262 13.9687 33.0914 13.6956C33.0518 13.6604 33.0077 13.6295 32.9681 13.5943C32.9328 13.5634 32.8932 13.5326 32.8579 13.5018C32.8315 13.4753 32.8095 13.4445 32.7874 13.4181C32.7654 13.3916 32.761 13.3608 32.761 13.33C32.7522 13.2375 32.8491 13.1361 32.9284 13.1229C32.9945 13.1141 33.0562 13.1141 33.1178 13.1406C33.1795 13.167 33.2412 13.1978 33.3028 13.2331C33.3689 13.2727 33.435 13.3256 33.4967 13.3696C33.5363 13.3961 33.576 13.4269 33.6156 13.4489C33.7522 13.5326 33.9945 13.5326 34.1222 13.3388C34.1486 13.2991 34.1707 13.2551 34.1927 13.2154C34.2059 13.1934 34.2103 13.167 34.2235 13.1406C34.2676 13.048 34.3204 12.9643 34.4173 12.9159C34.457 12.8983 34.4878 12.8674 34.5054 12.8278C34.5275 12.7837 34.5539 12.7485 34.6068 12.7309C34.6728 12.7089 34.7081 12.656 34.7301 12.5943C34.7389 12.5679 34.7477 12.5459 34.7565 12.5194C34.7654 12.4974 34.8006 12.4842 34.8226 12.493C34.8535 12.5062 34.8799 12.5238 34.9107 12.5326C34.9416 12.5415 34.9724 12.5503 35.0032 12.5547C35.0781 12.5635 35.1354 12.5282 35.175 12.4622C35.2015 12.4137 35.2191 12.3652 35.2235 12.3124C35.2367 12.2111 35.2411 12.1098 35.2367 12.0128C35.2323 11.9027 35.2279 11.7882 35.2235 11.678C35.2191 11.5899 35.2499 11.5107 35.2896 11.4358C35.3248 11.3697 35.3733 11.3124 35.4217 11.2552C35.5186 11.1494 35.5891 11.0217 35.642 10.8895C35.6992 10.753 35.7301 10.6076 35.7565 10.4578C35.7874 10.2552 35.7829 10.057 35.7433 9.85872C35.686 9.56798 35.5715 9.30367 35.4129 9.05699C35.1926 8.71779 34.9151 8.45348 34.5759 8.26406C33.968 7.88081 33.3293 7.96891 33.3293 7.96891C33.0606 7.99094 32.5364 8.09226 32.1002 8.5592C32.087 8.58123 32.065 8.60326 32.043 8.62528C31.9945 8.68255 31.9505 8.73981 31.9064 8.80149C31.8976 8.81911 31.8844 8.83232 31.8756 8.84554C31.7434 9.03496 31.6333 9.2376 31.5452 9.45345C31.4571 9.6693 31.3954 9.89396 31.3734 10.1274C31.3558 10.3036 31.3293 10.4754 31.2985 10.6472C31.2677 10.8323 31.2148 11.0085 31.1399 11.1803C31.1003 11.2684 31.0562 11.3521 30.9946 11.427C30.8624 11.5855 30.7302 11.7441 30.5981 11.9027C30.5849 11.9203 30.5673 11.9291 30.5496 11.9424C30.5012 11.9159 30.4527 11.8939 30.4043 11.8719C29.8712 11.5943 29.3162 11.3741 28.7303 11.2287C28.3074 11.123 27.8757 11.0657 27.4396 11.0878C27.3603 11.0922 27.281 11.101 27.2017 11.1098C27.0916 11.123 26.9815 11.1406 26.8713 11.145C26.6202 11.1582 26.3736 11.1582 26.1225 11.1406C25.933 11.1274 25.7436 11.1098 25.5498 11.0922C25.356 11.0745 25.1577 11.0657 24.9639 11.0481C24.6423 11.0173 24.3164 11.0173 23.9948 11.0261C23.7701 11.0349 23.5499 11.0657 23.334 11.123C22.9419 11.2243 22.6116 11.4225 22.3649 11.7485C22.1975 11.9688 22.0169 12.1758 21.8407 12.3917C21.1182 13.2595 20.3826 14.1185 19.6513 14.9775C19.4619 15.1978 19.2548 15.3872 19.0126 15.5502C18.8363 15.6691 18.6646 15.788 18.4883 15.9114C18.3694 15.9951 18.2681 16.0964 18.1932 16.2197C18.0434 16.4532 18.017 16.7043 18.1095 16.9642C18.1359 17.0435 18.1756 17.1228 18.2196 17.1933C18.3914 17.4532 18.5985 17.6779 18.854 17.8541C18.9112 17.8937 18.9729 17.9245 19.0346 17.9554C19.0786 17.9774 19.1227 17.9906 19.1711 17.995C19.246 18.0082 19.3077 17.9774 19.3429 17.9113C19.365 17.8761 19.3782 17.8364 19.3958 17.7968C19.4575 17.669 19.5191 17.5369 19.594 17.4179C19.6381 17.3475 19.6909 17.277 19.7438 17.2109C19.8099 17.1316 19.8892 17.0743 19.9905 17.0435C20.0169 17.0347 20.039 17.0259 20.0654 17.0171C20.1227 16.9951 20.1711 16.9642 20.2064 16.9158C20.3165 16.7704 20.4002 16.6118 20.4222 16.4268C20.431 16.3651 20.4354 16.299 20.4354 16.2374C20.4354 16.1493 20.4663 16.07 20.5191 16.0039C20.5544 15.9554 20.5984 15.9202 20.6469 15.8894C21.0742 15.6383 21.4662 15.3431 21.8539 15.0348C22.453 14.5502 23.0212 14.0348 23.5719 13.493C23.6203 13.4445 23.6688 13.3961 23.7217 13.3476C23.7481 13.3212 23.7745 13.3168 23.8098 13.33C23.8935 13.3608 23.9772 13.3961 24.0609 13.4269C24.4485 13.5634 24.845 13.656 25.2414 13.7397C25.748 13.8454 26.2634 13.9335 26.7744 14.004C26.8229 14.0084 26.8669 14.0216 26.9154 14.0304C26.9286 14.0348 26.933 14.0568 26.9198 14.07C26.8978 14.0921 26.8757 14.1141 26.8537 14.1361C26.748 14.233 26.6511 14.3388 26.5586 14.4489C26.3471 14.7 26.1665 14.9775 26.0167 15.2726C25.8846 15.5325 25.7656 15.8013 25.6643 16.0744C25.5366 16.4268 25.4088 16.7836 25.2855 17.136C25.1665 17.4664 25.0476 17.7924 24.9066 18.114C24.7789 18.4003 24.6335 18.6778 24.4573 18.9377C24.3384 19.1139 24.2062 19.2813 24.0564 19.4311C23.8098 19.6866 23.5278 19.8892 23.2151 20.0522C22.823 20.2549 22.4398 20.4663 22.0697 20.7086C21.7261 20.9333 21.4046 21.1799 21.1006 21.4575C20.5676 21.9508 20.1535 22.5279 19.8936 23.2107C19.8099 23.431 19.7086 23.638 19.594 23.8451C19.4575 24.0961 19.3033 24.3384 19.1447 24.5763C18.8628 24.986 18.55 25.378 18.224 25.7525C17.8011 26.2415 17.3474 26.704 16.8805 27.1533C16.3607 27.6555 15.8232 28.1357 15.2726 28.6026C14.9774 28.8537 14.7175 29.14 14.4753 29.444C14.1669 29.8361 13.8894 30.2501 13.6251 30.673C13.2374 31.2942 12.885 31.9329 12.5458 32.5849C12.1449 33.3514 11.7705 34.1311 11.4005 34.9108C11.3036 35.1178 11.2022 35.3205 11.1053 35.5275C11.0392 35.6641 10.9467 35.7786 10.8234 35.8667C10.7485 35.924 10.6692 35.9768 10.5855 36.0297C10.4578 36.1046 10.33 36.1795 10.1979 36.2499C10.0701 36.3248 9.93796 36.3953 9.81461 36.4746C9.73092 36.5275 9.64722 36.5891 9.57233 36.6508C9.30362 36.8755 9.26397 37.2675 9.47101 37.5539C9.49744 37.5935 9.53269 37.6288 9.56352 37.664C9.65603 37.7741 9.75294 37.8798 9.84545 37.99C10.0481 38.2323 10.2331 38.4833 10.3961 38.7477C10.4754 38.8798 10.8895 39.589 11.3476 40.959C11.3476 40.959 12.5899 41.7916 12.2595 38.9679C12.211 38.6243 12.1493 38.2807 12.0789 37.9371C12.048 37.7741 12.0524 37.6199 12.1097 37.4702C12.1493 37.36 12.1934 37.2543 12.2463 37.1486C12.3388 36.946 12.4533 36.7521 12.5678 36.5627C12.8409 36.1134 13.1405 35.6861 13.4533 35.2632C13.885 34.6773 14.3387 34.109 14.8056 33.554C15.3078 32.9593 15.8232 32.3734 16.3739 31.8184C16.6073 31.5805 16.8452 31.347 17.1007 31.1312C17.2153 31.0343 17.3298 30.9461 17.4487 30.8536C17.55 30.7788 17.6602 30.7171 17.7791 30.6686C17.9025 30.6202 18.0214 30.5629 18.1403 30.5012C18.7306 30.1973 19.1844 29.7479 19.5059 29.1621C19.5764 29.0299 19.6557 28.9066 19.7438 28.7832C19.8275 28.6599 19.9288 28.5542 20.039 28.4484C20.1623 28.3295 20.2989 28.2326 20.4442 28.1401C20.92 27.8449 21.409 27.5674 21.9023 27.2943C22.8406 26.7789 23.7921 26.2855 24.7481 25.8053C24.7921 25.7833 24.8318 25.7657 24.8758 25.7481C24.8934 25.7569 24.9066 25.7657 24.9199 25.7745C25.0564 25.8934 25.2106 25.9816 25.3736 26.0652C25.6115 26.1842 25.8582 26.2811 26.1048 26.3736C26.5938 26.5542 27.0872 26.7084 27.5894 26.845C27.9726 26.9507 28.3559 27.0476 28.7435 27.1489C28.8008 27.1665 28.8581 27.1665 28.9153 27.1533C29.2237 27.0961 29.5364 27.0872 29.8492 27.1225C30.0034 27.1401 30.1532 27.1665 30.3029 27.1974C30.3426 27.2062 30.3866 27.215 30.4175 27.2458C30.3822 27.2634 30.3426 27.2546 30.3073 27.2502C30.0607 27.2194 29.8184 27.2458 29.5805 27.2811C29.4968 27.2943 29.4131 27.3075 29.3294 27.3251C29.2237 27.3427 29.1268 27.378 29.0299 27.4264C28.8448 27.5189 28.6642 27.6203 28.488 27.726C27.5497 28.3031 26.7568 29.0343 26.1092 29.9242C25.9683 30.118 25.8361 30.3162 25.6996 30.51C25.6027 30.6422 25.5101 30.7788 25.4132 30.9109C25.1798 31.2325 24.8934 31.4968 24.5586 31.7126C24.3252 31.8668 24.0785 32.0034 23.823 32.1267C23.7525 32.162 23.6776 32.1928 23.6071 32.2324C23.4441 32.3117 23.29 32.4042 23.1446 32.5144C23.0521 32.5849 22.9684 32.6686 22.8979 32.7611C22.7525 32.9505 22.7217 33.1663 22.779 33.3954C22.801 33.4835 22.8318 33.5672 22.8759 33.6465C22.9331 33.7478 22.986 33.8535 23.0521 33.9505C23.1314 34.0694 23.2151 34.1839 23.2988 34.3029C23.3781 34.4086 23.4573 34.5143 23.5366 34.62C23.8979 35.087 24.2062 35.5892 24.4793 36.109C24.5498 36.2455 24.6159 36.3821 24.6864 36.5187C24.7304 36.6068 24.7789 36.6993 24.8229 36.7874C24.8229 36.7874 25.0564 37.3733 25.0917 37.4746C25.1269 37.5759 25.5322 37.5803 25.933 36.9019C25.9903 36.8094 26.0255 36.7037 26.0476 36.5891C26.074 36.4306 26.074 36.272 26.0564 36.1134C26.03 35.8711 25.9815 35.6332 25.9286 35.3953C25.8537 35.0429 25.7745 34.6905 25.7392 34.3337C25.726 34.206 25.7216 34.0782 25.7172 33.9549C25.7172 33.9152 25.7216 33.88 25.7392 33.8491C25.7789 33.761 25.8185 33.6773 25.8626 33.5892C26.0079 33.2765 26.2018 32.9901 26.422 32.7258C26.585 32.532 26.7656 32.3514 26.955 32.1796C27.3163 31.8536 27.7083 31.5585 28.1092 31.2809C28.5761 30.9594 29.0563 30.6554 29.5409 30.3603C29.9549 30.1048 30.3778 29.8581 30.7831 29.5894C31.0782 29.3999 31.3646 29.2017 31.6421 28.9859C31.8624 28.8185 32.0694 28.6379 32.2632 28.4396C32.4306 28.2678 32.5804 28.0828 32.7037 27.8758C32.8932 27.5586 32.9989 27.2194 33.0165 26.8538C33.0209 26.7172 33.0165 26.5762 33.0121 26.4397C33.0033 26.2062 32.946 25.9904 32.8359 25.7833C32.7874 25.6952 32.739 25.6071 32.6861 25.5234C32.6112 25.4133 32.5364 25.3032 32.4571 25.2018C32.2588 24.9419 32.0342 24.6997 31.8007 24.4662C31.4527 24.1094 31.0782 23.779 30.695 23.4618C30.0783 22.9464 29.4351 22.4574 28.7744 21.9949C28.7347 21.9685 28.6951 21.942 28.6598 21.9112C28.6466 21.898 28.6378 21.8716 28.651 21.8539C28.7127 21.7614 28.77 21.6645 28.8316 21.572C29.0122 21.3121 29.2237 21.0742 29.4439 20.8407C29.6025 20.6778 29.7567 20.5104 29.9153 20.343C30.2104 20.0346 30.4571 19.691 30.6598 19.3166C30.7038 19.2373 30.7435 19.158 30.7831 19.0743C30.8007 19.0346 30.8139 18.995 30.8183 18.9553C30.8536 18.7175 30.8668 18.4796 30.8228 18.2417C30.8183 18.2285 30.8272 18.2109 30.8272 18.1977C30.858 18.2197 30.8668 18.2505 30.8756 18.2814C30.9197 18.4267 30.9461 18.5809 30.9681 18.7307C30.9769 18.7879 30.9901 18.8452 31.0122 18.8981C31.2677 19.5589 31.532 20.2196 31.8271 20.8672C31.9461 21.1271 32.0694 21.387 32.206 21.6381C32.2632 21.7394 32.3249 21.8363 32.4042 21.9244C32.6112 22.1491 32.8667 22.2768 33.1663 22.3077C33.4086 22.3341 33.642 22.3077 33.8711 22.2328C34.1486 22.1403 34.4262 22.0478 34.6993 21.9552C35.2808 21.7526 35.8578 21.5412 36.4217 21.2989C36.8093 21.1359 37.1838 20.9509 37.5362 20.7218C37.9415 20.4619 38.3688 20.2593 38.8269 20.1095C38.9767 20.061 39.1264 20.0082 39.2762 19.9509C39.6991 19.7967 40.1088 19.6073 40.5009 19.3826C40.6462 19.2989 40.7872 19.202 40.9193 19.0919C40.9986 19.0258 41.0691 18.9553 41.1308 18.8761C41.1837 18.81 41.2277 18.7395 41.2585 18.6558C41.2938 18.5589 41.3114 18.4708 41.307 18.3783Z"
                fill="#2D8E00"
              />
              <path
                d="M71 31.958V31.8958C71 25.7463 75.7956 20.7097 82.3547 20.7097C85.6336 20.7097 87.7996 21.4516 89.7488 22.8109C90.2136 23.1508 90.7383 23.7994 90.7383 24.7268C90.7383 26.0251 89.6865 27.0746 88.3867 27.0746C87.7062 27.0746 87.2725 26.828 86.9323 26.5804C85.6325 25.653 84.2404 25.0965 82.199 25.0965C78.7343 25.0965 75.9801 28.1563 75.9801 31.8336V31.8946C75.9801 35.8507 78.702 38.7549 82.5392 38.7549C84.2715 38.7549 85.8193 38.3218 87.0257 37.4566V34.3657H83.8079C82.6638 34.3657 81.7353 33.4694 81.7353 32.3266C81.7353 31.1827 82.6638 30.2565 83.8079 30.2565H89.2528C90.5838 30.2565 91.6356 31.3071 91.6356 32.6365V37.8897C91.6356 39.2802 91.1097 40.2387 89.9644 40.9184C88.201 42.0002 85.6336 43.0819 82.3847 43.0819C75.6411 43.0831 71 38.3552 71 31.958Z"
                fill="#2D8E00"
              />
              <path
                d="M93.6782 34.5224V34.4613C93.6782 29.7023 97.5142 25.8396 102.681 25.8396C107.817 25.8396 111.622 29.6401 111.622 34.3991V34.4613C111.622 39.2192 107.786 43.083 102.619 43.083C97.4831 43.083 93.6782 39.2825 93.6782 34.5224ZM106.982 34.5224V34.4613C106.982 32.019 105.219 29.8878 102.62 29.8878C99.9282 29.8878 98.3193 31.958 98.3193 34.3991V34.4613C98.3193 36.9025 100.083 39.0348 102.681 39.0348C105.373 39.0348 106.982 36.9635 106.982 34.5224Z"
                fill="#2D8E00"
              />
              <path
                d="M113.973 40.1166C113.695 39.9311 113.51 39.5913 113.51 39.1892C113.51 38.5095 114.036 37.9842 114.685 37.9842C114.994 37.9842 115.273 38.1075 115.428 38.2618C117.469 39.9922 119.512 40.8262 122.265 40.8262C125.172 40.8262 127.092 39.2814 127.092 37.149V37.0868C127.092 35.0788 126.009 33.9348 121.461 32.9763C116.48 31.8946 114.19 30.2875 114.19 26.7347V26.6725C114.19 23.2729 117.191 20.7707 121.306 20.7707C124.153 20.7707 126.225 21.4815 128.206 22.9031C128.452 23.0886 128.732 23.4284 128.732 23.8915C128.732 24.5401 128.206 25.0654 127.556 25.0654C127.278 25.0654 127.062 25.0044 126.845 24.85C125.02 23.5206 123.257 22.9641 121.245 22.9641C118.43 22.9641 116.635 24.509 116.635 26.4559V26.517C116.635 28.5572 117.749 29.7 122.514 30.7195C127.341 31.7702 129.568 33.5316 129.568 36.8379V36.9001C129.568 40.6085 126.473 43.0185 122.174 43.0185C119.016 43.0208 116.386 42.0324 113.973 40.1166Z"
                fill="#2D8E00"
              />
              <path
                d="M132.909 27.7865C132.909 27.1068 133.435 26.5815 134.084 26.5815C134.765 26.5815 135.291 27.1068 135.291 27.7865V29.95C136.591 28.0342 138.478 26.396 141.417 26.396C145.253 26.396 149.059 29.4247 149.059 34.6779V34.7401C149.059 39.9622 145.285 43.0519 141.417 43.0519C138.448 43.0519 136.528 41.4448 135.291 39.6523V46.6059C135.291 47.2856 134.796 47.8109 134.116 47.8109C133.435 47.8109 132.909 47.2856 132.909 46.6059V27.7865ZM146.613 34.77V34.7078C146.613 30.9384 144.015 28.5284 140.984 28.5284C138.014 28.5284 135.199 31.0306 135.199 34.6779V34.7401C135.199 38.4484 138.014 40.9195 140.984 40.9195C144.077 40.9195 146.613 38.6328 146.613 34.77Z"
                fill="#2D8E00"
              />
              <path
                d="M151.224 34.8011V34.7401C151.224 30.2288 154.75 26.396 159.578 26.396C164.373 26.396 167.899 30.1654 167.899 34.6779V34.7401C167.899 39.2514 164.341 43.0842 159.516 43.0842C154.72 43.083 151.224 39.3125 151.224 34.8011ZM165.455 34.8011V34.7401C165.455 31.3094 162.888 28.4973 159.516 28.4973C156.051 28.4973 153.668 31.3094 153.668 34.6779V34.7401C153.668 38.1697 156.205 40.9518 159.578 40.9518C163.041 40.9506 165.455 38.1696 165.455 34.8011Z"
                fill="#2D8E00"
              />
              <path
                d="M170.962 27.7865C170.962 27.1379 171.488 26.5815 172.138 26.5815C172.818 26.5815 173.344 27.1068 173.344 27.7865V30.7841C174.52 28.1264 176.84 26.5193 178.851 26.5193C179.563 26.5193 180.028 27.0446 180.028 27.7243C180.028 28.3741 179.594 28.8372 178.976 28.9293C175.881 29.3003 173.345 31.6181 173.345 36.2228V41.6615C173.345 42.31 172.85 42.8665 172.17 42.8665C171.489 42.8665 170.964 42.3412 170.964 41.6615V27.7865H170.962Z"
                fill="#2D8E00"
              />
              <path
                d="M183.09 38.4784V28.8372H181.79C181.233 28.8372 180.738 28.3418 180.738 27.7865C180.738 27.199 181.234 26.7359 181.79 26.7359H183.09V22.9653C183.09 22.3167 183.585 21.7603 184.265 21.7603C184.916 21.7603 185.472 22.3167 185.472 22.9653V26.7359H189.617C190.205 26.7359 190.7 27.2301 190.7 27.7865C190.7 28.3741 190.204 28.8372 189.617 28.8372H185.472V38.1697C185.472 40.1166 186.553 40.8274 188.164 40.8274C188.999 40.8274 189.432 40.6108 189.618 40.6108C190.175 40.6108 190.639 41.0739 190.639 41.6304C190.639 42.0635 190.361 42.4034 189.958 42.5578C189.278 42.8354 188.534 42.9909 187.606 42.9909C185.039 42.9898 183.09 41.7237 183.09 38.4784Z"
                fill="#2D8E00"
              />
              <path
                d="M193.516 21.7292C193.516 20.9573 194.134 20.4631 194.908 20.4631C195.713 20.4631 196.331 20.9573 196.331 21.7292V22.1312C196.331 22.8731 195.713 23.3985 194.908 23.3985C194.134 23.3985 193.516 22.8731 193.516 22.1312V21.7292ZM193.733 27.7865C193.733 27.1379 194.259 26.5815 194.908 26.5815C195.589 26.5815 196.115 27.1068 196.115 27.7865V41.6626C196.115 42.3423 195.62 42.8676 194.939 42.8676C194.259 42.8676 193.733 42.3423 193.733 41.6626V27.7865Z"
                fill="#2D8E00"
              />
              <path
                d="M201.313 28.8372H200.013C199.425 28.8372 198.991 28.3741 198.991 27.7865C198.991 27.2301 199.456 26.767 200.013 26.767H201.313V25.3765C201.313 23.5529 201.808 22.1635 202.705 21.2661C203.509 20.4631 204.685 20.03 206.138 20.03C206.911 20.03 207.501 20.0922 208.025 20.2154C208.49 20.3076 208.892 20.7097 208.892 21.235C208.892 21.8525 208.366 22.3167 207.747 22.2545C207.346 22.1935 206.912 22.1001 206.448 22.1001C204.592 22.1001 203.663 23.213 203.663 25.4998V26.7981H207.809C208.397 26.7981 208.86 27.2313 208.86 27.8188C208.86 28.3752 208.397 28.8383 207.809 28.8383H203.693V41.6626C203.693 42.3112 203.197 42.8676 202.517 42.8676C201.837 42.8676 201.311 42.3112 201.311 41.6626V28.8372H201.313ZM211.77 21.7292C211.77 20.9573 212.388 20.4631 213.162 20.4631C213.966 20.4631 214.586 20.9573 214.586 21.7292V22.1313C214.586 22.8732 213.966 23.3985 213.162 23.3985C212.388 23.3985 211.77 22.8732 211.77 22.1313V21.7292ZM211.986 27.7865C211.986 27.1379 212.512 26.5815 213.162 26.5815C213.843 26.5815 214.369 27.1068 214.369 27.7865V41.6626C214.369 42.3423 213.874 42.8676 213.193 42.8676C212.513 42.8676 211.987 42.3423 211.987 41.6626V27.7865H211.986Z"
                fill="#2D8E00"
              />
              <path
                d="M225.692 43.083C221.299 43.083 217.711 39.7145 217.711 34.77V34.7078C217.711 30.1044 220.96 26.396 225.383 26.396C230.116 26.396 232.808 30.2587 232.808 34.4924C232.808 35.141 232.282 35.6052 231.694 35.6052H220.124C220.464 39.0659 222.908 41.0128 225.753 41.0128C227.733 41.0128 229.188 40.241 230.363 39.1592C230.549 39.0049 230.766 38.8816 231.044 38.8816C231.632 38.8816 232.095 39.3447 232.095 39.9011C232.095 40.1788 231.972 40.4576 231.725 40.6741C230.209 42.1245 228.414 43.083 225.692 43.083ZM230.425 33.8427C230.179 30.9384 228.507 28.404 225.321 28.404C222.537 28.404 220.433 30.7218 220.124 33.8427H230.425Z"
                fill="#2D8E00"
              />
              <path
                d="M251 41.6615C251 42.3412 250.474 42.8665 249.823 42.8665C249.143 42.8665 248.617 42.3412 248.617 41.6615V39.498C247.317 41.4138 245.43 43.0519 242.492 43.0519C238.654 43.0519 234.85 40.0244 234.85 34.7701V34.7079C234.85 29.4857 238.654 26.396 242.492 26.396C245.462 26.396 247.38 28.0031 248.617 29.7956V21.205C248.617 20.5253 249.112 20 249.792 20C250.473 20 250.999 20.5253 250.999 21.205V41.6615H251ZM237.295 34.6779V34.7401C237.295 38.5095 239.924 40.9195 242.925 40.9195C245.895 40.9195 248.71 38.4174 248.71 34.7401V34.6779C248.71 31.0007 245.896 28.5284 242.925 28.5284C239.831 28.5284 237.295 30.8152 237.295 34.6779Z"
                fill="#2D8E00"
              />
            </svg>