<svg
                width="180"
                height="184"
                viewBox="0 0 180 184"
                fill="none"
                xmlns="http://www.w3.org/2000/svg"
              >
                <rect width="180" height="184" rx="16" fill="#FFF4DE" />
                <path
                  d="M23.18 160.544V157.964H20.636V157.148H23.18V154.628H24.02V157.148H26.564V157.964H24.02V160.544H23.18ZM30.9393 161.108C30.5713 161.108 30.2073 161.068 29.8473 160.988C29.4953 160.908 29.1633 160.796 28.8513 160.652C28.5393 160.5 28.2673 160.316 28.0353 160.1L28.4313 159.236C28.8233 159.548 29.2233 159.78 29.6313 159.932C30.0393 160.076 30.4673 160.148 30.9153 160.148C31.5073 160.148 31.9713 159.992 32.3073 159.68C32.6433 159.368 32.8113 158.952 32.8113 158.432C32.8113 157.896 32.6513 157.464 32.3313 157.136C32.0113 156.8 31.5673 156.632 30.9993 156.632C30.6073 156.632 30.2513 156.712 29.9313 156.872C29.6193 157.024 29.3433 157.268 29.1033 157.604H28.3113V152.54H33.3873V153.488H29.3913V156.692H29.1033C29.3193 156.372 29.6113 156.124 29.9793 155.948C30.3553 155.772 30.7753 155.684 31.2393 155.684C31.7833 155.684 32.2513 155.796 32.6433 156.02C33.0433 156.244 33.3513 156.56 33.5673 156.968C33.7913 157.368 33.9033 157.836 33.9033 158.372C33.9033 158.908 33.7833 159.384 33.5433 159.8C33.3033 160.208 32.9593 160.528 32.5113 160.76C32.0713 160.992 31.5473 161.108 30.9393 161.108ZM38.0026 161H37.0426L42.0586 152.54H43.0306L38.0026 161ZM37.0786 157.604C36.4226 157.604 35.9066 157.376 35.5306 156.92C35.1626 156.456 34.9786 155.82 34.9786 155.012C34.9786 154.196 35.1666 153.564 35.5426 153.116C35.9186 152.66 36.4306 152.432 37.0786 152.432C37.7426 152.432 38.2586 152.664 38.6266 153.128C39.0026 153.584 39.1906 154.212 39.1906 155.012C39.1906 155.82 39.0026 156.456 38.6266 156.92C38.2586 157.376 37.7426 157.604 37.0786 157.604ZM37.0786 156.86C37.4466 156.86 37.7346 156.708 37.9426 156.404C38.1506 156.1 38.2546 155.636 38.2546 155.012C38.2546 154.396 38.1506 153.94 37.9426 153.644C37.7346 153.34 37.4466 153.188 37.0786 153.188C36.7186 153.188 36.4346 153.336 36.2266 153.632C36.0186 153.928 35.9146 154.388 35.9146 155.012C35.9146 155.644 36.0186 156.112 36.2266 156.416C36.4346 156.712 36.7186 156.86 37.0786 156.86ZM42.9826 161.108C42.3266 161.108 41.8106 160.88 41.4346 160.424C41.0666 159.96 40.8826 159.324 40.8826 158.516C40.8826 157.7 41.0706 157.068 41.4466 156.62C41.8226 156.164 42.3346 155.936 42.9826 155.936C43.6386 155.936 44.1546 156.164 44.5306 156.62C44.9066 157.076 45.0946 157.708 45.0946 158.516C45.0946 159.324 44.9066 159.96 44.5306 160.424C44.1546 160.88 43.6386 161.108 42.9826 161.108ZM42.9826 160.352C43.3506 160.352 43.6386 160.204 43.8466 159.908C44.0546 159.604 44.1586 159.14 44.1586 158.516C44.1586 157.892 44.0546 157.432 43.8466 157.136C43.6386 156.84 43.3506 156.692 42.9826 156.692C42.6226 156.692 42.3386 156.84 42.1306 157.136C41.9226 157.432 41.8186 157.892 41.8186 158.516C41.8186 159.14 41.9226 159.604 42.1306 159.908C42.3386 160.204 42.6226 160.352 42.9826 160.352ZM50.0878 161V155.804H48.9118V154.964H50.3878L50.0878 155.24V154.268C50.0878 153.564 50.2638 153.032 50.6158 152.672C50.9678 152.304 51.4798 152.12 52.1518 152.12C52.3118 152.12 52.4798 152.132 52.6558 152.156C52.8398 152.18 52.9918 152.22 53.1118 152.276V153.164C53.0158 153.124 52.8958 153.092 52.7518 153.068C52.6078 153.044 52.4678 153.032 52.3318 153.032C52.0918 153.032 51.8838 153.08 51.7078 153.176C51.5318 153.272 51.3998 153.416 51.3118 153.608C51.2238 153.792 51.1798 154.036 51.1798 154.34V155.192L51.0118 154.964H52.8478V155.804H51.1798V161H50.0878ZM53.8766 161V156.44C53.8766 156.2 53.8686 155.956 53.8526 155.708C53.8446 155.452 53.8246 155.204 53.7926 154.964H54.8486L54.9806 156.476L54.8006 156.488C54.8806 156.12 55.0166 155.816 55.2086 155.576C55.4086 155.328 55.6446 155.148 55.9166 155.036C56.1966 154.916 56.4846 154.856 56.7806 154.856C56.9086 154.856 57.0166 154.86 57.1046 154.868C57.1926 154.876 57.2806 154.896 57.3686 154.928L57.3446 155.9C57.2246 155.852 57.1126 155.824 57.0086 155.816C56.9126 155.8 56.7926 155.792 56.6486 155.792C56.2966 155.792 55.9926 155.872 55.7366 156.032C55.4886 156.192 55.2966 156.404 55.1606 156.668C55.0326 156.932 54.9686 157.216 54.9686 157.52V161H53.8766ZM60.7919 161.108C60.1999 161.108 59.6879 160.984 59.2559 160.736C58.8239 160.48 58.4879 160.12 58.2479 159.656C58.0079 159.184 57.8879 158.624 57.8879 157.976C57.8879 157.336 58.0079 156.784 58.2479 156.32C58.4879 155.848 58.8239 155.488 59.2559 155.24C59.6879 154.984 60.1999 154.856 60.7919 154.856C61.3839 154.856 61.8959 154.984 62.3279 155.24C62.7679 155.488 63.1039 155.848 63.3359 156.32C63.5759 156.784 63.6959 157.336 63.6959 157.976C63.6959 158.624 63.5759 159.184 63.3359 159.656C63.1039 160.12 62.7679 160.48 62.3279 160.736C61.8959 160.984 61.3839 161.108 60.7919 161.108ZM60.7919 160.244C61.3359 160.244 61.7719 160.052 62.0999 159.668C62.4279 159.284 62.5919 158.72 62.5919 157.976C62.5919 157.232 62.4279 156.672 62.0999 156.296C61.7719 155.92 61.3359 155.732 60.7919 155.732C60.2399 155.732 59.7999 155.92 59.4719 156.296C59.1519 156.672 58.9919 157.232 58.9919 157.976C58.9919 158.72 59.1519 159.284 59.4719 159.668C59.7999 160.052 60.2399 160.244 60.7919 160.244ZM65.162 161V156.392C65.162 156.16 65.154 155.924 65.138 155.684C65.122 155.444 65.098 155.204 65.066 154.964H66.122L66.242 156.26H66.098C66.258 155.812 66.514 155.468 66.866 155.228C67.218 154.98 67.638 154.856 68.126 154.856C68.622 154.856 69.03 154.976 69.35 155.216C69.67 155.448 69.886 155.816 69.998 156.32H69.818C69.97 155.872 70.238 155.516 70.622 155.252C71.006 154.988 71.454 154.856 71.966 154.856C72.63 154.856 73.13 155.052 73.466 155.444C73.802 155.828 73.97 156.428 73.97 157.244V161H72.878V157.304C72.878 156.752 72.782 156.356 72.59 156.116C72.398 155.868 72.094 155.744 71.678 155.744C71.19 155.744 70.806 155.912 70.526 156.248C70.246 156.576 70.106 157.024 70.106 157.592V161H69.014V157.304C69.014 156.752 68.918 156.356 68.726 156.116C68.542 155.868 68.238 155.744 67.814 155.744C67.326 155.744 66.942 155.912 66.662 156.248C66.39 156.576 66.254 157.024 66.254 157.592V161H65.162ZM78.7158 163.724L78.4638 162.836C78.8398 162.748 79.1518 162.644 79.3998 162.524C79.6478 162.412 79.8558 162.264 80.0238 162.08C80.1918 161.896 80.3398 161.664 80.4678 161.384L80.7678 160.664L80.7438 161.12L78.1158 154.964H79.2918L81.3918 160.136H81.0798L83.1798 154.964H84.3078L81.5358 161.468C81.3678 161.86 81.1838 162.188 80.9838 162.452C80.7918 162.716 80.5798 162.932 80.3478 163.1C80.1238 163.268 79.8758 163.4 79.6038 163.496C79.3318 163.592 79.0358 163.668 78.7158 163.724ZM87.9842 161.108C87.0242 161.108 86.2642 160.832 85.7042 160.28C85.1522 159.728 84.8762 158.968 84.8762 158C84.8762 157.36 84.9962 156.808 85.2362 156.344C85.4842 155.872 85.8242 155.508 86.2562 155.252C86.6882 154.988 87.1922 154.856 87.7682 154.856C88.3202 154.856 88.7882 154.976 89.1722 155.216C89.5562 155.448 89.8482 155.78 90.0482 156.212C90.2482 156.644 90.3482 157.156 90.3482 157.748V158.108H85.7282V157.46H89.6042L89.4002 157.616C89.4002 156.992 89.2602 156.508 88.9802 156.164C88.7082 155.82 88.3042 155.648 87.7682 155.648C87.1842 155.648 86.7322 155.852 86.4122 156.26C86.0922 156.66 85.9322 157.208 85.9322 157.904V158.012C85.9322 158.748 86.1122 159.304 86.4722 159.68C86.8402 160.056 87.3482 160.244 87.9962 160.244C88.3562 160.244 88.6922 160.192 89.0042 160.088C89.3162 159.984 89.6162 159.812 89.9042 159.572L90.2642 160.328C89.9922 160.576 89.6522 160.768 89.2442 160.904C88.8442 161.04 88.4242 161.108 87.9842 161.108ZM93.8153 161.108C93.3273 161.108 92.8713 161.044 92.4473 160.916C92.0313 160.788 91.6873 160.604 91.4153 160.364L91.7633 159.608C92.0593 159.832 92.3833 160.004 92.7353 160.124C93.0953 160.236 93.4633 160.292 93.8393 160.292C94.2953 160.292 94.6393 160.208 94.8713 160.04C95.1113 159.872 95.2313 159.648 95.2313 159.368C95.2313 159.144 95.1553 158.964 95.0033 158.828C94.8513 158.692 94.6113 158.592 94.2833 158.528L93.1433 158.3C92.6313 158.18 92.2433 157.988 91.9793 157.724C91.7233 157.452 91.5953 157.104 91.5953 156.68C91.5953 156.328 91.6913 156.016 91.8833 155.744C92.0753 155.464 92.3473 155.248 92.6993 155.096C93.0593 154.936 93.4793 154.856 93.9593 154.856C94.3993 154.856 94.8073 154.92 95.1833 155.048C95.5673 155.176 95.8833 155.364 96.1313 155.612L95.7713 156.344C95.5233 156.128 95.2433 155.964 94.9313 155.852C94.6273 155.732 94.3153 155.672 93.9953 155.672C93.5313 155.672 93.1873 155.764 92.9633 155.948C92.7393 156.124 92.6273 156.356 92.6273 156.644C92.6273 156.86 92.6953 157.04 92.8313 157.184C92.9673 157.32 93.1873 157.424 93.4913 157.496L94.6313 157.724C95.1673 157.836 95.5713 158.02 95.8433 158.276C96.1153 158.532 96.2513 158.872 96.2513 159.296C96.2513 159.672 96.1473 159.996 95.9393 160.268C95.7393 160.54 95.4553 160.748 95.0873 160.892C94.7273 161.036 94.3033 161.108 93.8153 161.108ZM99.9375 161.108C99.3055 161.108 98.8255 160.936 98.4975 160.592C98.1775 160.24 98.0175 159.712 98.0175 159.008V155.804H96.8415V154.964H98.0175V153.344L99.1095 153.044V154.964H100.814V155.804H99.1095V158.912C99.1095 159.376 99.1895 159.708 99.3495 159.908C99.5175 160.1 99.7575 160.196 100.07 160.196C100.23 160.196 100.366 160.184 100.478 160.16C100.598 160.128 100.706 160.092 100.802 160.052V160.952C100.682 161 100.542 161.036 100.382 161.06C100.23 161.092 100.082 161.108 99.9375 161.108ZM104.648 161.108C103.688 161.108 102.928 160.832 102.368 160.28C101.816 159.728 101.54 158.968 101.54 158C101.54 157.36 101.66 156.808 101.9 156.344C102.148 155.872 102.488 155.508 102.92 155.252C103.352 154.988 103.856 154.856 104.432 154.856C104.984 154.856 105.452 154.976 105.836 155.216C106.22 155.448 106.512 155.78 106.712 156.212C106.912 156.644 107.012 157.156 107.012 157.748V158.108H102.392V157.46H106.268L106.064 157.616C106.064 156.992 105.924 156.508 105.644 156.164C105.372 155.82 104.968 155.648 104.432 155.648C103.848 155.648 103.396 155.852 103.076 156.26C102.756 156.66 102.596 157.208 102.596 157.904V158.012C102.596 158.748 102.776 159.304 103.136 159.68C103.504 160.056 104.012 160.244 104.66 160.244C105.02 160.244 105.356 160.192 105.668 160.088C105.98 159.984 106.28 159.812 106.568 159.572L106.928 160.328C106.656 160.576 106.316 160.768 105.908 160.904C105.508 161.04 105.088 161.108 104.648 161.108ZM108.427 161V156.44C108.427 156.2 108.419 155.956 108.403 155.708C108.395 155.452 108.375 155.204 108.343 154.964H109.399L109.531 156.476L109.351 156.488C109.431 156.12 109.567 155.816 109.759 155.576C109.959 155.328 110.195 155.148 110.467 155.036C110.747 154.916 111.035 154.856 111.331 154.856C111.459 154.856 111.567 154.86 111.655 154.868C111.743 154.876 111.831 154.896 111.919 154.928L111.895 155.9C111.775 155.852 111.663 155.824 111.559 155.816C111.463 155.8 111.343 155.792 111.199 155.792C110.847 155.792 110.543 155.872 110.287 156.032C110.039 156.192 109.847 156.404 109.711 156.668C109.583 156.932 109.519 157.216 109.519 157.52V161H108.427ZM115.103 161.108C114.575 161.108 114.111 160.984 113.711 160.736C113.311 160.488 112.999 160.128 112.775 159.656C112.551 159.184 112.439 158.624 112.439 157.976C112.439 157.328 112.551 156.772 112.775 156.308C112.999 155.836 113.311 155.476 113.711 155.228C114.111 154.98 114.575 154.856 115.103 154.856C115.631 154.856 116.091 154.988 116.483 155.252C116.883 155.516 117.151 155.88 117.287 156.344H117.143V152.168H118.235V161H117.155V159.596H117.287C117.159 160.068 116.895 160.44 116.495 160.712C116.103 160.976 115.639 161.108 115.103 161.108ZM115.355 160.244C115.899 160.244 116.335 160.052 116.663 159.668C116.999 159.284 117.167 158.72 117.167 157.976C117.167 157.232 116.999 156.672 116.663 156.296C116.335 155.92 115.899 155.732 115.355 155.732C114.811 155.732 114.371 155.92 114.035 156.296C113.707 156.672 113.543 157.232 113.543 157.976C113.543 158.72 113.707 159.284 114.035 159.668C114.371 160.052 114.811 160.244 115.355 160.244ZM122.368 161.108C121.84 161.108 121.376 160.984 120.976 160.736C120.576 160.488 120.264 160.128 120.04 159.656C119.816 159.184 119.704 158.624 119.704 157.976C119.704 157.328 119.816 156.772 120.04 156.308C120.264 155.836 120.576 155.476 120.976 155.228C121.376 154.98 121.84 154.856 122.368 154.856C122.904 154.856 123.368 154.992 123.76 155.264C124.16 155.528 124.424 155.892 124.552 156.356H124.408L124.54 154.964H125.596C125.572 155.204 125.548 155.444 125.524 155.684C125.508 155.924 125.5 156.16 125.5 156.392V161H124.408V159.62H124.54C124.412 160.076 124.148 160.44 123.748 160.712C123.356 160.976 122.896 161.108 122.368 161.108ZM122.62 160.244C123.164 160.244 123.6 160.052 123.928 159.668C124.256 159.284 124.42 158.72 124.42 157.976C124.42 157.232 124.256 156.672 123.928 156.296C123.6 155.92 123.164 155.732 122.62 155.732C122.076 155.732 121.636 155.92 121.3 156.296C120.972 156.672 120.808 157.232 120.808 157.976C120.808 158.72 120.972 159.284 121.3 159.668C121.628 160.052 122.068 160.244 122.62 160.244ZM127.067 163.724L126.815 162.836C127.191 162.748 127.503 162.644 127.751 162.524C127.999 162.412 128.207 162.264 128.375 162.08C128.543 161.896 128.691 161.664 128.819 161.384L129.119 160.664L129.095 161.12L126.467 154.964H127.643L129.743 160.136H129.431L131.531 154.964H132.659L129.887 161.468C129.719 161.86 129.535 162.188 129.335 162.452C129.143 162.716 128.931 162.932 128.699 163.1C128.475 163.268 128.227 163.4 127.955 163.496C127.683 163.592 127.387 163.668 127.067 163.724Z"
                  fill="#FF947A"
                />
                <path
                  d="M24.08 134V123.984H20.176V122.72H29.504V123.984H25.584V134H24.08ZM33.0924 134.144C32.303 134.144 31.6204 133.979 31.0444 133.648C30.4684 133.307 30.0204 132.827 29.7004 132.208C29.3804 131.579 29.2204 130.832 29.2204 129.968C29.2204 129.115 29.3804 128.379 29.7004 127.76C30.0204 127.131 30.4684 126.651 31.0444 126.32C31.6204 125.979 32.303 125.808 33.0924 125.808C33.8817 125.808 34.5644 125.979 35.1404 126.32C35.727 126.651 36.175 127.131 36.4844 127.76C36.8044 128.379 36.9644 129.115 36.9644 129.968C36.9644 130.832 36.8044 131.579 36.4844 132.208C36.175 132.827 35.727 133.307 35.1404 133.648C34.5644 133.979 33.8817 134.144 33.0924 134.144ZM33.0924 132.992C33.8177 132.992 34.399 132.736 34.8364 132.224C35.2737 131.712 35.4924 130.96 35.4924 129.968C35.4924 128.976 35.2737 128.229 34.8364 127.728C34.399 127.227 33.8177 126.976 33.0924 126.976C32.3564 126.976 31.7697 127.227 31.3324 127.728C30.9057 128.229 30.6924 128.976 30.6924 129.968C30.6924 130.96 30.9057 131.712 31.3324 132.224C31.7697 132.736 32.3564 132.992 33.0924 132.992ZM41.849 134.144C41.0063 134.144 40.3663 133.915 39.929 133.456C39.5023 132.987 39.289 132.283 39.289 131.344V127.072H37.721V125.952H39.289V123.792L40.745 123.392V125.952H43.017V127.072H40.745V131.216C40.745 131.835 40.8517 132.277 41.065 132.544C41.289 132.8 41.609 132.928 42.025 132.928C42.2383 132.928 42.4197 132.912 42.569 132.88C42.729 132.837 42.873 132.789 43.001 132.736V133.936C42.841 134 42.6543 134.048 42.441 134.08C42.2383 134.123 42.041 134.144 41.849 134.144ZM47.6161 134.144C46.9121 134.144 46.2935 133.979 45.7601 133.648C45.2268 133.317 44.8108 132.837 44.5121 132.208C44.2135 131.579 44.0641 130.832 44.0641 129.968C44.0641 129.104 44.2135 128.363 44.5121 127.744C44.8108 127.115 45.2268 126.635 45.7601 126.304C46.2935 125.973 46.9121 125.808 47.6161 125.808C48.3308 125.808 48.9495 125.989 49.4721 126.352C50.0055 126.704 50.3575 127.189 50.5281 127.808H50.3361L50.5121 125.952H51.9201C51.8881 126.272 51.8561 126.592 51.8241 126.912C51.8028 127.232 51.7921 127.547 51.7921 127.856V134H50.3361V132.16H50.5121C50.3415 132.768 49.9895 133.253 49.4561 133.616C48.9335 133.968 48.3201 134.144 47.6161 134.144ZM47.9521 132.992C48.6775 132.992 49.2588 132.736 49.6961 132.224C50.1335 131.712 50.3521 130.96 50.3521 129.968C50.3521 128.976 50.1335 128.229 49.6961 127.728C49.2588 127.227 48.6775 126.976 47.9521 126.976C47.2268 126.976 46.6401 127.227 46.1921 127.728C45.7548 128.229 45.5361 128.976 45.5361 129.968C45.5361 130.96 45.7548 131.712 46.1921 132.224C46.6295 132.736 47.2161 132.992 47.9521 132.992ZM54.2316 134V122.224H55.6876V134H54.2316ZM67.733 134.144C66.4957 134.144 65.4557 133.915 64.613 133.456C63.7703 132.987 63.1357 132.32 62.709 131.456C62.293 130.592 62.085 129.563 62.085 128.368C62.085 127.173 62.309 126.144 62.757 125.28C63.205 124.416 63.845 123.749 64.677 123.28C65.5197 122.811 66.5277 122.576 67.701 122.576C68.5223 122.576 69.237 122.693 69.845 122.928C70.453 123.163 70.997 123.504 71.477 123.952L70.917 125.136C70.5757 124.837 70.245 124.597 69.925 124.416C69.605 124.235 69.269 124.107 68.917 124.032C68.5757 123.947 68.1703 123.904 67.701 123.904C66.389 123.904 65.3863 124.293 64.693 125.072C63.9997 125.851 63.653 126.955 63.653 128.384C63.653 129.835 63.989 130.939 64.661 131.696C65.333 132.453 66.3783 132.832 67.797 132.832C68.2983 132.832 68.789 132.784 69.269 132.688C69.749 132.592 70.2077 132.453 70.645 132.272L70.341 133.024V129.2H67.509V128.048H71.621V133.328C71.141 133.573 70.549 133.771 69.845 133.92C69.141 134.069 68.437 134.144 67.733 134.144ZM77.1474 134.144C76.4434 134.144 75.8247 133.979 75.2914 133.648C74.758 133.317 74.342 132.837 74.0434 132.208C73.7447 131.579 73.5954 130.832 73.5954 129.968C73.5954 129.104 73.7447 128.363 74.0434 127.744C74.342 127.115 74.758 126.635 75.2914 126.304C75.8247 125.973 76.4434 125.808 77.1474 125.808C77.862 125.808 78.4807 125.989 79.0034 126.352C79.5367 126.704 79.8887 127.189 80.0594 127.808H79.8674L80.0434 125.952H81.4514C81.4194 126.272 81.3874 126.592 81.3554 126.912C81.334 127.232 81.3234 127.547 81.3234 127.856V134H79.8674V132.16H80.0434C79.8727 132.768 79.5207 133.253 78.9874 133.616C78.4647 133.968 77.8514 134.144 77.1474 134.144ZM77.4834 132.992C78.2087 132.992 78.79 132.736 79.2274 132.224C79.6647 131.712 79.8834 130.96 79.8834 129.968C79.8834 128.976 79.6647 128.229 79.2274 127.728C78.79 127.227 78.2087 126.976 77.4834 126.976C76.758 126.976 76.1714 127.227 75.7234 127.728C75.286 128.229 75.0674 128.976 75.0674 129.968C75.0674 130.96 75.286 131.712 75.7234 132.224C76.1607 132.736 76.7474 132.992 77.4834 132.992ZM83.7629 134V127.856C83.7629 127.547 83.7522 127.232 83.7309 126.912C83.7095 126.592 83.6775 126.272 83.6349 125.952H85.0429L85.2029 127.68H85.0109C85.2242 127.083 85.5655 126.624 86.0349 126.304C86.5042 125.973 87.0642 125.808 87.7149 125.808C88.3762 125.808 88.9202 125.968 89.3469 126.288C89.7735 126.597 90.0615 127.088 90.2109 127.76H89.9709C90.1735 127.163 90.5309 126.688 91.0429 126.336C91.5549 125.984 92.1522 125.808 92.8349 125.808C93.7202 125.808 94.3869 126.069 94.8349 126.592C95.2829 127.104 95.5069 127.904 95.5069 128.992V134H94.0509V129.072C94.0509 128.336 93.9229 127.808 93.6669 127.488C93.4109 127.157 93.0055 126.992 92.4509 126.992C91.8002 126.992 91.2882 127.216 90.9149 127.664C90.5415 128.101 90.3549 128.699 90.3549 129.456V134H88.8989V129.072C88.8989 128.336 88.7709 127.808 88.5149 127.488C88.2695 127.157 87.8642 126.992 87.2989 126.992C86.6482 126.992 86.1362 127.216 85.7629 127.664C85.4002 128.101 85.2189 128.699 85.2189 129.456V134H83.7629ZM101.552 134.144C100.272 134.144 99.2585 133.776 98.5119 133.04C97.7759 132.304 97.4079 131.291 97.4079 130C97.4079 129.147 97.5679 128.411 97.8879 127.792C98.2185 127.163 98.6719 126.677 99.2479 126.336C99.8239 125.984 100.496 125.808 101.264 125.808C102 125.808 102.624 125.968 103.136 126.288C103.648 126.597 104.037 127.04 104.304 127.616C104.571 128.192 104.704 128.875 104.704 129.664V130.144H98.5439V129.28H103.712L103.44 129.488C103.44 128.656 103.253 128.011 102.88 127.552C102.517 127.093 101.979 126.864 101.264 126.864C100.485 126.864 99.8825 127.136 99.4559 127.68C99.0292 128.213 98.8159 128.944 98.8159 129.872V130.016C98.8159 130.997 99.0559 131.739 99.5359 132.24C100.027 132.741 100.704 132.992 101.568 132.992C102.048 132.992 102.496 132.923 102.912 132.784C103.328 132.645 103.728 132.416 104.112 132.096L104.592 133.104C104.229 133.435 103.776 133.691 103.232 133.872C102.699 134.053 102.139 134.144 101.552 134.144ZM109.327 134.144C108.676 134.144 108.068 134.059 107.503 133.888C106.948 133.717 106.489 133.472 106.127 133.152L106.591 132.144C106.985 132.443 107.417 132.672 107.887 132.832C108.367 132.981 108.857 133.056 109.359 133.056C109.967 133.056 110.425 132.944 110.735 132.72C111.055 132.496 111.215 132.197 111.215 131.824C111.215 131.525 111.113 131.285 110.911 131.104C110.708 130.923 110.388 130.789 109.951 130.704L108.431 130.4C107.748 130.24 107.231 129.984 106.879 129.632C106.537 129.269 106.367 128.805 106.367 128.24C106.367 127.771 106.495 127.355 106.751 126.992C107.007 126.619 107.369 126.331 107.839 126.128C108.319 125.915 108.879 125.808 109.519 125.808C110.105 125.808 110.649 125.893 111.151 126.064C111.663 126.235 112.084 126.485 112.415 126.816L111.935 127.792C111.604 127.504 111.231 127.285 110.815 127.136C110.409 126.976 109.993 126.896 109.567 126.896C108.948 126.896 108.489 127.019 108.191 127.264C107.892 127.499 107.743 127.808 107.743 128.192C107.743 128.48 107.833 128.72 108.015 128.912C108.196 129.093 108.489 129.232 108.895 129.328L110.415 129.632C111.129 129.781 111.668 130.027 112.031 130.368C112.393 130.709 112.575 131.163 112.575 131.728C112.575 132.229 112.436 132.661 112.159 133.024C111.892 133.387 111.513 133.664 111.023 133.856C110.543 134.048 109.977 134.144 109.327 134.144Z"
                  fill="#425166"
                />
                <path
                  d="M27.032 101.216C25.88 101.216 24.776 101.048 23.72 100.712C22.664 100.36 21.784 99.864 21.08 99.224L21.944 97.328C22.728 97.936 23.528 98.384 24.344 98.672C25.16 98.96 26.032 99.104 26.96 99.104C28.144 99.104 29.04 98.856 29.648 98.36C30.272 97.864 30.584 97.152 30.584 96.224C30.584 95.312 30.272 94.624 29.648 94.16C29.04 93.68 28.136 93.44 26.936 93.44H24.32V91.424H26.744C27.768 91.424 28.584 91.168 29.192 90.656C29.8 90.128 30.104 89.416 30.104 88.52C30.104 87.704 29.824 87.08 29.264 86.648C28.704 86.2 27.904 85.976 26.864 85.976C25.104 85.976 23.56 86.592 22.232 87.824L21.392 85.928C22.048 85.272 22.88 84.768 23.888 84.416C24.896 84.048 25.952 83.864 27.056 83.864C28.752 83.864 30.088 84.256 31.064 85.04C32.04 85.808 32.528 86.88 32.528 88.256C32.528 89.296 32.232 90.184 31.64 90.92C31.064 91.656 30.272 92.144 29.264 92.384V92.12C30.464 92.312 31.384 92.792 32.024 93.56C32.68 94.312 33.008 95.256 33.008 96.392C33.008 97.896 32.472 99.08 31.4 99.944C30.344 100.792 28.888 101.216 27.032 101.216ZM41.8306 101.216C41.0946 101.216 40.3666 101.136 39.6466 100.976C38.9266 100.816 38.2546 100.592 37.6306 100.304C37.0066 100 36.4626 99.64 35.9986 99.224L36.8626 97.328C37.6306 97.92 38.4146 98.368 39.2146 98.672C40.0306 98.96 40.8866 99.104 41.7826 99.104C42.9186 99.104 43.8066 98.808 44.4466 98.216C45.1026 97.624 45.4306 96.832 45.4306 95.84C45.4306 94.816 45.1186 93.992 44.4946 93.368C43.8866 92.728 43.0386 92.408 41.9506 92.408C41.1986 92.408 40.5106 92.56 39.8866 92.864C39.2786 93.168 38.7426 93.632 38.2786 94.256H36.5506V84.08H46.7986V86.168H38.9266V92.264H38.3026C38.7346 91.656 39.3106 91.184 40.0306 90.848C40.7666 90.512 41.5906 90.344 42.5026 90.344C43.5906 90.344 44.5346 90.568 45.3346 91.016C46.1346 91.464 46.7506 92.088 47.1826 92.888C47.6306 93.688 47.8546 94.632 47.8546 95.72C47.8546 96.808 47.6066 97.768 47.1106 98.6C46.6306 99.416 45.9346 100.056 45.0226 100.52C44.1266 100.984 43.0626 101.216 41.8306 101.216ZM55.9813 101.216C54.0293 101.216 52.5093 100.8 51.4213 99.968C50.3333 99.136 49.7893 97.976 49.7893 96.488C49.7893 95.304 50.1493 94.328 50.8693 93.56C51.5893 92.776 52.5333 92.304 53.7013 92.144V92.576C52.6453 92.352 51.7973 91.864 51.1573 91.112C50.5333 90.36 50.2213 89.448 50.2213 88.376C50.2213 86.968 50.7333 85.864 51.7573 85.064C52.7813 84.264 54.1893 83.864 55.9813 83.864C57.7893 83.864 59.2053 84.264 60.2293 85.064C61.2533 85.864 61.7653 86.968 61.7653 88.376C61.7653 89.448 61.4613 90.368 60.8533 91.136C60.2613 91.888 59.4453 92.36 58.4053 92.552V92.144C59.5573 92.304 60.4773 92.776 61.1653 93.56C61.8533 94.328 62.1973 95.304 62.1973 96.488C62.1973 97.976 61.6533 99.136 60.5653 99.968C59.4773 100.8 57.9493 101.216 55.9813 101.216ZM55.9813 99.248C57.2773 99.248 58.2453 99.008 58.8853 98.528C59.5253 98.032 59.8453 97.296 59.8453 96.32C59.8453 95.344 59.5253 94.616 58.8853 94.136C58.2453 93.656 57.2773 93.416 55.9813 93.416C54.6853 93.416 53.7173 93.656 53.0773 94.136C52.4373 94.616 52.1173 95.344 52.1173 96.32C52.1173 97.296 52.4373 98.032 53.0773 98.528C53.7333 99.008 54.7013 99.248 55.9813 99.248ZM55.9813 91.448C57.1013 91.448 57.9493 91.2 58.5253 90.704C59.1173 90.192 59.4133 89.496 59.4133 88.616C59.4133 87.752 59.1173 87.072 58.5253 86.576C57.9493 86.08 57.1013 85.832 55.9813 85.832C54.8773 85.832 54.0293 86.08 53.4373 86.576C52.8453 87.072 52.5493 87.752 52.5493 88.616C52.5493 89.496 52.8453 90.192 53.4373 90.704C54.0293 91.2 54.8773 91.448 55.9813 91.448Z"
                  fill="#FF947A"
                />
                <circle cx="40" cy="40" r="20" fill="#FF947A" />
              </svg>