<svg
                width="180"
                height="184"
                viewBox="0 0 180 184"
                fill="none"
                xmlns="http://www.w3.org/2000/svg"
              >
                <rect width="180" height="184" rx="16" fill="#F3E8FF" />
                <path
                  d="M23.6 161.108C22.632 161.108 21.888 160.736 21.368 159.992C20.848 159.24 20.588 158.164 20.588 156.764C20.588 155.34 20.848 154.264 21.368 153.536C21.888 152.8 22.632 152.432 23.6 152.432C24.576 152.432 25.32 152.8 25.832 153.536C26.352 154.264 26.612 155.336 26.612 156.752C26.612 158.16 26.352 159.24 25.832 159.992C25.312 160.736 24.568 161.108 23.6 161.108ZM23.6 160.16C24.24 160.16 24.716 159.884 25.028 159.332C25.348 158.78 25.508 157.92 25.508 156.752C25.508 155.584 25.348 154.732 25.028 154.196C24.716 153.652 24.24 153.38 23.6 153.38C22.968 153.38 22.492 153.652 22.172 154.196C21.852 154.732 21.692 155.584 21.692 156.752C21.692 157.92 21.852 158.78 22.172 159.332C22.492 159.884 22.968 160.16 23.6 160.16ZM28.4793 162.428L27.9873 162.044C28.2113 161.812 28.3633 161.592 28.4433 161.384C28.5233 161.184 28.5633 160.976 28.5633 160.76L28.8033 161H27.9273V159.668H29.2593V160.592C29.2593 160.936 29.2033 161.252 29.0913 161.54C28.9793 161.836 28.7753 162.132 28.4793 162.428ZM33.7401 161.108C33.3721 161.108 33.0081 161.068 32.6481 160.988C32.2961 160.908 31.9641 160.796 31.6521 160.652C31.3401 160.5 31.0681 160.316 30.8361 160.1L31.2321 159.236C31.6241 159.548 32.0241 159.78 32.4321 159.932C32.8401 160.076 33.2681 160.148 33.7161 160.148C34.3081 160.148 34.7721 159.992 35.1081 159.68C35.4441 159.368 35.6121 158.952 35.6121 158.432C35.6121 157.896 35.4521 157.464 35.1321 157.136C34.8121 156.8 34.3681 156.632 33.8001 156.632C33.4081 156.632 33.0521 156.712 32.7321 156.872C32.4201 157.024 32.1441 157.268 31.9041 157.604H31.1121V152.54H36.1881V153.488H32.1921V156.692H31.9041C32.1201 156.372 32.4121 156.124 32.7801 155.948C33.1561 155.772 33.5761 155.684 34.0401 155.684C34.5841 155.684 35.0521 155.796 35.4441 156.02C35.8441 156.244 36.1521 156.56 36.3681 156.968C36.5921 157.368 36.7041 157.836 36.7041 158.372C36.7041 158.908 36.5841 159.384 36.3441 159.8C36.1041 160.208 35.7601 160.528 35.3121 160.76C34.8721 160.992 34.3481 161.108 33.7401 161.108ZM40.8034 161H39.8434L44.8594 152.54H45.8314L40.8034 161ZM39.8794 157.604C39.2234 157.604 38.7074 157.376 38.3314 156.92C37.9634 156.456 37.7794 155.82 37.7794 155.012C37.7794 154.196 37.9674 153.564 38.3434 153.116C38.7194 152.66 39.2314 152.432 39.8794 152.432C40.5434 152.432 41.0594 152.664 41.4274 153.128C41.8034 153.584 41.9914 154.212 41.9914 155.012C41.9914 155.82 41.8034 156.456 41.4274 156.92C41.0594 157.376 40.5434 157.604 39.8794 157.604ZM39.8794 156.86C40.2474 156.86 40.5354 156.708 40.7434 156.404C40.9514 156.1 41.0554 155.636 41.0554 155.012C41.0554 154.396 40.9514 153.94 40.7434 153.644C40.5354 153.34 40.2474 153.188 39.8794 153.188C39.5194 153.188 39.2354 153.336 39.0274 153.632C38.8194 153.928 38.7154 154.388 38.7154 155.012C38.7154 155.644 38.8194 156.112 39.0274 156.416C39.2354 156.712 39.5194 156.86 39.8794 156.86ZM45.7834 161.108C45.1274 161.108 44.6114 160.88 44.2354 160.424C43.8674 159.96 43.6834 159.324 43.6834 158.516C43.6834 157.7 43.8714 157.068 44.2474 156.62C44.6234 156.164 45.1354 155.936 45.7834 155.936C46.4394 155.936 46.9554 156.164 47.3314 156.62C47.7074 157.076 47.8954 157.708 47.8954 158.516C47.8954 159.324 47.7074 159.96 47.3314 160.424C46.9554 160.88 46.4394 161.108 45.7834 161.108ZM45.7834 160.352C46.1514 160.352 46.4394 160.204 46.6474 159.908C46.8554 159.604 46.9594 159.14 46.9594 158.516C46.9594 157.892 46.8554 157.432 46.6474 157.136C46.4394 156.84 46.1514 156.692 45.7834 156.692C45.4234 156.692 45.1394 156.84 44.9314 157.136C44.7234 157.432 44.6194 157.892 44.6194 158.516C44.6194 159.14 44.7234 159.604 44.9314 159.908C45.1394 160.204 45.4234 160.352 45.7834 160.352ZM52.8886 161V155.804H51.7126V154.964H53.1886L52.8886 155.24V154.268C52.8886 153.564 53.0646 153.032 53.4166 152.672C53.7686 152.304 54.2806 152.12 54.9526 152.12C55.1126 152.12 55.2806 152.132 55.4566 152.156C55.6406 152.18 55.7926 152.22 55.9126 152.276V153.164C55.8166 153.124 55.6966 153.092 55.5526 153.068C55.4086 153.044 55.2686 153.032 55.1326 153.032C54.8926 153.032 54.6846 153.08 54.5086 153.176C54.3326 153.272 54.2006 153.416 54.1126 153.608C54.0246 153.792 53.9806 154.036 53.9806 154.34V155.192L53.8126 154.964H55.6486V155.804H53.9806V161H52.8886ZM56.6773 161V156.44C56.6773 156.2 56.6693 155.956 56.6533 155.708C56.6453 155.452 56.6253 155.204 56.5933 154.964H57.6493L57.7813 156.476L57.6013 156.488C57.6813 156.12 57.8173 155.816 58.0093 155.576C58.2093 155.328 58.4453 155.148 58.7173 155.036C58.9973 154.916 59.2853 154.856 59.5813 154.856C59.7093 154.856 59.8173 154.86 59.9053 154.868C59.9933 154.876 60.0813 154.896 60.1693 154.928L60.1453 155.9C60.0253 155.852 59.9133 155.824 59.8093 155.816C59.7133 155.8 59.5933 155.792 59.4493 155.792C59.0973 155.792 58.7933 155.872 58.5373 156.032C58.2893 156.192 58.0973 156.404 57.9613 156.668C57.8333 156.932 57.7693 157.216 57.7693 157.52V161H56.6773ZM63.5927 161.108C63.0007 161.108 62.4887 160.984 62.0567 160.736C61.6247 160.48 61.2887 160.12 61.0487 159.656C60.8087 159.184 60.6887 158.624 60.6887 157.976C60.6887 157.336 60.8087 156.784 61.0487 156.32C61.2887 155.848 61.6247 155.488 62.0567 155.24C62.4887 154.984 63.0007 154.856 63.5927 154.856C64.1847 154.856 64.6967 154.984 65.1287 155.24C65.5687 155.488 65.9047 155.848 66.1367 156.32C66.3767 156.784 66.4967 157.336 66.4967 157.976C66.4967 158.624 66.3767 159.184 66.1367 159.656C65.9047 160.12 65.5687 160.48 65.1287 160.736C64.6967 160.984 64.1847 161.108 63.5927 161.108ZM63.5927 160.244C64.1367 160.244 64.5727 160.052 64.9007 159.668C65.2287 159.284 65.3927 158.72 65.3927 157.976C65.3927 157.232 65.2287 156.672 64.9007 156.296C64.5727 155.92 64.1367 155.732 63.5927 155.732C63.0407 155.732 62.6007 155.92 62.2727 156.296C61.9527 156.672 61.7927 157.232 61.7927 157.976C61.7927 158.72 61.9527 159.284 62.2727 159.668C62.6007 160.052 63.0407 160.244 63.5927 160.244ZM67.9628 161V156.392C67.9628 156.16 67.9548 155.924 67.9388 155.684C67.9228 155.444 67.8988 155.204 67.8668 154.964H68.9228L69.0428 156.26H68.8988C69.0588 155.812 69.3148 155.468 69.6668 155.228C70.0188 154.98 70.4388 154.856 70.9268 154.856C71.4228 154.856 71.8308 154.976 72.1508 155.216C72.4708 155.448 72.6868 155.816 72.7988 156.32H72.6188C72.7708 155.872 73.0388 155.516 73.4228 155.252C73.8068 154.988 74.2548 154.856 74.7668 154.856C75.4308 154.856 75.9308 155.052 76.2668 155.444C76.6028 155.828 76.7708 156.428 76.7708 157.244V161H75.6788V157.304C75.6788 156.752 75.5828 156.356 75.3908 156.116C75.1988 155.868 74.8948 155.744 74.4788 155.744C73.9908 155.744 73.6068 155.912 73.3268 156.248C73.0468 156.576 72.9068 157.024 72.9068 157.592V161H71.8148V157.304C71.8148 156.752 71.7188 156.356 71.5268 156.116C71.3428 155.868 71.0388 155.744 70.6148 155.744C70.1268 155.744 69.7428 155.912 69.4628 156.248C69.1908 156.576 69.0548 157.024 69.0548 157.592V161H67.9628ZM81.5166 163.724L81.2646 162.836C81.6406 162.748 81.9526 162.644 82.2006 162.524C82.4486 162.412 82.6566 162.264 82.8246 162.08C82.9926 161.896 83.1406 161.664 83.2686 161.384L83.5686 160.664L83.5446 161.12L80.9166 154.964H82.0926L84.1926 160.136H83.8806L85.9806 154.964H87.1086L84.3366 161.468C84.1686 161.86 83.9846 162.188 83.7846 162.452C83.5926 162.716 83.3806 162.932 83.1486 163.1C82.9246 163.268 82.6766 163.4 82.4046 163.496C82.1326 163.592 81.8366 163.668 81.5166 163.724ZM90.785 161.108C89.825 161.108 89.065 160.832 88.505 160.28C87.953 159.728 87.677 158.968 87.677 158C87.677 157.36 87.797 156.808 88.037 156.344C88.285 155.872 88.625 155.508 89.057 155.252C89.489 154.988 89.993 154.856 90.569 154.856C91.121 154.856 91.589 154.976 91.973 155.216C92.357 155.448 92.649 155.78 92.849 156.212C93.049 156.644 93.149 157.156 93.149 157.748V158.108H88.529V157.46H92.405L92.201 157.616C92.201 156.992 92.061 156.508 91.781 156.164C91.509 155.82 91.105 155.648 90.569 155.648C89.985 155.648 89.533 155.852 89.213 156.26C88.893 156.66 88.733 157.208 88.733 157.904V158.012C88.733 158.748 88.913 159.304 89.273 159.68C89.641 160.056 90.149 160.244 90.797 160.244C91.157 160.244 91.493 160.192 91.805 160.088C92.117 159.984 92.417 159.812 92.705 159.572L93.065 160.328C92.793 160.576 92.453 160.768 92.045 160.904C91.645 161.04 91.225 161.108 90.785 161.108ZM96.6161 161.108C96.1281 161.108 95.6721 161.044 95.2481 160.916C94.8321 160.788 94.4881 160.604 94.2161 160.364L94.5641 159.608C94.8601 159.832 95.1841 160.004 95.5361 160.124C95.8961 160.236 96.2641 160.292 96.6401 160.292C97.0961 160.292 97.4401 160.208 97.6721 160.04C97.9121 159.872 98.0321 159.648 98.0321 159.368C98.0321 159.144 97.9561 158.964 97.8041 158.828C97.6521 158.692 97.4121 158.592 97.0841 158.528L95.9441 158.3C95.4321 158.18 95.0441 157.988 94.7801 157.724C94.5241 157.452 94.3961 157.104 94.3961 156.68C94.3961 156.328 94.4921 156.016 94.6841 155.744C94.8761 155.464 95.1481 155.248 95.5001 155.096C95.8601 154.936 96.2801 154.856 96.7601 154.856C97.2001 154.856 97.6081 154.92 97.9841 155.048C98.3681 155.176 98.6841 155.364 98.9321 155.612L98.5721 156.344C98.3241 156.128 98.0441 155.964 97.7321 155.852C97.4281 155.732 97.1161 155.672 96.7961 155.672C96.3321 155.672 95.9881 155.764 95.7641 155.948C95.5401 156.124 95.4281 156.356 95.4281 156.644C95.4281 156.86 95.4961 157.04 95.6321 157.184C95.7681 157.32 95.9881 157.424 96.2921 157.496L97.4321 157.724C97.9681 157.836 98.3721 158.02 98.6441 158.276C98.9161 158.532 99.0521 158.872 99.0521 159.296C99.0521 159.672 98.9481 159.996 98.7401 160.268C98.5401 160.54 98.2561 160.748 97.8881 160.892C97.5281 161.036 97.1041 161.108 96.6161 161.108ZM102.738 161.108C102.106 161.108 101.626 160.936 101.298 160.592C100.978 160.24 100.818 159.712 100.818 159.008V155.804H99.6423V154.964H100.818V153.344L101.91 153.044V154.964H103.614V155.804H101.91V158.912C101.91 159.376 101.99 159.708 102.15 159.908C102.318 160.1 102.558 160.196 102.87 160.196C103.03 160.196 103.166 160.184 103.278 160.16C103.398 160.128 103.506 160.092 103.602 160.052V160.952C103.482 161 103.342 161.036 103.182 161.06C103.03 161.092 102.882 161.108 102.738 161.108ZM107.449 161.108C106.489 161.108 105.729 160.832 105.169 160.28C104.617 159.728 104.341 158.968 104.341 158C104.341 157.36 104.461 156.808 104.701 156.344C104.949 155.872 105.289 155.508 105.721 155.252C106.153 154.988 106.657 154.856 107.233 154.856C107.785 154.856 108.253 154.976 108.637 155.216C109.021 155.448 109.313 155.78 109.513 156.212C109.713 156.644 109.813 157.156 109.813 157.748V158.108H105.193V157.46H109.069L108.865 157.616C108.865 156.992 108.725 156.508 108.445 156.164C108.173 155.82 107.769 155.648 107.233 155.648C106.649 155.648 106.197 155.852 105.877 156.26C105.557 156.66 105.397 157.208 105.397 157.904V158.012C105.397 158.748 105.577 159.304 105.937 159.68C106.305 160.056 106.813 160.244 107.461 160.244C107.821 160.244 108.157 160.192 108.469 160.088C108.781 159.984 109.081 159.812 109.369 159.572L109.729 160.328C109.457 160.576 109.117 160.768 108.709 160.904C108.309 161.04 107.889 161.108 107.449 161.108ZM111.228 161V156.44C111.228 156.2 111.22 155.956 111.204 155.708C111.196 155.452 111.176 155.204 111.144 154.964H112.2L112.332 156.476L112.152 156.488C112.232 156.12 112.368 155.816 112.56 155.576C112.76 155.328 112.996 155.148 113.268 155.036C113.548 154.916 113.836 154.856 114.132 154.856C114.26 154.856 114.368 154.86 114.456 154.868C114.544 154.876 114.632 154.896 114.72 154.928L114.696 155.9C114.576 155.852 114.464 155.824 114.36 155.816C114.264 155.8 114.144 155.792 114 155.792C113.648 155.792 113.344 155.872 113.088 156.032C112.84 156.192 112.648 156.404 112.512 156.668C112.384 156.932 112.32 157.216 112.32 157.52V161H111.228ZM117.904 161.108C117.376 161.108 116.912 160.984 116.512 160.736C116.112 160.488 115.8 160.128 115.576 159.656C115.352 159.184 115.24 158.624 115.24 157.976C115.24 157.328 115.352 156.772 115.576 156.308C115.8 155.836 116.112 155.476 116.512 155.228C116.912 154.98 117.376 154.856 117.904 154.856C118.432 154.856 118.892 154.988 119.284 155.252C119.684 155.516 119.952 155.88 120.088 156.344H119.944V152.168H121.036V161H119.956V159.596H120.088C119.96 160.068 119.696 160.44 119.296 160.712C118.904 160.976 118.44 161.108 117.904 161.108ZM118.156 160.244C118.7 160.244 119.136 160.052 119.464 159.668C119.8 159.284 119.968 158.72 119.968 157.976C119.968 157.232 119.8 156.672 119.464 156.296C119.136 155.92 118.7 155.732 118.156 155.732C117.612 155.732 117.172 155.92 116.836 156.296C116.508 156.672 116.344 157.232 116.344 157.976C116.344 158.72 116.508 159.284 116.836 159.668C117.172 160.052 117.612 160.244 118.156 160.244ZM125.169 161.108C124.641 161.108 124.177 160.984 123.777 160.736C123.377 160.488 123.065 160.128 122.841 159.656C122.617 159.184 122.505 158.624 122.505 157.976C122.505 157.328 122.617 156.772 122.841 156.308C123.065 155.836 123.377 155.476 123.777 155.228C124.177 154.98 124.641 154.856 125.169 154.856C125.705 154.856 126.169 154.992 126.561 155.264C126.961 155.528 127.225 155.892 127.353 156.356H127.209L127.341 154.964H128.397C128.373 155.204 128.349 155.444 128.325 155.684C128.309 155.924 128.301 156.16 128.301 156.392V161H127.209V159.62H127.341C127.213 160.076 126.949 160.44 126.549 160.712C126.157 160.976 125.697 161.108 125.169 161.108ZM125.421 160.244C125.965 160.244 126.401 160.052 126.729 159.668C127.057 159.284 127.221 158.72 127.221 157.976C127.221 157.232 127.057 156.672 126.729 156.296C126.401 155.92 125.965 155.732 125.421 155.732C124.877 155.732 124.437 155.92 124.101 156.296C123.773 156.672 123.609 157.232 123.609 157.976C123.609 158.72 123.773 159.284 124.101 159.668C124.429 160.052 124.869 160.244 125.421 160.244ZM129.868 163.724L129.616 162.836C129.992 162.748 130.304 162.644 130.552 162.524C130.8 162.412 131.008 162.264 131.176 162.08C131.344 161.896 131.492 161.664 131.62 161.384L131.92 160.664L131.896 161.12L129.268 154.964H130.444L132.544 160.136H132.232L134.332 154.964H135.46L132.688 161.468C132.52 161.86 132.336 162.188 132.136 162.452C131.944 162.716 131.732 162.932 131.5 163.1C131.276 163.268 131.028 163.4 130.756 163.496C130.484 163.592 130.188 163.668 129.868 163.724Z"
                  fill="#BF83FF"
                />
                <path
                  d="M24.08 134V123.984H20.176V122.72H29.504V123.984H25.584V134H24.08ZM33.0924 134.144C32.303 134.144 31.6204 133.979 31.0444 133.648C30.4684 133.307 30.0204 132.827 29.7004 132.208C29.3804 131.579 29.2204 130.832 29.2204 129.968C29.2204 129.115 29.3804 128.379 29.7004 127.76C30.0204 127.131 30.4684 126.651 31.0444 126.32C31.6204 125.979 32.303 125.808 33.0924 125.808C33.8817 125.808 34.5644 125.979 35.1404 126.32C35.727 126.651 36.175 127.131 36.4844 127.76C36.8044 128.379 36.9644 129.115 36.9644 129.968C36.9644 130.832 36.8044 131.579 36.4844 132.208C36.175 132.827 35.727 133.307 35.1404 133.648C34.5644 133.979 33.8817 134.144 33.0924 134.144ZM33.0924 132.992C33.8177 132.992 34.399 132.736 34.8364 132.224C35.2737 131.712 35.4924 130.96 35.4924 129.968C35.4924 128.976 35.2737 128.229 34.8364 127.728C34.399 127.227 33.8177 126.976 33.0924 126.976C32.3564 126.976 31.7697 127.227 31.3324 127.728C30.9057 128.229 30.6924 128.976 30.6924 129.968C30.6924 130.96 30.9057 131.712 31.3324 132.224C31.7697 132.736 32.3564 132.992 33.0924 132.992ZM41.849 134.144C41.0063 134.144 40.3663 133.915 39.929 133.456C39.5023 132.987 39.289 132.283 39.289 131.344V127.072H37.721V125.952H39.289V123.792L40.745 123.392V125.952H43.017V127.072H40.745V131.216C40.745 131.835 40.8517 132.277 41.065 132.544C41.289 132.8 41.609 132.928 42.025 132.928C42.2383 132.928 42.4197 132.912 42.569 132.88C42.729 132.837 42.873 132.789 43.001 132.736V133.936C42.841 134 42.6543 134.048 42.441 134.08C42.2383 134.123 42.041 134.144 41.849 134.144ZM47.6161 134.144C46.9121 134.144 46.2935 133.979 45.7601 133.648C45.2268 133.317 44.8108 132.837 44.5121 132.208C44.2135 131.579 44.0641 130.832 44.0641 129.968C44.0641 129.104 44.2135 128.363 44.5121 127.744C44.8108 127.115 45.2268 126.635 45.7601 126.304C46.2935 125.973 46.9121 125.808 47.6161 125.808C48.3308 125.808 48.9495 125.989 49.4721 126.352C50.0055 126.704 50.3575 127.189 50.5281 127.808H50.3361L50.5121 125.952H51.9201C51.8881 126.272 51.8561 126.592 51.8241 126.912C51.8028 127.232 51.7921 127.547 51.7921 127.856V134H50.3361V132.16H50.5121C50.3415 132.768 49.9895 133.253 49.4561 133.616C48.9335 133.968 48.3201 134.144 47.6161 134.144ZM47.9521 132.992C48.6775 132.992 49.2588 132.736 49.6961 132.224C50.1335 131.712 50.3521 130.96 50.3521 129.968C50.3521 128.976 50.1335 128.229 49.6961 127.728C49.2588 127.227 48.6775 126.976 47.9521 126.976C47.2268 126.976 46.6401 127.227 46.1921 127.728C45.7548 128.229 45.5361 128.976 45.5361 129.968C45.5361 130.96 45.7548 131.712 46.1921 132.224C46.6295 132.736 47.2161 132.992 47.9521 132.992ZM54.2316 134V122.224H55.6876V134H54.2316ZM66.997 134.144C65.4503 134.144 64.2983 133.755 63.541 132.976C62.7943 132.187 62.421 131.029 62.421 129.504V122.72H63.925V129.456C63.925 130.576 64.1703 131.419 64.661 131.984C65.1517 132.549 65.9303 132.832 66.997 132.832C68.021 132.832 68.789 132.549 69.301 131.984C69.8237 131.419 70.085 130.576 70.085 129.456V122.72H71.557V129.504C71.557 131.029 71.173 132.187 70.405 132.976C69.637 133.755 68.501 134.144 66.997 134.144ZM76.7954 134.144C76.1447 134.144 75.5367 134.059 74.9714 133.888C74.4167 133.717 73.958 133.472 73.5954 133.152L74.0594 132.144C74.454 132.443 74.886 132.672 75.3554 132.832C75.8354 132.981 76.326 133.056 76.8274 133.056C77.4354 133.056 77.894 132.944 78.2034 132.72C78.5234 132.496 78.6834 132.197 78.6834 131.824C78.6834 131.525 78.582 131.285 78.3794 131.104C78.1767 130.923 77.8567 130.789 77.4194 130.704L75.8994 130.4C75.2167 130.24 74.6994 129.984 74.3474 129.632C74.006 129.269 73.8354 128.805 73.8354 128.24C73.8354 127.771 73.9634 127.355 74.2194 126.992C74.4754 126.619 74.838 126.331 75.3074 126.128C75.7874 125.915 76.3474 125.808 76.9874 125.808C77.574 125.808 78.118 125.893 78.6194 126.064C79.1314 126.235 79.5527 126.485 79.8834 126.816L79.4034 127.792C79.0727 127.504 78.6994 127.285 78.2834 127.136C77.878 126.976 77.462 126.896 77.0354 126.896C76.4167 126.896 75.958 127.019 75.6594 127.264C75.3607 127.499 75.2114 127.808 75.2114 128.192C75.2114 128.48 75.302 128.72 75.4834 128.912C75.6647 129.093 75.958 129.232 76.3634 129.328L77.8834 129.632C78.598 129.781 79.1367 130.027 79.4994 130.368C79.862 130.709 80.0434 131.163 80.0434 131.728C80.0434 132.229 79.9047 132.661 79.6274 133.024C79.3607 133.387 78.982 133.664 78.4914 133.856C78.0114 134.048 77.446 134.144 76.7954 134.144ZM85.6925 134.144C84.4125 134.144 83.3992 133.776 82.6525 133.04C81.9165 132.304 81.5485 131.291 81.5485 130C81.5485 129.147 81.7085 128.411 82.0285 127.792C82.3592 127.163 82.8125 126.677 83.3885 126.336C83.9645 125.984 84.6365 125.808 85.4045 125.808C86.1405 125.808 86.7645 125.968 87.2765 126.288C87.7885 126.597 88.1778 127.04 88.4445 127.616C88.7112 128.192 88.8445 128.875 88.8445 129.664V130.144H82.6845V129.28H87.8525L87.5805 129.488C87.5805 128.656 87.3938 128.011 87.0205 127.552C86.6578 127.093 86.1192 126.864 85.4045 126.864C84.6258 126.864 84.0232 127.136 83.5965 127.68C83.1698 128.213 82.9565 128.944 82.9565 129.872V130.016C82.9565 130.997 83.1965 131.739 83.6765 132.24C84.1672 132.741 84.8445 132.992 85.7085 132.992C86.1885 132.992 86.6365 132.923 87.0525 132.784C87.4685 132.645 87.8685 132.416 88.2525 132.096L88.7325 133.104C88.3698 133.435 87.9165 133.691 87.3725 133.872C86.8392 134.053 86.2792 134.144 85.6925 134.144ZM90.7313 134V127.92C90.7313 127.6 90.7206 127.275 90.6993 126.944C90.6886 126.603 90.6619 126.272 90.6193 125.952H92.0273L92.2033 127.968L91.9633 127.984C92.0699 127.493 92.2513 127.088 92.5073 126.768C92.7739 126.437 93.0886 126.197 93.4513 126.048C93.8246 125.888 94.2086 125.808 94.6033 125.808C94.7739 125.808 94.9179 125.813 95.0353 125.824C95.1526 125.835 95.2699 125.861 95.3873 125.904L95.3553 127.2C95.1953 127.136 95.0459 127.099 94.9073 127.088C94.7793 127.067 94.6193 127.056 94.4273 127.056C93.9579 127.056 93.5526 127.163 93.2113 127.376C92.8806 127.589 92.6246 127.872 92.4433 128.224C92.2726 128.576 92.1873 128.955 92.1873 129.36V134H90.7313ZM99.311 134.144C98.6603 134.144 98.0523 134.059 97.487 133.888C96.9323 133.717 96.4737 133.472 96.111 133.152L96.575 132.144C96.9697 132.443 97.4017 132.672 97.871 132.832C98.351 132.981 98.8417 133.056 99.343 133.056C99.951 133.056 100.41 132.944 100.719 132.72C101.039 132.496 101.199 132.197 101.199 131.824C101.199 131.525 101.098 131.285 100.895 131.104C100.692 130.923 100.372 130.789 99.935 130.704L98.415 130.4C97.7323 130.24 97.215 129.984 96.863 129.632C96.5217 129.269 96.351 128.805 96.351 128.24C96.351 127.771 96.479 127.355 96.735 126.992C96.991 126.619 97.3537 126.331 97.823 126.128C98.303 125.915 98.863 125.808 99.503 125.808C100.09 125.808 100.634 125.893 101.135 126.064C101.647 126.235 102.068 126.485 102.399 126.816L101.919 127.792C101.588 127.504 101.215 127.285 100.799 127.136C100.394 126.976 99.9777 126.896 99.551 126.896C98.9323 126.896 98.4737 127.019 98.175 127.264C97.8763 127.499 97.727 127.808 97.727 128.192C97.727 128.48 97.8177 128.72 97.999 128.912C98.1803 129.093 98.4737 129.232 98.879 129.328L100.399 129.632C101.114 129.781 101.652 130.027 102.015 130.368C102.378 130.709 102.559 131.163 102.559 131.728C102.559 132.229 102.42 132.661 102.143 133.024C101.876 133.387 101.498 133.664 101.007 133.856C100.527 134.048 99.9617 134.144 99.311 134.144Z"
                  fill="#425166"
                />
                <path
                  d="M27.44 101.216C26.704 101.216 25.976 101.136 25.256 100.976C24.536 100.816 23.864 100.592 23.24 100.304C22.616 100 22.072 99.64 21.608 99.224L22.472 97.328C23.24 97.92 24.024 98.368 24.824 98.672C25.64 98.96 26.496 99.104 27.392 99.104C28.528 99.104 29.416 98.808 30.056 98.216C30.712 97.624 31.04 96.832 31.04 95.84C31.04 94.816 30.728 93.992 30.104 93.368C29.496 92.728 28.648 92.408 27.56 92.408C26.808 92.408 26.12 92.56 25.496 92.864C24.888 93.168 24.352 93.632 23.888 94.256H22.16V84.08H32.408V86.168H24.536V92.264H23.912C24.344 91.656 24.92 91.184 25.64 90.848C26.376 90.512 27.2 90.344 28.112 90.344C29.2 90.344 30.144 90.568 30.944 91.016C31.744 91.464 32.36 92.088 32.792 92.888C33.24 93.688 33.464 94.632 33.464 95.72C33.464 96.808 33.216 97.768 32.72 98.6C32.24 99.416 31.544 100.056 30.632 100.52C29.736 100.984 28.672 101.216 27.44 101.216ZM35.8066 101V98.144H38.6626V101H35.8066ZM47.8619 101.216C45.7659 101.216 44.1499 100.488 43.0139 99.032C41.8939 97.576 41.3339 95.536 41.3339 92.912C41.3339 90.96 41.6219 89.32 42.1979 87.992C42.7739 86.648 43.5899 85.624 44.6459 84.92C45.7179 84.216 47.0059 83.864 48.5099 83.864C49.4059 83.864 50.3019 84.04 51.1979 84.392C52.0939 84.728 52.8459 85.208 53.4539 85.832L52.5659 87.704C51.9739 87.128 51.3259 86.696 50.6219 86.408C49.9179 86.12 49.2059 85.976 48.4859 85.976C46.9339 85.976 45.7499 86.52 44.9339 87.608C44.1179 88.68 43.7099 90.288 43.7099 92.432V94.472H43.4699C43.5819 93.608 43.8539 92.864 44.2859 92.24C44.7179 91.6 45.2779 91.112 45.9659 90.776C46.6539 90.44 47.4219 90.272 48.2699 90.272C49.2779 90.272 50.1659 90.504 50.9339 90.968C51.7179 91.432 52.3339 92.072 52.7819 92.888C53.2299 93.688 53.4539 94.608 53.4539 95.648C53.4539 96.72 53.2139 97.68 52.7339 98.528C52.2539 99.376 51.5899 100.04 50.7419 100.52C49.9099 100.984 48.9499 101.216 47.8619 101.216ZM47.7179 99.2C48.3899 99.2 48.9739 99.056 49.4699 98.768C49.9819 98.48 50.3819 98.08 50.6699 97.568C50.9579 97.04 51.1019 96.432 51.1019 95.744C51.1019 95.056 50.9579 94.456 50.6699 93.944C50.3819 93.432 49.9819 93.032 49.4699 92.744C48.9739 92.44 48.3899 92.288 47.7179 92.288C47.0459 92.288 46.4539 92.44 45.9419 92.744C45.4299 93.032 45.0299 93.432 44.7419 93.944C44.4539 94.456 44.3099 95.056 44.3099 95.744C44.3099 96.432 44.4539 97.04 44.7419 97.568C45.0299 98.08 45.4299 98.48 45.9419 98.768C46.4539 99.056 47.0459 99.2 47.7179 99.2ZM56.2526 101V83.336H58.6766V94.184H58.7246L64.0046 88.904H67.0046L60.6206 95.264L60.6446 94.184L67.5326 101H64.4606L58.7246 95.456H58.6766V101H56.2526Z"
                  fill="#BF83FF"
                />
                <circle cx="40" cy="40" r="20" fill="#BF83FF" />
                <path
                  fillRule="evenodd"
                  clipRule="evenodd"
                  d="M42 36C42 38.2091 40.2091 40 38 40C35.7909 40 34 38.2091 34 36C34 33.7909 35.7909 32 38 32C40.2091 32 42 33.7909 42 36ZM38 41C34.134 41 31 43.2386 31 46C31 47.1046 31.8954 48 33 48H43C44.1046 48 45 47.1046 45 46C45 43.2386 41.866 41 38 41ZM46 34C46.5523 34 47 34.4477 47 35V36H48C48.5523 36 49 36.4477 49 37C49 37.5523 48.5523 38 48 38H47V39C47 39.5523 46.5523 40 46 40C45.4477 40 45 39.5523 45 39V38H44C43.4477 38 43 37.5523 43 37C43 36.4477 43.4477 36 44 36H45V35C45 34.4477 45.4477 34 46 34Z"
                  fill="white"
                />
              </svg>