<svg width="591" height="200" viewBox="0 0 591 200" fill="none" xmlns="http://www.w3.org/2000/svg">
<path d="M39 8.5H589" stroke="#EFF1F3" stroke-linecap="round"/>
<path d="M39 40.5H589" stroke="#EFF1F3" stroke-linecap="round"/>
<path d="M39 72.5H589" stroke="#EFF1F3" stroke-linecap="round"/>
<path d="M39 104.5H589" stroke="#EFF1F3" stroke-linecap="round"/>
<path d="M39 136.5H589" stroke="#EFF1F3" stroke-linecap="round"/>
<path d="M39 168.5H589" stroke="#EFF1F3" stroke-linecap="round"/>
<path d="M0.612 11.124C1.628 10.308 2.424 9.64 3 9.12C3.576 8.592 4.06 8.044 4.452 7.476C4.852 6.9 5.052 6.336 5.052 5.784C5.052 5.264 4.924 4.856 4.668 4.56C4.42 4.256 4.016 4.104 3.456 4.104C2.912 4.104 2.488 4.276 2.184 4.62C1.888 4.956 1.728 5.408 1.704 5.976H0.648C0.68 5.08 0.952 4.388 1.464 3.9C1.976 3.412 2.636 3.168 3.444 3.168C4.268 3.168 4.92 3.396 5.4 3.852C5.888 4.308 6.132 4.936 6.132 5.736C6.132 6.4 5.932 7.048 5.532 7.68C5.14 8.304 4.692 8.856 4.188 9.336C3.684 9.808 3.04 10.36 2.256 10.992H6.384V11.904H0.612V11.124ZM13.1783 4.272H8.96634V7.008C9.15034 6.752 9.42234 6.544 9.78234 6.384C10.1423 6.216 10.5303 6.132 10.9463 6.132C11.6103 6.132 12.1503 6.272 12.5663 6.552C12.9823 6.824 13.2783 7.18 13.4543 7.62C13.6383 8.052 13.7303 8.512 13.7303 9C13.7303 9.576 13.6223 10.092 13.4063 10.548C13.1903 11.004 12.8583 11.364 12.4103 11.628C11.9703 11.892 11.4223 12.024 10.7663 12.024C9.92634 12.024 9.24634 11.808 8.72634 11.376C8.20634 10.944 7.89034 10.368 7.77834 9.648H8.84634C8.95034 10.104 9.17034 10.46 9.50634 10.716C9.84234 10.972 10.2663 11.1 10.7783 11.1C11.4103 11.1 11.8863 10.912 12.2063 10.536C12.5263 10.152 12.6863 9.648 12.6863 9.024C12.6863 8.4 12.5263 7.92 12.2063 7.584C11.8863 7.24 11.4143 7.068 10.7903 7.068C10.3663 7.068 9.99434 7.172 9.67434 7.38C9.36234 7.58 9.13434 7.856 8.99034 8.208H7.95834V3.312H13.1783V4.272ZM19.0335 12L16.4535 9.096V12H15.3615V3.12H16.4535V8.34L18.9855 5.424H20.5095L17.4135 8.7L20.5215 12H19.0335Z" fill="#393939" fill-opacity="0.5"/>
<path d="M0.612 43.124C1.628 42.308 2.424 41.64 3 41.12C3.576 40.592 4.06 40.044 4.452 39.476C4.852 38.9 5.052 38.336 5.052 37.784C5.052 37.264 4.924 36.856 4.668 36.56C4.42 36.256 4.016 36.104 3.456 36.104C2.912 36.104 2.488 36.276 2.184 36.62C1.888 36.956 1.728 37.408 1.704 37.976H0.648C0.68 37.08 0.952 36.388 1.464 35.9C1.976 35.412 2.636 35.168 3.444 35.168C4.268 35.168 4.92 35.396 5.4 35.852C5.888 36.308 6.132 36.936 6.132 37.736C6.132 38.4 5.932 39.048 5.532 39.68C5.14 40.304 4.692 40.856 4.188 41.336C3.684 41.808 3.04 42.36 2.256 42.992H6.384V43.904H0.612V43.124ZM7.64634 39.572C7.64634 38.196 7.87034 37.124 8.31834 36.356C8.76634 35.58 9.55034 35.192 10.6703 35.192C11.7823 35.192 12.5623 35.58 13.0103 36.356C13.4583 37.124 13.6823 38.196 13.6823 39.572C13.6823 40.972 13.4583 42.06 13.0103 42.836C12.5623 43.612 11.7823 44 10.6703 44C9.55034 44 8.76634 43.612 8.31834 42.836C7.87034 42.06 7.64634 40.972 7.64634 39.572ZM12.6023 39.572C12.6023 38.876 12.5543 38.288 12.4583 37.808C12.3703 37.32 12.1823 36.928 11.8943 36.632C11.6143 36.336 11.2063 36.188 10.6703 36.188C10.1263 36.188 9.71034 36.336 9.42234 36.632C9.14234 36.928 8.95434 37.32 8.85834 37.808C8.77034 38.288 8.72634 38.876 8.72634 39.572C8.72634 40.292 8.77034 40.896 8.85834 41.384C8.95434 41.872 9.14234 42.264 9.42234 42.56C9.71034 42.856 10.1263 43.004 10.6703 43.004C11.2063 43.004 11.6143 42.856 11.8943 42.56C12.1823 42.264 12.3703 41.872 12.4583 41.384C12.5543 40.896 12.6023 40.292 12.6023 39.572ZM19.0335 44L16.4535 41.096V44H15.3615V35.12H16.4535V40.34L18.9855 37.424H20.5095L17.4135 40.7L20.5215 44H19.0335Z" fill="#393939" fill-opacity="0.5"/>
<path d="M0.456 68.32V67.324H2.712V76H1.608V68.32H0.456ZM10.1198 68.272H5.90775V71.008C6.09175 70.752 6.36375 70.544 6.72375 70.384C7.08375 70.216 7.47175 70.132 7.88775 70.132C8.55175 70.132 9.09175 70.272 9.50775 70.552C9.92375 70.824 10.2198 71.18 10.3958 71.62C10.5798 72.052 10.6718 72.512 10.6718 73C10.6718 73.576 10.5638 74.092 10.3478 74.548C10.1318 75.004 9.79975 75.364 9.35175 75.628C8.91175 75.892 8.36375 76.024 7.70775 76.024C6.86775 76.024 6.18775 75.808 5.66775 75.376C5.14775 74.944 4.83175 74.368 4.71975 73.648H5.78775C5.89175 74.104 6.11175 74.46 6.44775 74.716C6.78375 74.972 7.20775 75.1 7.71975 75.1C8.35175 75.1 8.82775 74.912 9.14775 74.536C9.46775 74.152 9.62775 73.648 9.62775 73.024C9.62775 72.4 9.46775 71.92 9.14775 71.584C8.82775 71.24 8.35575 71.068 7.73175 71.068C7.30775 71.068 6.93575 71.172 6.61575 71.38C6.30375 71.58 6.07575 71.856 5.93175 72.208H4.89975V67.312H10.1198V68.272ZM15.9749 76L13.3949 73.096V76H12.3029V67.12H13.3949V72.34L15.9269 69.424H17.4509L14.3549 72.7L17.4629 76H15.9749Z" fill="#393939" fill-opacity="0.5"/>
<path d="M0.456 100.32V99.324H2.712V108H1.608V100.32H0.456ZM4.58775 103.572C4.58775 102.196 4.81175 101.124 5.25975 100.356C5.70775 99.58 6.49175 99.192 7.61175 99.192C8.72375 99.192 9.50375 99.58 9.95175 100.356C10.3997 101.124 10.6237 102.196 10.6237 103.572C10.6237 104.972 10.3997 106.06 9.95175 106.836C9.50375 107.612 8.72375 108 7.61175 108C6.49175 108 5.70775 107.612 5.25975 106.836C4.81175 106.06 4.58775 104.972 4.58775 103.572ZM9.54375 103.572C9.54375 102.876 9.49575 102.288 9.39975 101.808C9.31175 101.32 9.12375 100.928 8.83575 100.632C8.55575 100.336 8.14775 100.188 7.61175 100.188C7.06775 100.188 6.65175 100.336 6.36375 100.632C6.08375 100.928 5.89575 101.32 5.79975 101.808C5.71175 102.288 5.66775 102.876 5.66775 103.572C5.66775 104.292 5.71175 104.896 5.79975 105.384C5.89575 105.872 6.08375 106.264 6.36375 106.56C6.65175 106.856 7.06775 107.004 7.61175 107.004C8.14775 107.004 8.55575 106.856 8.83575 106.56C9.12375 106.264 9.31175 105.872 9.39975 105.384C9.49575 104.896 9.54375 104.292 9.54375 103.572ZM15.9749 108L13.3949 105.096V108H12.3029V99.12H13.3949V104.34L15.9269 101.424H17.4509L14.3549 104.7L17.4629 108H15.9749Z" fill="#393939" fill-opacity="0.5"/>
<path d="M6.276 132.272H2.064V135.008C2.248 134.752 2.52 134.544 2.88 134.384C3.24 134.216 3.628 134.132 4.044 134.132C4.708 134.132 5.248 134.272 5.664 134.552C6.08 134.824 6.376 135.18 6.552 135.62C6.736 136.052 6.828 136.512 6.828 137C6.828 137.576 6.72 138.092 6.504 138.548C6.288 139.004 5.956 139.364 5.508 139.628C5.068 139.892 4.52 140.024 3.864 140.024C3.024 140.024 2.344 139.808 1.824 139.376C1.304 138.944 0.988 138.368 0.876 137.648H1.944C2.048 138.104 2.268 138.46 2.604 138.716C2.94 138.972 3.364 139.1 3.876 139.1C4.508 139.1 4.984 138.912 5.304 138.536C5.624 138.152 5.784 137.648 5.784 137.024C5.784 136.4 5.624 135.92 5.304 135.584C4.984 135.24 4.512 135.068 3.888 135.068C3.464 135.068 3.092 135.172 2.772 135.38C2.46 135.58 2.232 135.856 2.088 136.208H1.056V131.312H6.276V132.272ZM12.1312 140L9.55116 137.096V140H8.45916V131.12H9.55116V136.34L12.0832 133.424H13.6072L10.5112 136.7L13.6192 140H12.1312Z" fill="#393939" fill-opacity="0.5"/>
<path d="M0.744 167.572C0.744 166.196 0.968 165.124 1.416 164.356C1.864 163.58 2.648 163.192 3.768 163.192C4.88 163.192 5.66 163.58 6.108 164.356C6.556 165.124 6.78 166.196 6.78 167.572C6.78 168.972 6.556 170.06 6.108 170.836C5.66 171.612 4.88 172 3.768 172C2.648 172 1.864 171.612 1.416 170.836C0.968 170.06 0.744 168.972 0.744 167.572ZM5.7 167.572C5.7 166.876 5.652 166.288 5.556 165.808C5.468 165.32 5.28 164.928 4.992 164.632C4.712 164.336 4.304 164.188 3.768 164.188C3.224 164.188 2.808 164.336 2.52 164.632C2.24 164.928 2.052 165.32 1.956 165.808C1.868 166.288 1.824 166.876 1.824 167.572C1.824 168.292 1.868 168.896 1.956 169.384C2.052 169.872 2.24 170.264 2.52 170.56C2.808 170.856 3.224 171.004 3.768 171.004C4.304 171.004 4.712 170.856 4.992 170.56C5.28 170.264 5.468 169.872 5.556 169.384C5.652 168.896 5.7 168.292 5.7 167.572Z" fill="#393939" fill-opacity="0.5"/>
<path d="M63.074 187.696V196H61.982V189.808L59.222 196H58.454L55.682 189.796V196H54.59V187.696H55.766L58.838 194.56L61.91 187.696H63.074ZM67.794 196.108C67.178 196.108 66.618 195.968 66.114 195.688C65.618 195.408 65.226 195.012 64.938 194.5C64.658 193.98 64.518 193.38 64.518 192.7C64.518 192.028 64.662 191.436 64.95 190.924C65.246 190.404 65.646 190.008 66.15 189.736C66.654 189.456 67.218 189.316 67.842 189.316C68.466 189.316 69.03 189.456 69.534 189.736C70.038 190.008 70.434 190.4 70.722 190.912C71.018 191.424 71.166 192.02 71.166 192.7C71.166 193.38 71.014 193.98 70.71 194.5C70.414 195.012 70.01 195.408 69.498 195.688C68.986 195.968 68.418 196.108 67.794 196.108ZM67.794 195.148C68.186 195.148 68.554 195.056 68.898 194.872C69.242 194.688 69.518 194.412 69.726 194.044C69.942 193.676 70.05 193.228 70.05 192.7C70.05 192.172 69.946 191.724 69.738 191.356C69.53 190.988 69.258 190.716 68.922 190.54C68.586 190.356 68.222 190.264 67.83 190.264C67.43 190.264 67.062 190.356 66.726 190.54C66.398 190.716 66.134 190.988 65.934 191.356C65.734 191.724 65.634 192.172 65.634 192.7C65.634 193.236 65.73 193.688 65.922 194.056C66.122 194.424 66.386 194.7 66.714 194.884C67.042 195.06 67.402 195.148 67.794 195.148ZM75.8057 189.304C76.6057 189.304 77.2537 189.548 77.7497 190.036C78.2457 190.516 78.4937 191.212 78.4937 192.124V196H77.4137V192.28C77.4137 191.624 77.2497 191.124 76.9217 190.78C76.5937 190.428 76.1457 190.252 75.5777 190.252C75.0017 190.252 74.5417 190.432 74.1977 190.792C73.8617 191.152 73.6937 191.676 73.6937 192.364V196H72.6017V189.424H73.6937V190.36C73.9097 190.024 74.2017 189.764 74.5697 189.58C74.9457 189.396 75.3577 189.304 75.8057 189.304ZM79.8695 192.688C79.8695 192.016 80.0055 191.428 80.2775 190.924C80.5495 190.412 80.9215 190.016 81.3935 189.736C81.8735 189.456 82.4095 189.316 83.0015 189.316C83.5135 189.316 83.9895 189.436 84.4295 189.676C84.8695 189.908 85.2055 190.216 85.4375 190.6V187.12H86.5415V196H85.4375V194.764C85.2215 195.156 84.9015 195.48 84.4775 195.736C84.0535 195.984 83.5575 196.108 82.9895 196.108C82.4055 196.108 81.8735 195.964 81.3935 195.676C80.9215 195.388 80.5495 194.984 80.2775 194.464C80.0055 193.944 79.8695 193.352 79.8695 192.688ZM85.4375 192.7C85.4375 192.204 85.3375 191.772 85.1375 191.404C84.9375 191.036 84.6655 190.756 84.3215 190.564C83.9855 190.364 83.6135 190.264 83.2055 190.264C82.7975 190.264 82.4255 190.36 82.0895 190.552C81.7535 190.744 81.4855 191.024 81.2855 191.392C81.0855 191.76 80.9855 192.192 80.9855 192.688C80.9855 193.192 81.0855 193.632 81.2855 194.008C81.4855 194.376 81.7535 194.66 82.0895 194.86C82.4255 195.052 82.7975 195.148 83.2055 195.148C83.6135 195.148 83.9855 195.052 84.3215 194.86C84.6655 194.66 84.9375 194.376 85.1375 194.008C85.3375 193.632 85.4375 193.196 85.4375 192.7ZM87.9789 192.688C87.9789 192.016 88.1149 191.428 88.3869 190.924C88.6589 190.412 89.0309 190.016 89.5029 189.736C89.9829 189.456 90.5149 189.316 91.0989 189.316C91.6749 189.316 92.1749 189.44 92.5989 189.688C93.0229 189.936 93.3389 190.248 93.5469 190.624V189.424H94.6509V196H93.5469V194.776C93.3309 195.16 93.0069 195.48 92.5749 195.736C92.1509 195.984 91.6549 196.108 91.0869 196.108C90.5029 196.108 89.9749 195.964 89.5029 195.676C89.0309 195.388 88.6589 194.984 88.3869 194.464C88.1149 193.944 87.9789 193.352 87.9789 192.688ZM93.5469 192.7C93.5469 192.204 93.4469 191.772 93.2469 191.404C93.0469 191.036 92.7749 190.756 92.4309 190.564C92.0949 190.364 91.7229 190.264 91.3149 190.264C90.9069 190.264 90.5349 190.36 90.1989 190.552C89.8629 190.744 89.5949 191.024 89.3949 191.392C89.1949 191.76 89.0949 192.192 89.0949 192.688C89.0949 193.192 89.1949 193.632 89.3949 194.008C89.5949 194.376 89.8629 194.66 90.1989 194.86C90.5349 195.052 90.9069 195.148 91.3149 195.148C91.7229 195.148 92.0949 195.052 92.4309 194.86C92.7749 194.66 93.0469 194.376 93.2469 194.008C93.4469 193.632 93.5469 193.196 93.5469 192.7ZM102.16 189.424L98.2003 199.096H97.0723L98.3683 195.928L95.7163 189.424H96.9283L98.9923 194.752L101.032 189.424H102.16Z" fill="#393939" fill-opacity="0.5"/>
<path d="M137.642 187.636V188.524H135.362V196H134.27V188.524H131.978V187.636H137.642ZM144.819 189.424V196H143.727V195.028C143.519 195.364 143.227 195.628 142.851 195.82C142.483 196.004 142.075 196.096 141.627 196.096C141.115 196.096 140.655 195.992 140.247 195.784C139.839 195.568 139.515 195.248 139.275 194.824C139.043 194.4 138.927 193.884 138.927 193.276V189.424H140.007V193.132C140.007 193.78 140.171 194.28 140.499 194.632C140.827 194.976 141.275 195.148 141.843 195.148C142.427 195.148 142.887 194.968 143.223 194.608C143.559 194.248 143.727 193.724 143.727 193.036V189.424H144.819ZM152.662 192.46C152.662 192.668 152.65 192.888 152.626 193.12H147.37C147.41 193.768 147.63 194.276 148.03 194.644C148.438 195.004 148.93 195.184 149.506 195.184C149.978 195.184 150.37 195.076 150.682 194.86C151.002 194.636 151.226 194.34 151.354 193.972H152.53C152.354 194.604 152.002 195.12 151.474 195.52C150.946 195.912 150.29 196.108 149.506 196.108C148.882 196.108 148.322 195.968 147.826 195.688C147.338 195.408 146.954 195.012 146.674 194.5C146.394 193.98 146.254 193.38 146.254 192.7C146.254 192.02 146.39 191.424 146.662 190.912C146.934 190.4 147.314 190.008 147.802 189.736C148.298 189.456 148.866 189.316 149.506 189.316C150.13 189.316 150.682 189.452 151.162 189.724C151.642 189.996 152.01 190.372 152.266 190.852C152.53 191.324 152.662 191.86 152.662 192.46ZM151.534 192.232C151.534 191.816 151.442 191.46 151.258 191.164C151.074 190.86 150.822 190.632 150.502 190.48C150.19 190.32 149.842 190.24 149.458 190.24C148.906 190.24 148.434 190.416 148.042 190.768C147.658 191.12 147.438 191.608 147.382 192.232H151.534ZM156.432 196.108C155.928 196.108 155.476 196.024 155.076 195.856C154.676 195.68 154.36 195.44 154.128 195.136C153.896 194.824 153.768 194.468 153.744 194.068H154.872C154.904 194.396 155.056 194.664 155.328 194.872C155.608 195.08 155.972 195.184 156.42 195.184C156.836 195.184 157.164 195.092 157.404 194.908C157.644 194.724 157.764 194.492 157.764 194.212C157.764 193.924 157.636 193.712 157.38 193.576C157.124 193.432 156.728 193.292 156.192 193.156C155.704 193.028 155.304 192.9 154.992 192.772C154.688 192.636 154.424 192.44 154.2 192.184C153.984 191.92 153.876 191.576 153.876 191.152C153.876 190.816 153.976 190.508 154.176 190.228C154.376 189.948 154.66 189.728 155.028 189.568C155.396 189.4 155.816 189.316 156.288 189.316C157.016 189.316 157.604 189.5 158.052 189.868C158.5 190.236 158.74 190.74 158.772 191.38H157.68C157.656 191.036 157.516 190.76 157.26 190.552C157.012 190.344 156.676 190.24 156.252 190.24C155.86 190.24 155.548 190.324 155.316 190.492C155.084 190.66 154.968 190.88 154.968 191.152C154.968 191.368 155.036 191.548 155.172 191.692C155.316 191.828 155.492 191.94 155.7 192.028C155.916 192.108 156.212 192.2 156.588 192.304C157.06 192.432 157.444 192.56 157.74 192.688C158.036 192.808 158.288 192.992 158.496 193.24C158.712 193.488 158.824 193.812 158.832 194.212C158.832 194.572 158.732 194.896 158.532 195.184C158.332 195.472 158.048 195.7 157.68 195.868C157.32 196.028 156.904 196.108 156.432 196.108ZM159.965 192.688C159.965 192.016 160.101 191.428 160.373 190.924C160.645 190.412 161.017 190.016 161.489 189.736C161.969 189.456 162.505 189.316 163.097 189.316C163.609 189.316 164.085 189.436 164.525 189.676C164.965 189.908 165.301 190.216 165.533 190.6V187.12H166.637V196H165.533V194.764C165.317 195.156 164.997 195.48 164.573 195.736C164.149 195.984 163.653 196.108 163.085 196.108C162.501 196.108 161.969 195.964 161.489 195.676C161.017 195.388 160.645 194.984 160.373 194.464C160.101 193.944 159.965 193.352 159.965 192.688ZM165.533 192.7C165.533 192.204 165.433 191.772 165.233 191.404C165.033 191.036 164.761 190.756 164.417 190.564C164.081 190.364 163.709 190.264 163.301 190.264C162.893 190.264 162.521 190.36 162.185 190.552C161.849 190.744 161.581 191.024 161.381 191.392C161.181 191.76 161.081 192.192 161.081 192.688C161.081 193.192 161.181 193.632 161.381 194.008C161.581 194.376 161.849 194.66 162.185 194.86C162.521 195.052 162.893 195.148 163.301 195.148C163.709 195.148 164.081 195.052 164.417 194.86C164.761 194.66 165.033 194.376 165.233 194.008C165.433 193.632 165.533 193.196 165.533 192.7ZM168.075 192.688C168.075 192.016 168.211 191.428 168.483 190.924C168.755 190.412 169.127 190.016 169.599 189.736C170.079 189.456 170.611 189.316 171.195 189.316C171.771 189.316 172.271 189.44 172.695 189.688C173.119 189.936 173.435 190.248 173.643 190.624V189.424H174.747V196H173.643V194.776C173.427 195.16 173.103 195.48 172.671 195.736C172.247 195.984 171.751 196.108 171.183 196.108C170.599 196.108 170.071 195.964 169.599 195.676C169.127 195.388 168.755 194.984 168.483 194.464C168.211 193.944 168.075 193.352 168.075 192.688ZM173.643 192.7C173.643 192.204 173.543 191.772 173.343 191.404C173.143 191.036 172.871 190.756 172.527 190.564C172.191 190.364 171.819 190.264 171.411 190.264C171.003 190.264 170.631 190.36 170.295 190.552C169.959 190.744 169.691 191.024 169.491 191.392C169.291 191.76 169.191 192.192 169.191 192.688C169.191 193.192 169.291 193.632 169.491 194.008C169.691 194.376 169.959 194.66 170.295 194.86C170.631 195.052 171.003 195.148 171.411 195.148C171.819 195.148 172.191 195.052 172.527 194.86C172.871 194.66 173.143 194.376 173.343 194.008C173.543 193.632 173.643 193.196 173.643 192.7ZM182.256 189.424L178.296 199.096H177.168L178.464 195.928L175.812 189.424H177.024L179.088 194.752L181.128 189.424H182.256Z" fill="#393939" fill-opacity="0.5"/>
<path d="M211.624 187.636L209.2 196H207.976L206.032 189.268L204.016 196L202.804 196.012L200.464 187.636H201.628L203.452 194.728L205.468 187.636H206.692L208.612 194.704L210.448 187.636H211.624ZM218.819 192.46C218.819 192.668 218.807 192.888 218.783 193.12H213.527C213.567 193.768 213.787 194.276 214.187 194.644C214.595 195.004 215.087 195.184 215.663 195.184C216.135 195.184 216.527 195.076 216.839 194.86C217.159 194.636 217.383 194.34 217.511 193.972H218.687C218.511 194.604 218.159 195.12 217.631 195.52C217.103 195.912 216.447 196.108 215.663 196.108C215.039 196.108 214.479 195.968 213.983 195.688C213.495 195.408 213.111 195.012 212.831 194.5C212.551 193.98 212.411 193.38 212.411 192.7C212.411 192.02 212.547 191.424 212.819 190.912C213.091 190.4 213.471 190.008 213.959 189.736C214.455 189.456 215.023 189.316 215.663 189.316C216.287 189.316 216.839 189.452 217.319 189.724C217.799 189.996 218.167 190.372 218.423 190.852C218.687 191.324 218.819 191.86 218.819 192.46ZM217.691 192.232C217.691 191.816 217.599 191.46 217.415 191.164C217.231 190.86 216.979 190.632 216.659 190.48C216.347 190.32 215.999 190.24 215.615 190.24C215.063 190.24 214.591 190.416 214.199 190.768C213.815 191.12 213.595 191.608 213.539 192.232H217.691ZM219.852 192.688C219.852 192.016 219.988 191.428 220.26 190.924C220.532 190.412 220.904 190.016 221.376 189.736C221.856 189.456 222.392 189.316 222.984 189.316C223.496 189.316 223.972 189.436 224.412 189.676C224.852 189.908 225.188 190.216 225.42 190.6V187.12H226.524V196H225.42V194.764C225.204 195.156 224.884 195.48 224.46 195.736C224.036 195.984 223.54 196.108 222.972 196.108C222.388 196.108 221.856 195.964 221.376 195.676C220.904 195.388 220.532 194.984 220.26 194.464C219.988 193.944 219.852 193.352 219.852 192.688ZM225.42 192.7C225.42 192.204 225.32 191.772 225.12 191.404C224.92 191.036 224.648 190.756 224.304 190.564C223.968 190.364 223.596 190.264 223.188 190.264C222.78 190.264 222.408 190.36 222.072 190.552C221.736 190.744 221.468 191.024 221.268 191.392C221.068 191.76 220.968 192.192 220.968 192.688C220.968 193.192 221.068 193.632 221.268 194.008C221.468 194.376 221.736 194.66 222.072 194.86C222.408 195.052 222.78 195.148 223.188 195.148C223.596 195.148 223.968 195.052 224.304 194.86C224.648 194.66 224.92 194.376 225.12 194.008C225.32 193.632 225.42 193.196 225.42 192.7ZM231.573 189.304C232.373 189.304 233.021 189.548 233.517 190.036C234.013 190.516 234.261 191.212 234.261 192.124V196H233.181V192.28C233.181 191.624 233.017 191.124 232.689 190.78C232.361 190.428 231.913 190.252 231.345 190.252C230.769 190.252 230.309 190.432 229.965 190.792C229.629 191.152 229.461 191.676 229.461 192.364V196H228.369V189.424H229.461V190.36C229.677 190.024 229.969 189.764 230.337 189.58C230.713 189.396 231.125 189.304 231.573 189.304ZM242.045 192.46C242.045 192.668 242.033 192.888 242.009 193.12H236.753C236.793 193.768 237.013 194.276 237.413 194.644C237.821 195.004 238.313 195.184 238.889 195.184C239.361 195.184 239.753 195.076 240.065 194.86C240.385 194.636 240.609 194.34 240.737 193.972H241.913C241.737 194.604 241.385 195.12 240.857 195.52C240.329 195.912 239.673 196.108 238.889 196.108C238.265 196.108 237.705 195.968 237.209 195.688C236.721 195.408 236.337 195.012 236.057 194.5C235.777 193.98 235.637 193.38 235.637 192.7C235.637 192.02 235.773 191.424 236.045 190.912C236.317 190.4 236.697 190.008 237.185 189.736C237.681 189.456 238.249 189.316 238.889 189.316C239.513 189.316 240.065 189.452 240.545 189.724C241.025 189.996 241.393 190.372 241.649 190.852C241.913 191.324 242.045 191.86 242.045 192.46ZM240.917 192.232C240.917 191.816 240.825 191.46 240.641 191.164C240.457 190.86 240.205 190.632 239.885 190.48C239.573 190.32 239.225 190.24 238.841 190.24C238.289 190.24 237.817 190.416 237.425 190.768C237.041 191.12 236.821 191.608 236.765 192.232H240.917ZM245.815 196.108C245.311 196.108 244.859 196.024 244.459 195.856C244.059 195.68 243.743 195.44 243.511 195.136C243.279 194.824 243.151 194.468 243.127 194.068H244.255C244.287 194.396 244.439 194.664 244.711 194.872C244.991 195.08 245.355 195.184 245.803 195.184C246.219 195.184 246.547 195.092 246.787 194.908C247.027 194.724 247.147 194.492 247.147 194.212C247.147 193.924 247.019 193.712 246.763 193.576C246.507 193.432 246.111 193.292 245.575 193.156C245.087 193.028 244.687 192.9 244.375 192.772C244.071 192.636 243.807 192.44 243.583 192.184C243.367 191.92 243.259 191.576 243.259 191.152C243.259 190.816 243.359 190.508 243.559 190.228C243.759 189.948 244.043 189.728 244.411 189.568C244.779 189.4 245.199 189.316 245.671 189.316C246.399 189.316 246.987 189.5 247.435 189.868C247.883 190.236 248.123 190.74 248.155 191.38H247.063C247.039 191.036 246.899 190.76 246.643 190.552C246.395 190.344 246.059 190.24 245.635 190.24C245.243 190.24 244.931 190.324 244.699 190.492C244.467 190.66 244.351 190.88 244.351 191.152C244.351 191.368 244.419 191.548 244.555 191.692C244.699 191.828 244.875 191.94 245.083 192.028C245.299 192.108 245.595 192.2 245.971 192.304C246.443 192.432 246.827 192.56 247.123 192.688C247.419 192.808 247.671 192.992 247.879 193.24C248.095 193.488 248.207 193.812 248.215 194.212C248.215 194.572 248.115 194.896 247.915 195.184C247.715 195.472 247.431 195.7 247.063 195.868C246.703 196.028 246.287 196.108 245.815 196.108ZM249.348 192.688C249.348 192.016 249.484 191.428 249.756 190.924C250.028 190.412 250.4 190.016 250.872 189.736C251.352 189.456 251.888 189.316 252.48 189.316C252.992 189.316 253.468 189.436 253.908 189.676C254.348 189.908 254.684 190.216 254.916 190.6V187.12H256.02V196H254.916V194.764C254.7 195.156 254.38 195.48 253.956 195.736C253.532 195.984 253.036 196.108 252.468 196.108C251.884 196.108 251.352 195.964 250.872 195.676C250.4 195.388 250.028 194.984 249.756 194.464C249.484 193.944 249.348 193.352 249.348 192.688ZM254.916 192.7C254.916 192.204 254.816 191.772 254.616 191.404C254.416 191.036 254.144 190.756 253.8 190.564C253.464 190.364 253.092 190.264 252.684 190.264C252.276 190.264 251.904 190.36 251.568 190.552C251.232 190.744 250.964 191.024 250.764 191.392C250.564 191.76 250.464 192.192 250.464 192.688C250.464 193.192 250.564 193.632 250.764 194.008C250.964 194.376 251.232 194.66 251.568 194.86C251.904 195.052 252.276 195.148 252.684 195.148C253.092 195.148 253.464 195.052 253.8 194.86C254.144 194.66 254.416 194.376 254.616 194.008C254.816 193.632 254.916 193.196 254.916 192.7ZM257.457 192.688C257.457 192.016 257.593 191.428 257.865 190.924C258.137 190.412 258.509 190.016 258.981 189.736C259.461 189.456 259.993 189.316 260.577 189.316C261.153 189.316 261.653 189.44 262.077 189.688C262.501 189.936 262.817 190.248 263.025 190.624V189.424H264.129V196H263.025V194.776C262.809 195.16 262.485 195.48 262.053 195.736C261.629 195.984 261.133 196.108 260.565 196.108C259.981 196.108 259.453 195.964 258.981 195.676C258.509 195.388 258.137 194.984 257.865 194.464C257.593 193.944 257.457 193.352 257.457 192.688ZM263.025 192.7C263.025 192.204 262.925 191.772 262.725 191.404C262.525 191.036 262.253 190.756 261.909 190.564C261.573 190.364 261.201 190.264 260.793 190.264C260.385 190.264 260.013 190.36 259.677 190.552C259.341 190.744 259.073 191.024 258.873 191.392C258.673 191.76 258.573 192.192 258.573 192.688C258.573 193.192 258.673 193.632 258.873 194.008C259.073 194.376 259.341 194.66 259.677 194.86C260.013 195.052 260.385 195.148 260.793 195.148C261.201 195.148 261.573 195.052 261.909 194.86C262.253 194.66 262.525 194.376 262.725 194.008C262.925 193.632 263.025 193.196 263.025 192.7ZM271.639 189.424L267.679 199.096H266.551L267.847 195.928L265.195 189.424H266.407L268.471 194.752L270.511 189.424H271.639Z" fill="#393939" fill-opacity="0.5"/>
<path d="M293.287 187.636V188.524H291.007V196H289.915V188.524H287.623V187.636H293.287ZM297.895 189.304C298.391 189.304 298.839 189.412 299.239 189.628C299.639 189.836 299.951 190.152 300.175 190.576C300.407 191 300.523 191.516 300.523 192.124V196H299.443V192.28C299.443 191.624 299.279 191.124 298.951 190.78C298.623 190.428 298.175 190.252 297.607 190.252C297.031 190.252 296.571 190.432 296.227 190.792C295.891 191.152 295.723 191.676 295.723 192.364V196H294.631V187.12H295.723V190.36C295.939 190.024 296.235 189.764 296.611 189.58C296.995 189.396 297.423 189.304 297.895 189.304ZM308.139 189.424V196H307.047V195.028C306.839 195.364 306.547 195.628 306.171 195.82C305.803 196.004 305.395 196.096 304.947 196.096C304.435 196.096 303.975 195.992 303.567 195.784C303.159 195.568 302.835 195.248 302.595 194.824C302.363 194.4 302.247 193.884 302.247 193.276V189.424H303.327V193.132C303.327 193.78 303.491 194.28 303.819 194.632C304.147 194.976 304.595 195.148 305.163 195.148C305.747 195.148 306.207 194.968 306.543 194.608C306.879 194.248 307.047 193.724 307.047 193.036V189.424H308.139ZM311.075 190.492C311.267 190.116 311.539 189.824 311.891 189.616C312.251 189.408 312.687 189.304 313.199 189.304V190.432H312.911C311.687 190.432 311.075 191.096 311.075 192.424V196H309.983V189.424H311.075V190.492ZM316.787 196.108C316.283 196.108 315.831 196.024 315.431 195.856C315.031 195.68 314.715 195.44 314.483 195.136C314.251 194.824 314.123 194.468 314.099 194.068H315.227C315.259 194.396 315.411 194.664 315.683 194.872C315.963 195.08 316.327 195.184 316.775 195.184C317.191 195.184 317.519 195.092 317.759 194.908C317.999 194.724 318.119 194.492 318.119 194.212C318.119 193.924 317.991 193.712 317.735 193.576C317.479 193.432 317.083 193.292 316.547 193.156C316.059 193.028 315.659 192.9 315.347 192.772C315.043 192.636 314.779 192.44 314.555 192.184C314.339 191.92 314.231 191.576 314.231 191.152C314.231 190.816 314.331 190.508 314.531 190.228C314.731 189.948 315.015 189.728 315.383 189.568C315.751 189.4 316.171 189.316 316.643 189.316C317.371 189.316 317.959 189.5 318.407 189.868C318.855 190.236 319.095 190.74 319.127 191.38H318.035C318.011 191.036 317.871 190.76 317.615 190.552C317.367 190.344 317.031 190.24 316.607 190.24C316.215 190.24 315.903 190.324 315.671 190.492C315.439 190.66 315.323 190.88 315.323 191.152C315.323 191.368 315.391 191.548 315.527 191.692C315.671 191.828 315.847 191.94 316.055 192.028C316.271 192.108 316.567 192.2 316.943 192.304C317.415 192.432 317.799 192.56 318.095 192.688C318.391 192.808 318.643 192.992 318.851 193.24C319.067 193.488 319.179 193.812 319.187 194.212C319.187 194.572 319.087 194.896 318.887 195.184C318.687 195.472 318.403 195.7 318.035 195.868C317.675 196.028 317.259 196.108 316.787 196.108ZM320.321 192.688C320.321 192.016 320.457 191.428 320.729 190.924C321.001 190.412 321.373 190.016 321.845 189.736C322.325 189.456 322.861 189.316 323.453 189.316C323.965 189.316 324.441 189.436 324.881 189.676C325.321 189.908 325.657 190.216 325.889 190.6V187.12H326.993V196H325.889V194.764C325.673 195.156 325.353 195.48 324.929 195.736C324.505 195.984 324.009 196.108 323.441 196.108C322.857 196.108 322.325 195.964 321.845 195.676C321.373 195.388 321.001 194.984 320.729 194.464C320.457 193.944 320.321 193.352 320.321 192.688ZM325.889 192.7C325.889 192.204 325.789 191.772 325.589 191.404C325.389 191.036 325.117 190.756 324.773 190.564C324.437 190.364 324.065 190.264 323.657 190.264C323.249 190.264 322.877 190.36 322.541 190.552C322.205 190.744 321.937 191.024 321.737 191.392C321.537 191.76 321.437 192.192 321.437 192.688C321.437 193.192 321.537 193.632 321.737 194.008C321.937 194.376 322.205 194.66 322.541 194.86C322.877 195.052 323.249 195.148 323.657 195.148C324.065 195.148 324.437 195.052 324.773 194.86C325.117 194.66 325.389 194.376 325.589 194.008C325.789 193.632 325.889 193.196 325.889 192.7ZM328.43 192.688C328.43 192.016 328.566 191.428 328.838 190.924C329.11 190.412 329.482 190.016 329.954 189.736C330.434 189.456 330.966 189.316 331.55 189.316C332.126 189.316 332.626 189.44 333.05 189.688C333.474 189.936 333.79 190.248 333.998 190.624V189.424H335.102V196H333.998V194.776C333.782 195.16 333.458 195.48 333.026 195.736C332.602 195.984 332.106 196.108 331.538 196.108C330.954 196.108 330.426 195.964 329.954 195.676C329.482 195.388 329.11 194.984 328.838 194.464C328.566 193.944 328.43 193.352 328.43 192.688ZM333.998 192.7C333.998 192.204 333.898 191.772 333.698 191.404C333.498 191.036 333.226 190.756 332.882 190.564C332.546 190.364 332.174 190.264 331.766 190.264C331.358 190.264 330.986 190.36 330.65 190.552C330.314 190.744 330.046 191.024 329.846 191.392C329.646 191.76 329.546 192.192 329.546 192.688C329.546 193.192 329.646 193.632 329.846 194.008C330.046 194.376 330.314 194.66 330.65 194.86C330.986 195.052 331.358 195.148 331.766 195.148C332.174 195.148 332.546 195.052 332.882 194.86C333.226 194.66 333.498 194.376 333.698 194.008C333.898 193.632 333.998 193.196 333.998 192.7ZM342.611 189.424L338.651 199.096H337.523L338.819 195.928L336.167 189.424H337.379L339.443 194.752L341.483 189.424H342.611Z" fill="#393939" fill-opacity="0.5"/>
<path d="M381.423 187.636V188.524H377.787V191.344H380.739V192.232H377.787V196H376.695V187.636H381.423ZM383.834 190.492C384.026 190.116 384.298 189.824 384.65 189.616C385.01 189.408 385.446 189.304 385.958 189.304V190.432H385.67C384.446 190.432 383.834 191.096 383.834 192.424V196H382.742V189.424H383.834V190.492ZM387.783 188.356C387.575 188.356 387.399 188.284 387.255 188.14C387.111 187.996 387.039 187.82 387.039 187.612C387.039 187.404 387.111 187.228 387.255 187.084C387.399 186.94 387.575 186.868 387.783 186.868C387.983 186.868 388.151 186.94 388.287 187.084C388.431 187.228 388.503 187.404 388.503 187.612C388.503 187.82 388.431 187.996 388.287 188.14C388.151 188.284 387.983 188.356 387.783 188.356ZM388.311 189.424V196H387.219V189.424H388.311ZM389.764 192.688C389.764 192.016 389.9 191.428 390.172 190.924C390.444 190.412 390.816 190.016 391.288 189.736C391.768 189.456 392.304 189.316 392.896 189.316C393.408 189.316 393.884 189.436 394.324 189.676C394.764 189.908 395.1 190.216 395.332 190.6V187.12H396.436V196H395.332V194.764C395.116 195.156 394.796 195.48 394.372 195.736C393.948 195.984 393.452 196.108 392.884 196.108C392.3 196.108 391.768 195.964 391.288 195.676C390.816 195.388 390.444 194.984 390.172 194.464C389.9 193.944 389.764 193.352 389.764 192.688ZM395.332 192.7C395.332 192.204 395.232 191.772 395.032 191.404C394.832 191.036 394.56 190.756 394.216 190.564C393.88 190.364 393.508 190.264 393.1 190.264C392.692 190.264 392.32 190.36 391.984 190.552C391.648 190.744 391.38 191.024 391.18 191.392C390.98 191.76 390.88 192.192 390.88 192.688C390.88 193.192 390.98 193.632 391.18 194.008C391.38 194.376 391.648 194.66 391.984 194.86C392.32 195.052 392.692 195.148 393.1 195.148C393.508 195.148 393.88 195.052 394.216 194.86C394.56 194.66 394.832 194.376 395.032 194.008C395.232 193.632 395.332 193.196 395.332 192.7ZM397.873 192.688C397.873 192.016 398.009 191.428 398.281 190.924C398.553 190.412 398.925 190.016 399.397 189.736C399.877 189.456 400.409 189.316 400.993 189.316C401.569 189.316 402.069 189.44 402.493 189.688C402.917 189.936 403.233 190.248 403.441 190.624V189.424H404.545V196H403.441V194.776C403.225 195.16 402.901 195.48 402.469 195.736C402.045 195.984 401.549 196.108 400.981 196.108C400.397 196.108 399.869 195.964 399.397 195.676C398.925 195.388 398.553 194.984 398.281 194.464C398.009 193.944 397.873 193.352 397.873 192.688ZM403.441 192.7C403.441 192.204 403.341 191.772 403.141 191.404C402.941 191.036 402.669 190.756 402.325 190.564C401.989 190.364 401.617 190.264 401.209 190.264C400.801 190.264 400.429 190.36 400.093 190.552C399.757 190.744 399.489 191.024 399.289 191.392C399.089 191.76 398.989 192.192 398.989 192.688C398.989 193.192 399.089 193.632 399.289 194.008C399.489 194.376 399.757 194.66 400.093 194.86C400.429 195.052 400.801 195.148 401.209 195.148C401.617 195.148 401.989 195.052 402.325 194.86C402.669 194.66 402.941 194.376 403.141 194.008C403.341 193.632 403.441 193.196 403.441 192.7ZM412.055 189.424L408.095 199.096H406.967L408.263 195.928L405.611 189.424H406.823L408.887 194.752L410.927 189.424H412.055Z" fill="#393939" fill-opacity="0.5"/>
<path d="M449.248 196.084C448.696 196.084 448.2 195.988 447.76 195.796C447.328 195.596 446.988 195.324 446.74 194.98C446.492 194.628 446.364 194.224 446.356 193.768H447.52C447.56 194.16 447.72 194.492 448 194.764C448.288 195.028 448.704 195.16 449.248 195.16C449.768 195.16 450.176 195.032 450.472 194.776C450.776 194.512 450.928 194.176 450.928 193.768C450.928 193.448 450.84 193.188 450.664 192.988C450.488 192.788 450.268 192.636 450.004 192.532C449.74 192.428 449.384 192.316 448.936 192.196C448.384 192.052 447.94 191.908 447.604 191.764C447.276 191.62 446.992 191.396 446.752 191.092C446.52 190.78 446.404 190.364 446.404 189.844C446.404 189.388 446.52 188.984 446.752 188.632C446.984 188.28 447.308 188.008 447.724 187.816C448.148 187.624 448.632 187.528 449.176 187.528C449.96 187.528 450.6 187.724 451.096 188.116C451.6 188.508 451.884 189.028 451.948 189.676H450.748C450.708 189.356 450.54 189.076 450.244 188.836C449.948 188.588 449.556 188.464 449.068 188.464C448.612 188.464 448.24 188.584 447.952 188.824C447.664 189.056 447.52 189.384 447.52 189.808C447.52 190.112 447.604 190.36 447.772 190.552C447.948 190.744 448.16 190.892 448.408 190.996C448.664 191.092 449.02 191.204 449.476 191.332C450.028 191.484 450.472 191.636 450.808 191.788C451.144 191.932 451.432 192.16 451.672 192.472C451.912 192.776 452.032 193.192 452.032 193.72C452.032 194.128 451.924 194.512 451.708 194.872C451.492 195.232 451.172 195.524 450.748 195.748C450.324 195.972 449.824 196.084 449.248 196.084ZM453.231 192.688C453.231 192.016 453.367 191.428 453.639 190.924C453.911 190.412 454.283 190.016 454.755 189.736C455.235 189.456 455.767 189.316 456.351 189.316C456.927 189.316 457.427 189.44 457.851 189.688C458.275 189.936 458.591 190.248 458.799 190.624V189.424H459.903V196H458.799V194.776C458.583 195.16 458.259 195.48 457.827 195.736C457.403 195.984 456.907 196.108 456.339 196.108C455.755 196.108 455.227 195.964 454.755 195.676C454.283 195.388 453.911 194.984 453.639 194.464C453.367 193.944 453.231 193.352 453.231 192.688ZM458.799 192.7C458.799 192.204 458.699 191.772 458.499 191.404C458.299 191.036 458.027 190.756 457.683 190.564C457.347 190.364 456.975 190.264 456.567 190.264C456.159 190.264 455.787 190.36 455.451 190.552C455.115 190.744 454.847 191.024 454.647 191.392C454.447 191.76 454.347 192.192 454.347 192.688C454.347 193.192 454.447 193.632 454.647 194.008C454.847 194.376 455.115 194.66 455.451 194.86C455.787 195.052 456.159 195.148 456.567 195.148C456.975 195.148 457.347 195.052 457.683 194.86C458.027 194.66 458.299 194.376 458.499 194.008C458.699 193.632 458.799 193.196 458.799 192.7ZM463.08 190.324V194.2C463.08 194.52 463.148 194.748 463.284 194.884C463.42 195.012 463.656 195.076 463.992 195.076H464.796V196H463.812C463.204 196 462.748 195.86 462.444 195.58C462.14 195.3 461.988 194.84 461.988 194.2V190.324H461.136V189.424H461.988V187.768H463.08V189.424H464.796V190.324H463.08ZM471.951 189.424V196H470.859V195.028C470.651 195.364 470.359 195.628 469.983 195.82C469.615 196.004 469.207 196.096 468.759 196.096C468.247 196.096 467.787 195.992 467.379 195.784C466.971 195.568 466.647 195.248 466.407 194.824C466.175 194.4 466.059 193.884 466.059 193.276V189.424H467.139V193.132C467.139 193.78 467.303 194.28 467.631 194.632C467.959 194.976 468.407 195.148 468.975 195.148C469.559 195.148 470.019 194.968 470.355 194.608C470.691 194.248 470.859 193.724 470.859 193.036V189.424H471.951ZM474.887 190.492C475.079 190.116 475.351 189.824 475.703 189.616C476.063 189.408 476.499 189.304 477.011 189.304V190.432H476.723C475.499 190.432 474.887 191.096 474.887 192.424V196H473.795V189.424H474.887V190.492ZM477.864 192.688C477.864 192.016 478 191.428 478.272 190.924C478.544 190.412 478.916 190.016 479.388 189.736C479.868 189.456 480.404 189.316 480.996 189.316C481.508 189.316 481.984 189.436 482.424 189.676C482.864 189.908 483.2 190.216 483.432 190.6V187.12H484.536V196H483.432V194.764C483.216 195.156 482.896 195.48 482.472 195.736C482.048 195.984 481.552 196.108 480.984 196.108C480.4 196.108 479.868 195.964 479.388 195.676C478.916 195.388 478.544 194.984 478.272 194.464C478 193.944 477.864 193.352 477.864 192.688ZM483.432 192.7C483.432 192.204 483.332 191.772 483.132 191.404C482.932 191.036 482.66 190.756 482.316 190.564C481.98 190.364 481.608 190.264 481.2 190.264C480.792 190.264 480.42 190.36 480.084 190.552C479.748 190.744 479.48 191.024 479.28 191.392C479.08 191.76 478.98 192.192 478.98 192.688C478.98 193.192 479.08 193.632 479.28 194.008C479.48 194.376 479.748 194.66 480.084 194.86C480.42 195.052 480.792 195.148 481.2 195.148C481.608 195.148 481.98 195.052 482.316 194.86C482.66 194.66 482.932 194.376 483.132 194.008C483.332 193.632 483.432 193.196 483.432 192.7ZM485.973 192.688C485.973 192.016 486.109 191.428 486.381 190.924C486.653 190.412 487.025 190.016 487.497 189.736C487.977 189.456 488.509 189.316 489.093 189.316C489.669 189.316 490.169 189.44 490.593 189.688C491.017 189.936 491.333 190.248 491.541 190.624V189.424H492.645V196H491.541V194.776C491.325 195.16 491.001 195.48 490.569 195.736C490.145 195.984 489.649 196.108 489.081 196.108C488.497 196.108 487.969 195.964 487.497 195.676C487.025 195.388 486.653 194.984 486.381 194.464C486.109 193.944 485.973 193.352 485.973 192.688ZM491.541 192.7C491.541 192.204 491.441 191.772 491.241 191.404C491.041 191.036 490.769 190.756 490.425 190.564C490.089 190.364 489.717 190.264 489.309 190.264C488.901 190.264 488.529 190.36 488.193 190.552C487.857 190.744 487.589 191.024 487.389 191.392C487.189 191.76 487.089 192.192 487.089 192.688C487.089 193.192 487.189 193.632 487.389 194.008C487.589 194.376 487.857 194.66 488.193 194.86C488.529 195.052 488.901 195.148 489.309 195.148C489.717 195.148 490.089 195.052 490.425 194.86C490.769 194.66 491.041 194.376 491.241 194.008C491.441 193.632 491.541 193.196 491.541 192.7ZM500.154 189.424L496.194 199.096H495.066L496.362 195.928L493.71 189.424H494.922L496.986 194.752L499.026 189.424H500.154Z" fill="#393939" fill-opacity="0.5"/>
<path d="M532.889 196.084C532.337 196.084 531.841 195.988 531.401 195.796C530.969 195.596 530.629 195.324 530.381 194.98C530.133 194.628 530.005 194.224 529.997 193.768H531.161C531.201 194.16 531.361 194.492 531.641 194.764C531.929 195.028 532.345 195.16 532.889 195.16C533.409 195.16 533.817 195.032 534.113 194.776C534.417 194.512 534.569 194.176 534.569 193.768C534.569 193.448 534.481 193.188 534.305 192.988C534.129 192.788 533.909 192.636 533.645 192.532C533.381 192.428 533.025 192.316 532.577 192.196C532.025 192.052 531.581 191.908 531.245 191.764C530.917 191.62 530.633 191.396 530.393 191.092C530.161 190.78 530.045 190.364 530.045 189.844C530.045 189.388 530.161 188.984 530.393 188.632C530.625 188.28 530.949 188.008 531.365 187.816C531.789 187.624 532.273 187.528 532.817 187.528C533.601 187.528 534.241 187.724 534.737 188.116C535.241 188.508 535.525 189.028 535.589 189.676H534.389C534.349 189.356 534.181 189.076 533.885 188.836C533.589 188.588 533.197 188.464 532.709 188.464C532.253 188.464 531.881 188.584 531.593 188.824C531.305 189.056 531.161 189.384 531.161 189.808C531.161 190.112 531.245 190.36 531.413 190.552C531.589 190.744 531.801 190.892 532.049 190.996C532.305 191.092 532.661 191.204 533.117 191.332C533.669 191.484 534.113 191.636 534.449 191.788C534.785 191.932 535.073 192.16 535.312 192.472C535.553 192.776 535.673 193.192 535.673 193.72C535.673 194.128 535.565 194.512 535.349 194.872C535.133 195.232 534.813 195.524 534.389 195.748C533.965 195.972 533.465 196.084 532.889 196.084ZM543.111 189.424V196H542.019V195.028C541.811 195.364 541.519 195.628 541.143 195.82C540.775 196.004 540.367 196.096 539.919 196.096C539.407 196.096 538.947 195.992 538.539 195.784C538.131 195.568 537.807 195.248 537.567 194.824C537.335 194.4 537.219 193.884 537.219 193.276V189.424H538.299V193.132C538.299 193.78 538.463 194.28 538.791 194.632C539.119 194.976 539.567 195.148 540.135 195.148C540.719 195.148 541.179 194.968 541.515 194.608C541.851 194.248 542.019 193.724 542.019 193.036V189.424H543.111ZM548.159 189.304C548.959 189.304 549.607 189.548 550.103 190.036C550.599 190.516 550.847 191.212 550.847 192.124V196H549.767V192.28C549.767 191.624 549.603 191.124 549.275 190.78C548.947 190.428 548.499 190.252 547.931 190.252C547.355 190.252 546.895 190.432 546.551 190.792C546.215 191.152 546.047 191.676 546.047 192.364V196H544.955V189.424H546.047V190.36C546.263 190.024 546.555 189.764 546.923 189.58C547.299 189.396 547.711 189.304 548.159 189.304ZM552.223 192.688C552.223 192.016 552.359 191.428 552.631 190.924C552.903 190.412 553.275 190.016 553.747 189.736C554.227 189.456 554.763 189.316 555.355 189.316C555.867 189.316 556.343 189.436 556.783 189.676C557.223 189.908 557.559 190.216 557.791 190.6V187.12H558.895V196H557.791V194.764C557.575 195.156 557.255 195.48 556.831 195.736C556.407 195.984 555.911 196.108 555.343 196.108C554.759 196.108 554.227 195.964 553.747 195.676C553.275 195.388 552.903 194.984 552.631 194.464C552.359 193.944 552.223 193.352 552.223 192.688ZM557.791 192.7C557.791 192.204 557.691 191.772 557.491 191.404C557.291 191.036 557.019 190.756 556.675 190.564C556.339 190.364 555.967 190.264 555.559 190.264C555.151 190.264 554.779 190.36 554.443 190.552C554.107 190.744 553.839 191.024 553.639 191.392C553.439 191.76 553.339 192.192 553.339 192.688C553.339 193.192 553.439 193.632 553.639 194.008C553.839 194.376 554.107 194.66 554.443 194.86C554.779 195.052 555.151 195.148 555.559 195.148C555.967 195.148 556.339 195.052 556.675 194.86C557.019 194.66 557.291 194.376 557.491 194.008C557.691 193.632 557.791 193.196 557.791 192.7ZM560.332 192.688C560.332 192.016 560.468 191.428 560.74 190.924C561.012 190.412 561.384 190.016 561.856 189.736C562.336 189.456 562.868 189.316 563.452 189.316C564.028 189.316 564.528 189.44 564.952 189.688C565.376 189.936 565.692 190.248 565.9 190.624V189.424H567.004V196H565.9V194.776C565.684 195.16 565.36 195.48 564.928 195.736C564.504 195.984 564.008 196.108 563.44 196.108C562.856 196.108 562.328 195.964 561.856 195.676C561.384 195.388 561.012 194.984 560.74 194.464C560.468 193.944 560.332 193.352 560.332 192.688ZM565.9 192.7C565.9 192.204 565.8 191.772 565.6 191.404C565.4 191.036 565.128 190.756 564.784 190.564C564.448 190.364 564.076 190.264 563.668 190.264C563.26 190.264 562.888 190.36 562.552 190.552C562.216 190.744 561.948 191.024 561.748 191.392C561.548 191.76 561.448 192.192 561.448 192.688C561.448 193.192 561.548 193.632 561.748 194.008C561.948 194.376 562.216 194.66 562.552 194.86C562.888 195.052 563.26 195.148 563.668 195.148C564.076 195.148 564.448 195.052 564.784 194.86C565.128 194.66 565.4 194.376 565.6 194.008C565.8 193.632 565.9 193.196 565.9 192.7ZM574.514 189.424L570.554 199.096H569.426L570.722 195.928L568.07 189.424H569.282L571.346 194.752L573.386 189.424H574.514Z" fill="#393939" fill-opacity="0.5"/>
<rect x="72" y="79" width="12" height="88" rx="2" fill="#2D8E00"/>
<rect x="151" y="59" width="12" height="108" rx="2" fill="#2D8E00"/>
<rect x="230" y="131" width="12" height="36" rx="2" fill="#2D8E00"/>
<rect x="309" y="67" width="12" height="100" rx="2" fill="#2D8E00"/>
<rect x="388" y="91" width="12" height="76" rx="2" fill="#2D8E00"/>
<rect x="467" y="61" width="12" height="106" rx="2" fill="#2D8E00"/>
<rect x="546" y="61" width="12" height="106" rx="2" fill="#2D8E00"/>
</svg>
